<?xml version="1.0" encoding="UTF-8"?>
<!-- Generator: visioncortex VTracer 0.6.12 -->
<svg version="1.1" xmlns="http://www.w3.org/2000/svg" viewBox="0 0 816 931" preserveAspectRatio="xMidYMid meet">
<path d="M0 0 C0.9900000000000091 0.3299999999999983 1.9800000000000182 0.6599999999999966 3 1 C4.000173128011909 3.4287717253417043 4.793228539217978 5.7400156620226 5.53125 8.25 C5.763689117431625 9.003074340820312 5.996128234863306 9.756148681640624 6.2356109619140625 10.53204345703125 C6.738110523560181 12.164160868499664 7.235128589899716 13.79797363964424 7.727325439453125 15.4332275390625 C9.032838933989922 19.77005478336517 10.37673360200779 24.095018260701067 11.71484375 28.421875 C11.986548919677716 29.304540405273443 12.25825408935549 30.18720581054687 12.538192749023438 31.09661865234375 C15.457477673912535 40.55246348112716 18.592704322822556 49.93260114196755 21.75732421875 59.30859375 C29 80.76992328519856 29 80.76992328519856 29 85 C24.59449592164691 84.3955825468613 20.745723208052368 83.29837778163045 16.59765625 81.70703125 C15.383601074218745 81.24401611328125 14.169545898437491 80.7810009765625 12.918701171875 80.303955078125 C11.633222389624962 79.80700611679529 10.347823235021508 79.30985113480875 9.0625 78.8125 C7.753153793836077 78.31041865081335 6.443664463589073 77.80871038880382 5.134033203125 77.307373046875 C-3.6097265972751416 73.95330208267646 -12.332777633431476 70.54772314486483 -21 67 C-20.38138141814909 61.48755268116521 -19.047060709984407 56.526553490143556 -17.3046875 51.26953125 C-17.036104278564437 50.44446578979492 -16.76752105712893 49.61940032958984 -16.490798950195313 48.76933288574219 C-15.624778976180437 46.11507779280856 -14.75020918577826 43.46373773748607 -13.875 40.8125 C-13.28073527426858 38.99878655175287 -12.686741385256369 37.184984341366146 -12.093017578125 35.37109375 C-8.207533983719202 23.529257279217433 -4.24080595311068 11.720045543142206 0 0 Z " fill="#0a0a0a" stroke="#e8e0c8" stroke-width="3" stroke-linejoin="round" transform="translate(413,49)"/>
<path d="M0 0 C7.676808712658612 0.46382691358849115 14.203945162350124 3.1319524829894476 21.3125 5.9375 C23.889193931409295 6.947699323827322 26.46761668210314 7.953398926488575 29.046875 8.95703125 C29.701441802978536 9.21260803222657 30.356008605957015 9.468184814453139 31.030410766601563 9.73150634765625 C35.571169748973716 11.489668515729477 40.14730491323155 13.0954320283048 44.765625 14.63671875 C45.99240966796873 15.056389160156243 47.219194335937516 15.476059570312486 48.483154296875 15.908447265625 C50.81947780451304 16.702519978165782 53.16463006574486 17.47120134225949 55.518798828125 18.210693359375 C63.11078235088746 20.840089466283132 63.11078235088746 20.840089466283132 65.53662109375 24.00439453125 C66.61368744251297 26.316816534551407 67.3483010876729 28.53564383094178 68 31 C68.21535400390627 31.681108398437516 68.43070800781248 32.362216796875 68.652587890625 33.06396484375 C69.32354537903427 35.23864880424074 69.91545160362296 37.4255593828446 70.5 39.625 C72.55032356148138 47.11035342577625 74.7675646817961 54.532810451617564 77.08984375 61.9375 C77.36329620361329 62.812239685058586 77.63674865722658 63.68697937011717 77.91848754882813 64.58822631835938 C79.0361133715985 68.1615669626691 80.15432005966738 71.73460286679676 81.2890625 75.30255126953125 C82.09488200886773 77.83738785689607 82.89007269624994 80.37535386739478 83.68359375 82.9140625 C83.93221664428711 83.6850830078125 84.18083953857422 84.45610351562499 84.43699645996094 85.25048828125 C86.11355616231259 90.6593315130622 86.11355616231259 90.6593315130622 85 94 C78.5275066876394 91.91327903917846 72.17820980963319 89.58506223889782 65.84375 87.11328125 C64.87889678955077 86.73877838134766 63.91404357910153 86.36427551269531 62.919952392578125 85.97842407226563 C59.7791074562316 84.75865077457982 56.63949875299443 83.53573357031587 53.5 82.3125 C51.320847074406856 81.4648061155217 49.14164733032732 80.61723257737873 46.96240234375 79.769775390625 C42.50540540748352 78.03615718715159 38.04895466789276 76.30114341543782 33.5927734375 74.5654296875 C28.302633131343157 72.5056603315947 23.00989070657431 70.45270016800401 17.71575927734375 68.40321350097656 C13.914239823689059 66.93115720138414 10.113858561561415 65.45617903212121 6.313720703125 63.980560302734375 C4.527229771740451 63.28751034423314 2.7402854411010935 62.595627945404914 0.952880859375 61.904937744140625 C-1.5197145392858147 60.94910669671128 -3.990524358134053 59.988798185465924 -6.4609375 59.02734375 C-7.18675018310546 58.7479898071289 -7.912562866210919 58.468635864257806 -8.660369873046875 58.180816650390625 C-11.694763734547735 56.99518524709987 -14.2761333060717 55.81591112928555 -17 54 C-15.642444363194215 47.435506723522735 -13.875632987383767 41.14830326038373 -11.77734375 34.78515625 C-11.471800689697261 33.84820419311524 -11.166257629394522 32.91125213623047 -10.851455688476563 31.945907592773438 C-10.210488907912065 29.98306524510079 -9.567512298948088 28.020878158219375 -8.922607421875 26.059326171875 C-7.932792660779683 23.04817965577962 -6.949287820596055 20.035027586709873 -5.966796875 17.021484375 C-5.341509339898607 15.109256097218207 -4.715870918054179 13.197142513747622 -4.08984375 11.28515625 C-3.7950462341308366 10.38313980102538 -3.50024871826173 9.481123352050787 -3.1965179443359375 8.551773071289063 C-2.922758331298837 7.720081024169929 -2.648998718261737 6.888388977050795 -2.366943359375 6.031494140625 C-2.1264878845215094 5.299190826416009 -1.886032409667962 4.566887512207018 -1.6382904052734375 3.8123931884765625 C-1 2 -1 2 0 0 Z " fill="#0a0a0a" stroke="#e8e0c8" stroke-width="3" stroke-linejoin="round" transform="translate(385,135)"/>
<path d="M0 0 C7.73771256754992 2.1989676474470627 15.26984288589216 4.8356263228055525 22.8125 7.625 C24.092118837435123 8.0962824482788 25.37174136525107 8.567554876588389 26.6513671875 9.038818359375 C51.29346010305915 18.133942361815627 75.85158968392795 27.464980022142697 100.375 36.875 C101.38272460937503 37.261154785156236 102.39044921875 37.6473095703125 103.4287109375 38.045166015625 C105.20081709420288 38.7279773647021 106.96780857291361 39.4243267799765 108.7275390625 40.138427734375 C111 41 111 41 113.0458984375 41.472900390625 C114.8828125 41.96484375 114.8828125 41.96484375 118 44 C120.10564956648312 48.04104447122921 121.25849219270611 52.31662457535191 122.5 56.6875 C122.90070755693284 58.023378001173455 123.30428147855281 59.35839895648223 123.71044921875 60.692626953125 C124.62566719453332 63.70837609028132 125.52625373685072 66.72808858707572 126.4208984375 69.75 C128.2017590819712 75.72046235086623 130.08913307843892 81.6562830923005 131.9765625 87.59375 C133.01497297270828 90.86979544217536 134.05281904862397 94.1460192720981 135.090576171875 97.42227172851563 C135.7798703313603 99.59807502666678 136.46981119432985 101.77367355558835 137.160400390625 103.94906616210938 C138.1362868404654 107.03062569645994 139.10433194862367 110.11454184100006 140.0703125 113.19921875 C140.36668609619142 114.130244140625 140.66305969238283 115.06126953124999 140.96841430664063 116.0205078125 C141.23681121826172 116.88216552734377 141.50520812988282 117.74382324218749 141.78173828125 118.631591796875 C142.018049621582 119.3819218444824 142.25436096191407 120.13225189208981 142.49783325195313 120.90531921386719 C143 123 143 123 143 127 C137.5803488561645 126.42148549724533 132.97120799328292 125.07891590690878 127.90234375 123.11328125 C127.51532539367679 122.96665794372558 127.51532539367679 122.96665794372558 125.55677795410156 122.22465515136719 C123.88765601998585 121.59145286365543 122.21975710290491 120.95501904715366 120.552978515625 120.315673828125 C116.97272446406936 118.94245774506311 113.38658446108332 117.5849358655338 109.80068969726563 116.22653198242188 C107.9424639303353 115.52249717294114 106.08453605724651 114.8176756309631 104.22689819335938 114.11209106445313 C95.9460787212605 110.9692039925817 87.63929082602994 107.89995987809044 79.32327270507813 104.85165405273438 C68.89082373714069 101.02737745185652 58.46554480037531 97.18488596926238 48.0625 93.28125 C47.23267105102536 92.96989105224611 46.40284210205078 92.65853210449217 45.54786682128906 92.33773803710938 C41.37901355039787 90.77230573477107 37.21182904856602 89.2025729544826 33.046630859375 87.62744140625 C24.416076374718273 84.36932214450644 15.764854813717875 81.18980417557441 7.06640625 78.1171875 C4.418609824330986 77.17344525057854 1.7713561870404533 76.22819627625495 -0.875732421875 75.282470703125 C-2.57263286942748 74.68136720902868 -4.27217681077758 74.08767068115185 -5.974365234375 73.501708984375 C-8.321706394856221 72.69349341369445 -10.659171126534716 71.8612110021628 -12.99609375 71.0234375 C-13.34556816101076 70.9070542907715 -13.34556816101076 70.9070542907715 -15.114120483398438 70.31808471679688 C-19.697271264763685 68.63815857494541 -19.697271264763685 68.63815857494541 -21.062255859375 65.7607421875 C-20.982318945045506 62.21593188460656 -20.114827829158685 59.138358697071396 -19.0078125 55.8046875 C-18.786395874023412 55.1071838378906 -18.564979248046882 54.40968017578126 -18.33685302734375 53.6910400390625 C-17.611030668273543 51.415165962636365 -16.868429355600085 49.14517736513079 -16.125 46.875 C-15.620415308179645 45.30707384929366 -15.116678387913453 43.73887463056164 -14.61376953125 42.17041015625 C-13.33785982373206 38.20367973669613 -12.046550977155789 34.242181118047256 -10.748291015625 30.28271484375 C-10.032556479056097 28.09931584964903 -9.31958161957101 25.915035940742 -8.607421875 23.73046875 C-7.371302923695453 19.942651565868005 -6.125657702248418 16.158045347794825 -4.875 12.375 C-4.497465820312527 11.232729492187502 -4.119931640624998 10.090458984375005 -3.73095703125 8.91357421875 C-3.3840380859375045 7.877329101562509 -3.037119140625009 6.84108398437499 -2.6796875 5.7734375 C-2.377885742187516 4.870288085937489 -2.076083984374975 3.9671386718750057 -1.76513671875 3.03662109375 C-1 1 -1 1 0 0 Z " fill="#0a0a0a" stroke="#e8e0c8" stroke-width="3" stroke-linejoin="round" transform="translate(362,209)"/>
<path d="M0 0 C5.1480665966885795 0.5037392842609734 9.687712505878267 2.2123609233379966 14.48046875 4.03515625 C15.30883743286131 4.345130462646466 16.137206115722677 4.655104675292989 16.990676879882813 4.9744720458984375 C19.724848673430643 5.998835670156836 22.45611795402658 7.0307233881746924 25.1875 8.0625 C27.11957567233668 8.787685098972759 29.051871210545528 9.512284662802074 30.984375 10.236328125 C35.000043033472366 11.741382101538761 39.01475187842874 13.248954855198065 43.02880859375 14.75830078125 C51.295598136702665 17.864592362458097 59.573742117005395 20.940254640440116 67.85195922851563 24.01593017578125 C72.30809653239089 25.671928187798642 76.76338095767267 27.33021764351929 81.21875 28.98828125 C83.00911241749151 29.654465456120647 84.7994770048465 30.32064383078682 86.58984375 30.98681640625 C91.14906381452857 32.68331597806139 95.70820585104792 34.3800251372561 100.26731872558594 36.076812744140625 C103.93772108972979 37.442831310068016 107.60815956923057 38.808752824172814 111.27859497070313 40.1746826171875 C113.97410339170904 41.17786213472431 116.66954857266796 42.18121143567424 119.364990234375 43.1845703125 C127.95082153802758 46.380145580377416 136.53815662857664 49.57157479482851 145.12890625 52.75390625 C146.73893905044747 53.35064908260085 148.34896523502402 53.947409765394184 149.958984375 54.544189453125 C152.92721505960128 55.64439490020277 155.89603698800056 56.742982754931006 158.865234375 57.840576171875 C160.20314897385703 58.33636109071125 161.54104090102294 58.83220719674347 162.87890625 59.328125 C163.44903442382815 59.539047851562486 163.44903442382815 59.539047851562486 166.334228515625 60.6064453125 C167.54393310546874 61.06631835937503 168.75363769531248 61.52619140625001 170 62 C170.82204421997073 62.194588012695306 171.6440884399414 62.38917602539061 172.4910430908203 62.58966064453125 C176.71260984222312 63.78555864060161 179.26030826271312 64.76907978487395 181.5747528076172 68.62054443359375 C182.92475903296315 72.12241017765575 184.00069265846014 75.6542795682879 185.00390625 79.265625 C185.40971408621272 80.61063657390355 185.8194283362336 81.9544749824422 186.23280334472656 83.29718017578125 C187.09191636326545 86.10744668030276 187.92881120319964 88.92295971246614 188.74884033203125 91.744873046875 C189.94788413017432 95.85466743138795 191.22058952909344 99.9382441904691 192.51904296875 104.017578125 C194.19264736875846 109.28366508791021 195.85205404783505 114.55359242714178 197.486328125 119.83203125 C197.6876956748963 120.48239097595217 197.8890632247925 121.13275070190429 198.09653282165527 121.80281829833984 C198.50424439505196 123.11996841318307 198.91188593677396 124.43714020768755 199.3194580078125 125.75433349609375 C200.15771481494528 128.46107681258786 200.9987362462698 131.16695765928733 201.83985042572021 133.8728141784668 C206.18848928908892 147.8629123094587 206.18848928908892 147.8629123094587 208.06295776367188 153.9559326171875 C208.67738866606282 155.95196758386066 209.29647135404412 157.9465778350937 209.92068481445313 159.9395751953125 C210.05852890014648 160.38540954589843 210.05852890014648 160.38540954589843 210.756103515625 162.6416015625 C210.99756607055667 163.4152203369141 211.23902862548834 164.1888391113281 211.48780822753906 164.98590087890625 C212 167 212 167 212 170 C206.95337175230748 169.3570544176793 202.57577487098774 167.88302429238297 197.859375 166.078125 C197.07343963623043 165.78232543945313 196.28750427246098 165.48652587890626 195.47775268554688 165.1817626953125 C192.89977387665704 164.20986868924547 190.32488925090593 163.23004689235142 187.75 162.25 C185.9316339703953 161.56241254796362 184.11310961175877 160.87524367247136 182.29443359375 160.1884765625 C176.85980605060422 158.13390248386463 171.42928422645036 156.06864683417768 166 154 C165.2498864746094 153.71431152343746 164.4997729492187 153.42862304687503 163.7269287109375 153.13427734375 C157.66874362995566 150.82633106684568 151.6128011090966 148.512560055314 145.5595703125 146.191650390625 C132.88278292379147 141.331261574184 120.19223642698284 136.50738510196106 107.5 131.6875 C91.15869766928193 125.48122676551156 74.81970899463579 119.26898951688884 58.486419677734375 113.04165649414063 C47.92796214250751 109.01611583849842 37.36628512582422 104.99920132191016 26.80078125 100.9921875 C24.535800446068322 100.13283054251713 22.270826469776807 99.2734555894134 20.005859375 98.4140625 C16.702373910700373 97.16064539741791 13.398729704953723 95.9076575136279 10.094482421875 94.65625 C-1.6474179363650592 90.20926694756054 -13.367760307339267 85.72765231186389 -25 81 C-24.407174377770048 74.26619837337603 -22.705453297649058 68.22549881219777 -20.6484375 61.80078125 C-20.311317443847656 60.72990768432618 -19.974197387695313 59.65903411865236 -19.626861572265625 58.55570983886719 C-18.549336285574384 55.139236205829604 -17.462133953098544 51.725926593955194 -16.375 48.3125 C-15.66737444977781 46.06984889179466 -14.960338111967985 43.8270117793931 -14.25390625 41.583984375 C-10.914821795712726 31.007189427706805 -7.521795829415623 20.448386507582086 -4.0390625 9.91796875 C-3.7459115600585733 9.026204376220676 -3.4527606201172034 8.134440002441409 -3.150726318359375 7.2156524658203125 C-1.1189279261233764 1.1189279261233764 -1.1189279261233764 1.1189279261233764 0 0 Z " fill="#0a0a0a" stroke="#e8e0c8" stroke-width="3" stroke-linejoin="round" transform="translate(334,295)"/>
<path d="M0 0 C5.6898058643367335 0.5869573343755405 10.563279766175526 2.1088855246902654 15.89453125 4.140625 C16.74586639404299 4.458711242675804 17.597201538085926 4.776797485351551 18.474334716796875 5.104522705078125 C21.256371995168934 6.146107242281971 24.03442765928662 7.197890983619573 26.8125 8.25 C28.767139481648314 8.984404601841902 30.72197590889914 9.718285225656132 32.677001953125 10.45166015625 C45.37448597378176 15.222026862611301 58.0484966287799 20.054293263972454 70.70947265625 24.920654296875 C84.2131490347237 30.10653034057816 97.7638857451775 35.1656030090104 111.3131103515625 40.23101806640625 C124.68984228879253 45.233803158117155 138.03780009033568 50.30028059776134 151.341796875 55.493316650390625 C158.89536206644755 58.440453095601356 166.46303956245822 61.28699938303453 174.132568359375 63.9169921875 C179.49342538724272 65.7722255205947 184.74388605152012 67.86786839736294 190 70 C195.9375879061439 72.4077222241429 201.8798275520561 74.72455879848354 207.9375 76.8125 C216.05930717171623 79.61385050728626 224.09289584875887 82.64085701229425 232.125 85.6875 C232.4427085876465 85.80768997192382 232.4427085876465 85.80768997192382 234.05050659179688 86.41592407226563 C237.03808221662302 87.54682956919743 240.01974238955233 88.68865611662028 242.9921875 89.85888671875 C246 91 246 91 248.2890625 91.62939453125 C251.07836052260893 92.45598999928478 252.6946337863044 93.44102340526399 254.09619140625 96.006591796875 C255.150773533637 98.80716544333359 255.96587516359455 101.61192730185655 256.75 104.5 C257.410148145652 106.74517731577362 258.0716916662791 108.98994465965063 258.734375 111.234375 C259.0882226562501 112.46349609375 259.44207031249994 113.69261718749999 259.806640625 114.958984375 C261.107439824382 119.42084172230636 262.52688038416727 123.84255732559609 263.953125 128.265625 C264.4626337780238 129.85219148943497 264.97207394143993 131.43878001535893 265.4814453125 133.025390625 C266.2378679492957 135.38040341340786 266.9951816411849 137.73509925453118 267.7562255859375 140.088623046875 C268.4695935374498 142.3016782911336 269.1733758369372 144.51757297026688 269.875 146.734375 C269.9826065063477 147.06462677001946 269.9826065063477 147.06462677001946 270.52716064453125 148.73590087890625 C271.6331176550477 152.26038806448423 272.2399344585185 155.30395080443964 272 159 C270.8462084960938 158.9992749023438 269.6924169921874 158.9985498046875 268.503662109375 158.997802734375 C267.7053749084473 158.99756607055667 266.9070877075195 158.99732940673834 266.08460998535156 158.99708557128906 C264.1958869429951 158.99640308121093 262.3071640563894 158.99509589803677 260.41844177246094 158.99327087402344 C254.11999992873814 158.99015862242038 247.8221994791295 159.01064462378145 241.52392578125 159.05126953125 C234.36592250135595 159.09624976198904 227.20864469252592 159.10064464909783 220.05054664611816 159.07515907287598 C215.88986821002266 159.06175865481396 211.73059329376338 159.065066325967 207.570068359375 159.106201171875 C188.25280851647193 159.2845249150248 172.0719010365449 158.8065041984445 154.37265014648438 150.11740112304688 C150.76654590692794 148.41910399606627 147.0429384691509 147.16423732876729 143.265625 145.90625 C134.85647261541806 143.00805338766395 126.58866397322504 139.77563145115744 118.31585693359375 136.51177978515625 C113.81518141080096 134.73705397956292 109.31012049119863 132.97354450074386 104.8046875 131.2109375 C103.89095367431639 130.85345428466803 102.97721984863279 130.49597106933595 102.03579711914063 130.12765502929688 C93.33887744498855 126.73116696907482 84.61245159919133 123.41556304981304 75.875 120.125 C59.667384029374034 114.01888315289699 43.484194619678306 107.85068084392327 27.319091796875 101.6328125 C18.070519548553875 98.0773206196825 8.815159696858245 94.54679106377415 -0.4765625 91.10546875 C-2.84487830162891 90.22244797712511 -5.212767243947553 89.3382939209456 -7.580474853515625 88.45364379882813 C-9.054614713797378 87.90636642798313 -10.53065098333309 87.3641671796426 -12.008636474609375 86.82736206054688 C-14.017112866763398 86.09780450060441 -16.018657216249437 85.3516679648755 -18.01953125 84.6015625 C-19.13432861328124 84.1924462890625 -20.249125976562482 83.783330078125 -21.397705078125 83.36181640625 C-24 82 -24 82 -25.50146484375 80.295166015625 C-26.26154013877715 76.7959163346502 -25.09932030133797 73.95990458318039 -23.95703125 70.67578125 C-23.717517395019513 69.94910247802733 -23.478003540039083 69.22242370605466 -23.231231689453125 68.47372436523438 C-22.43903589160624 66.0817084866656 -21.625971114989568 63.69735574922936 -20.8125 61.3125 C-20.259162060170866 59.65580043888701 -19.707174475264367 57.998649286696946 -19.156494140625 56.341064453125 C-18.018289273317578 52.92286222649187 -16.871576870484432 49.507694501661774 -15.7177734375 46.0947265625 C-14.075581850446952 41.233793238458816 -12.45986890198509 36.36442024857013 -10.8515625 31.4921875 C-3.0326958587316426 7.845236172259888 -3.0326958587316426 7.845236172259888 0 0 Z " fill="#0a0a0a" stroke="#e8e0c8" stroke-width="3" stroke-linejoin="round" transform="translate(302,395)"/>
<path d="M0 0 C5.220338234832411 0.5632669909333003 9.749767814075426 1.8327824388305203 14.6328125 3.78125 C15.365151062011705 4.06615798950196 16.09748962402341 4.35106597900392 16.852020263671875 4.6446075439453125 C18.44182239800756 5.263910105152604 20.030333684777077 5.886534502605173 21.61767578125 6.512115478515625 C25.99179333017537 8.235515663231581 30.37571055002627 9.933748523604777 34.7578125 11.63671875 C35.67782043457032 11.995093231201167 36.59782836914064 12.353467712402335 37.54571533203125 12.722702026367188 C46.744487486966136 16.301925022551416 55.97716702583057 19.789046453917422 65.2154541015625 23.264739990234375 C82.28790128335447 29.68870572050116 99.33914336866223 36.16714342825196 116.375 42.6875 C117.35887695312499 43.06363433837896 118.34275390624998 43.43976867675781 119.3564453125 43.827301025390625 C130.60753805282855 48.12965583621451 141.8339094340862 52.481009831981964 153 57 C153 57.33000000000004 153 57.65999999999997 153 58 C135.26439078583047 58.023561459648135 117.52878658759892 58.04109157469247 99.79316520690918 58.051812171936035 C91.55465032777329 58.05692648670197 83.31614527816856 58.06387404235204 75.07763671875 58.075439453125 C67.88084725485498 58.08553749037367 60.68406492090992 58.09188858089237 53.487268567085266 58.09408849477768 C49.69128033799302 58.09537049742312 45.89531247093453 58.09829078942403 42.09933090209961 58.105730056762695 C22.376199802103372 58.14291229150217 2.708519139105988 57.800675247669005 -17 57 C-16.40479894447273 51.94965537892551 -15.680054854925771 47.37951236030301 -14.14453125 42.5078125 C-13.77199218749999 41.31583251953123 -13.399453125000008 40.123852539062455 -13.015625 38.895751953125 C-12.817109374999973 38.27357788085942 -12.817109374999973 38.27357788085942 -11.8125 35.125 C-11.404535007981337 33.83110342478301 -10.996985686681512 32.53707571831774 -10.58984375 31.242919921875 C-1.982194043647894 3.964388087295845 -1.982194043647894 3.964388087295845 0 0 Z " fill="#0a0a0a" stroke="#e8e0c8" stroke-width="3" stroke-linejoin="round" transform="translate(269,495)"/>
<path d="M0 0 C1.1205546945333538 0.0003797203302156049 2.2411093890667075 0.0007594406604312098 3.395620286464691 0.001150667667388916 C4.682984302639966 -0.0008403807878494263 5.97034831881524 -0.0028314292430877686 7.296723365783691 -0.0048828125 C8.744043825774355 -0.0020292133252723943 10.191364106666072 0.0009163948923287535 11.638684213161469 0.003943979740142822 C13.161598785194712 0.0035084115573909003 14.684513285188473 0.002633771956197961 16.207427382469177 0.001354813575744629 C20.412358246918046 -0.0008929846313776579 24.61726388902511 0.003135004269097408 28.822191536426544 0.008132874965667725 C33.34914195845647 0.012433129965529588 37.8760908451373 0.010991255266276312 42.40304273366928 0.010230600833892822 C50.252961375608834 0.009705093994512026 58.10287173499427 0.01285466709339289 65.95278829336166 0.01846843957901001 C77.30258693327238 0.026579847068660456 88.65238154975424 0.029198289664236654 100.00218277424574 0.030456431210041046 C118.41446103976546 0.032647517495320244 136.8267348864693 0.03930913451301876 155.2390107512474 0.04875904321670532 C173.1296355255708 0.05793169817047783 191.02025910164411 0.0650132472040923 208.9108857512474 0.06926685571670532 C209.4618550736085 0.0693982174619805 209.4618550736085 0.0693982174619805 212.2500937655568 0.07006298750638962 C217.77794541654237 0.07136798200326666 223.30579707604682 0.07263170029102639 228.83364874124527 0.07387489080429077 C274.7256906530692 0.08424926760847029 320.6177243956895 0.1026885165317708 366.5097627043724 0.12419849634170532 C366.5097627043724 32.794198496341664 366.5097627043724 65.46419849634174 366.5097627043724 99.1241984963417 C288.6297627043724 99.45419849634175 210.74976270437242 99.78419849634167 130.5097627043724 100.1241984963417 C131.9599648208441 143.63026199049182 131.9599648208441 143.63026199049182 147.2519502043724 160.0851359963417 C157.6383190011423 169.46521300657332 170.79957389989903 171.6726941350364 184.3222627043724 171.4991984963417 C184.89436475515367 171.49412281274795 184.89436475515367 171.49412281274795 187.7895478606224 171.4684367775917 C201.21886750983418 171.22218486078316 215.3307493005143 169.59009507317296 225.7050752043724 160.1202922463417 C233.36980684988544 151.15672532198653 233.86763709558159 140.7973820065888 234.1323212981224 129.4977336525917 C234.30875060086657 123.32521059984754 234.30875060086657 123.32521059984754 236.5097627043724 121.1241984963417 C238.43974107503897 120.87530952692032 238.43974107503897 120.87530952692032 240.84364026784897 120.87696033716202 C241.29865667104718 120.87486309289932 241.29865667104718 120.87486309289932 243.6013154387474 120.86424976587296 C244.60243360280992 120.86986927270891 245.60355176687244 120.87548877954487 246.6350068449974 120.8812785744667 C247.161042535305 120.8803294014931 247.161042535305 120.8803294014931 249.82310193777084 120.87552601099014 C253.3137825035239 120.87180985166322 256.8042567630153 120.88253376070361 260.2949189543724 120.8937297463417 C262.7110513140391 120.89492109587854 265.1271841417542 120.8953748044562 267.54331678152084 120.89511829614639 C272.611669960494 120.89668457373068 277.6799526475445 120.90498579830683 282.7482880949974 120.9183879494667 C289.26117850582636 120.93538703826539 295.7739914190796 120.9392021219104 302.2869014143944 120.93844276666641 C307.27697712732447 120.93871403166463 312.267035728996 120.94418806884812 317.2571057677269 120.95144420862198 C319.65940369406735 120.95463734398118 322.06170356822577 120.95659977830053 324.4640035033226 120.95733791589737 C327.8140073305141 120.95949415868495 331.16392716184873 120.96822255276516 334.5139130949974 120.9789348244667 C335.5170554900169 120.9784816384315 336.5201978850364 120.97802845239642 337.55373853445053 120.97756153345108 C338.0073450255394 120.97969402551655 338.0073450255394 120.97969402551655 340.30286878347397 120.99048572778702 C341.09577849149696 120.99216157197952 341.8886881995202 120.99383741617203 342.705625474453 120.99556404352188 C344.5097627043724 121.1241984963417 344.5097627043724 121.1241984963417 345.5097627043724 122.1241984963417 C345.6687218697166 124.748044389705 345.7626550359839 127.3468151585796 345.8137177824974 129.9735637307167 C345.8331393218041 130.79645389795303 345.85256086111076 131.61934406518935 345.87257093191147 132.46717029809952 C346.0416964581225 140.08623098021076 346.1381430310039 147.7067226761485 346.21364015340805 155.327230989933 C346.2649669847913 160.44669987748478 346.33926432628164 165.56346165435912 346.4699677824974 170.6815715432167 C346.59585624595 175.63026379390067 346.66205584920476 180.57651685642065 346.6872281432152 185.52671200037003 C346.70679225977665 187.40834937836019 346.7471028096081 189.28989594833274 346.80908864736557 191.1706138253212 C347.2951426226848 206.64498902957348 347.2951426226848 206.64498902957348 342.92373365163803 211.44759327173233 C340.03687579412644 214.07802802630158 336.85546188406227 216.1134894164161 333.5097627043724 218.1241984963417 C331.9131915912801 219.269335767622 330.3227787007304 220.42321720503844 328.7441377043724 221.5929484963417 C327.2543877688893 222.6107839922555 325.7595437789728 223.62120263628822 324.2597627043724 224.6241984963417 C323.45111768484117 225.17043873071668 322.6424726653099 225.71667896509166 321.8093232512474 226.2794719338417 C285.31181206661347 250.79000282055267 245.62222900998722 271.9452295298871 200.9707002043724 274.8781047463417 C198.50976270437246 275.1241984963417 198.50976270437246 275.1241984963417 195.5097627043724 276.1241984963417 C195.17976270437237 290.31419849634176 194.84976270437244 304.5041984963417 194.5097627043724 319.1241984963417 C171.3439881451784 319.1241984963417 171.3439881451784 319.1241984963417 162.1972627043724 316.6241984963417 C161.15151075124743 316.3528508400917 160.1057587981224 316.08150318384173 159.0283173918724 315.8019328713417 C155.8417777322299 314.95129287783664 152.67478869337288 314.05147367165114 149.5097627043724 313.1241984963417 C148.5573066496849 312.8457609963417 147.6048505949974 312.5673234963417 146.6235322356224 312.2804484963417 C123.41964259790467 305.28161426803376 100.93372032794338 294.1133931140166 80.5097627043724 281.1241984963417 C79.7287519621849 280.63097095727926 78.9477412199974 280.1377434182167 78.1430634856224 279.6295695900917 C45.13905651017251 258.71008690785584 45.13905651017251 258.71008690785584 31.509762704372406 245.1241984963417 C31.197809579372404 244.82384693384165 31.197809579372404 244.82384693384165 29.619137704372406 243.3038859963417 C21.958527287384953 235.29506601494575 20.178903872145924 225.50877889133085 18.966793954372406 214.9015422463417 C18.839509103298184 213.80914737939838 18.71222425222396 212.71675251245495 18.58108228445053 211.59125477075577 C17.174442050361648 198.9432324534664 16.498299846369264 186.26858574851076 15.884762704372406 173.5616984963417 C15.758154814167057 171.07324519525935 15.631362058417665 168.58480129343593 15.504391610622406 166.0963664650917 C14.667415763623069 149.30864886627353 14.073707334372614 132.52220149290224 13.800290048122406 115.7157512307167 C13.786513192653672 114.94185550928114 13.77273633718491 114.16795978784558 13.758542001247406 113.37061268091202 C13.72346475579974 111.32452017941898 13.695180493568529 109.27831428366301 13.667477548122406 107.2321086525917 C13.509762704372406 104.1241984963417 13.509762704372406 104.1241984963417 12.509762704372406 101.1241984963417 C10.400387704372434 100.3156047463417 10.400387704372434 100.3156047463417 7.759762704372406 99.6866984963417 C3.5249699222003414 98.53561032951382 0.6752293680245032 97.28966515999377 -2.490237295627594 94.1241984963417 C-4.13588553195811 90.83290202368062 -3.6283264378633646 87.17678382658141 -3.619631826877594 83.5595012307167 C-3.621384146213529 82.6732405495643 -3.6231364655494644 81.786979868412 -3.624941885471344 80.87386280298233 C-3.629354577325273 77.93515288519097 -3.6264246942837985 74.99650280957258 -3.623049795627594 72.0577922463417 C-3.623722941739061 70.02280372489201 -3.6246930565636433 67.98781528161715 -3.625948965549469 65.95282703638077 C-3.6274250990461496 61.68482914785295 -3.625273854849951 57.416852162614305 -3.620608389377594 53.148856699466705 C-3.6149075427067032 47.66504940540665 -3.618192897462592 42.1812910102193 -3.624180853366852 36.697485506534576 C-3.6277856553679726 32.494906993787026 -3.6266483172542507 28.292340171993146 -3.6240530610084534 24.089761316776276 C-3.6233837545708525 22.067049822692525 -3.6242123409847693 20.04433728292895 -3.6265326142311096 18.021627008914948 C-3.6290582046155464 15.200889591056352 -3.62522004104261 12.380232620943275 -3.619631826877594 9.559501230716705 C-3.6216560578346275 8.715321390628787 -3.623680288791661 7.8711415505408695 -3.625765860080719 7.001380503177643 C-3.600593151815559 0.1795765633174824 -3.600593151815559 0.1795765633174824 0 0 Z " fill="#0a0a0a" stroke="#e8e0c8" stroke-width="3" stroke-linejoin="round" transform="translate(230.4902372956276,567.8758015036583)"/>
</svg>
