<svg version="1.0" xmlns="http://www.w3.org/2000/svg"
 width="324" height="401" viewBox="0 0 324 401"
 preserveAspectRatio="xMidYMid meet">
<g transform="translate(0,401) scale(0.100000,-0.100000)"
fill="#d4181f" stroke="none">
<path fill-rule="evenodd" d="M1667 3892 c-8 -9 -18 -39 -22 -67 -7 -46 -14 -57 -98 -142 -50 -51
-94 -90 -97 -88 -18 11 -38 -35 -42 -96 -8 -104 -43 -168 -151 -277 l-92 -92
-92 92 c-104 103 -103 103 -149 15 -78 -152 -231 -318 -465 -507 -80 -65 -167
-142 -193 -171 -185 -205 -217 -594 -75 -899 49 -104 64 -121 143 -155 63 -27
63 -27 70 -128 42 -645 492 -1177 1076 -1272 718 -116 1384 474 1436 1273 7
101 7 101 39 112 40 13 61 37 114 125 139 233 104 479 -113 810 -254 386 -321
513 -351 663 -34 168 -40 171 -135 77 l-76 -75 -105 107 c-261 269 -512 559
-554 644 -32 62 -48 74 -68 51z m87 -727 c45 -70 64 -123 72 -200 7 -66 7 -66
-52 -126 -56 -57 -60 -59 -109 -59 -48 0 -53 3 -102 53 -62 63 -72 110 -53
258 12 94 12 94 68 151 56 58 56 58 100 15 25 -23 59 -64 76 -92z m-658 -457
c28 -29 67 -78 87 -108 21 -30 69 -91 108 -135 163 -184 208 -297 180 -450
-10 -55 -16 -65 -74 -121 -75 -74 -128 -90 -267 -82 -104 7 -151 25 -213 86
-152 148 -155 417 -7 712 20 40 115 150 130 150 3 0 28 -24 56 -52z m1341
-100 c68 -71 117 -209 117 -336 1 -83 1 -83 -66 -149 -68 -65 -68 -65 -148
-61 -80 3 -80 3 -137 60 -67 67 -80 133 -49 241 21 73 192 297 226 297 3 0 29
-24 57 -52z"/>
</g>
</svg>
