<svg xmlns="http://www.w3.org/2000/svg" viewBox="23.2 388.8 208.8 307.9">
<g id="SPLINE_15_">
	<path fill="#d4181f" d="M23.2,520.6c5.4-0.2,10.8-0.3,16.2,1.1c5.1,1.4,10.2,4.3,13.1,8.5c3.7,5.5,3.5,13.2,2.3,20.3
		c-2,11.8-6.6,21.8-11.8,31.8c-6.9,13.3-14.8,26.6-17.3,41.5c-2.5,14.9,0.5,31.4,8.9,44c5.9,8.8,14.6,15.8,24.1,20.2
		c10.9,5.1,22.9,6.9,34.9,8.7c-5.5-5.1-10.9-10.2-15.8-16c-4.8-5.8-9-12.4-11.2-19.6c-2-6.9-2.2-14.5-0.6-21.6
		c1.3-5.7,3.7-11,6.1-16.4c-0.7,5.5-1.3,11-0.5,16.4c1.2,7.5,5.3,14.6,10.6,20.5c5.3,5.8,11.7,10.4,18.9,12.7
		c4.1,1.3,8.5,1.8,12.8,2.2c-2.1-3.8-4.2-7.5-5.9-11.6c-2.4-5.7-4-12-4.1-18.1c-0.2-13.7,6.8-27,15.9-37.3c8-9,17.6-15.7,23-26.8
		c4-8.1,5.7-18.5,7.2-27.7c2.7,6.5,4,12.1,4.1,17.9c0.2,10.3-3.4,20.7-8,30.1c-5.1,10.3-11.6,19.4-16,29.8
		c-2.9,6.9-4.9,14.5-4.8,21.9c0,5.3,1.1,10.6,2.2,15.9c7.5-2.9,14.9-5.8,21.5-10.1c6.7-4.5,12.4-10.6,17.4-17.1
		c3.5-4.5,6.5-9.3,9.6-14c0,7.1-0.1,14.2-1.8,21.2c-1.4,5.6-3.8,11.2-6.7,16.2c-4.1,7.2-9.3,13.3-15,18.5c-5,4.5-10.3,8.2-16.7,11.9
		c10.6-0.3,20.8-1.9,31.1-4.6c11.8-3.1,23.8-7.8,34.4-16.1c9.9-7.7,18.6-18.7,24-31c10.3-23.7,7.9-52.4-1.3-74.7
		c-4.4-10.7-10.3-19.8-13.1-29.8c0,10.5-0.7,19.3-2.5,27.7c-1.8,8.4-4.6,16.3-10.6,22.3c-3.8,3.8-8.8,6.7-15.4,7.6
		c4.1-6.9,8.2-13.8,10.8-21.2c3.1-8.9,4-18.4,2.3-27.9c-1.9-10.9-7.2-21.7-14.3-30.3c-5.9-7.1-13.1-12.7-19.5-19
		c-9.7-9.5-17.8-20.7-23.2-32.9c-4.2-9.5-6.7-19.7-5.6-34c-10.3,16-11.6,28.8-10.4,40.7c0.6,6.4,1.9,12.6,7.1,24.7
		c-9.4-4.6-16.1-11.8-20.8-19.8c-6.9-11.6-9.6-25.1-9.1-37.7c0.5-10.8,3.4-20.9,7.5-30.1c3.2-7.3,7-14,10.8-20.7
		c-6.3,4.1-12.6,8.2-18.6,13c-7.4,6-14.3,13.1-19.1,21.3c-7.4,12.7-9.7,28.1-7.6,42.4c1.4,9.1,4.6,17.8,8.5,26.2
		c6.6,14.1,15.3,27.1,19.6,43.1c2.5,9,3.6,18.9,2,27.8c-1.4,7.9-5,15-11,17.2c-3,1.1-6.5,1.1-9.3-0.8c-2.8-1.9-4.8-5.8-5.9-9.4
		c-1.7-5.6-1.4-10.8-1.5-16.4c-0.2-7.8-1.3-16.5-5.3-23.7c-3.2-5.8-8.4-10.6-14.2-13.2c-5.9-2.7-12.4-3.1-19-1.8
		C32.2,515.3,27.8,517,23.2,520.6z"/>
</g>
</svg>
