<svg xmlns="http://www.w3.org/2000/svg" viewBox="0 0 200 220">
  <path fill="#d4181f" fill-rule="evenodd" d="M 10 170
    C 8 140, 16 85, 26 55
    C 24 44, 30 40, 36 52
    C 44 70, 54 85, 62 100
    C 72 78, 80 48, 90 18
    C 92 14, 98 14, 100 22
    C 114 52, 126 82, 136 104
    C 148 88, 162 78, 172 66
    C 176 60, 180 60, 178 72
    C 184 108, 188 145, 190 170
    A 90 50 0 0 1 10 170
    Z
    M 48 80.5 C 43 99.8, 36 110.8, 36 121.8 C 36 135.5, 64 135.5, 64 121.8 C 64 110.8, 57 99.8, 48 80.5 Z
    M 93 54.5 C 88 73.8, 81 84.8, 81 95.8 C 81 109.5, 109 109.5, 109 95.8 C 109 84.8, 102 73.8, 93 54.5 Z
    M 142 90 C 133.5 107.5, 127 117.5, 127 127.5 C 127 140, 153 140, 153 127.5 C 153 117.5, 146.5 107.5, 142 90 Z"/>
</svg>
