<svg xmlns="http://www.w3.org/2000/svg" viewBox="0 0 772 392" preserveAspectRatio="xMidYMid meet"><path fill="#d4181f" fill-rule="evenodd" d="M0.000,196.000L0.000,0.000L87.250,0.133C137.129,0.209 171.286,0.608 166.996,1.064C128.305,5.178 91.411,22.338 63.435,49.233C53.789,58.506 36.000,79.806 36.000,82.082C36.000,82.424 39.841,82.974 44.536,83.305C49.231,83.637 56.662,84.457 61.050,85.129L69.029,86.350L73.688,94.925C79.307,105.268 84.986,114.000 86.094,114.000C86.539,114.000 88.368,111.863 90.158,109.250C98.633,96.876 117.618,80.742 132.500,73.264C155.931,61.492 188.544,57.335 214.455,62.818C219.930,63.976 224.447,64.829 224.494,64.712C224.887,63.727 239.623,46.742 242.418,44.054C246.640,39.992 246.739,38.883 244.096,25.249C240.738,7.924 240.449,7.220 236.222,6.038C230.630,4.474 217.449,2.093 209.000,1.122C204.591,0.615 277.741,0.261 386.500,0.263C490.514,0.265 568.049,0.630 563.616,1.098C555.107,1.995 541.768,4.362 535.778,6.038C531.551,7.220 531.262,7.924 527.904,25.249C525.261,38.883 525.360,39.992 529.582,44.054C532.365,46.732 546.975,63.566 547.538,64.744C547.602,64.878 551.670,64.093 556.577,62.999C603.241,52.594 652.753,70.265 680.145,107.101C682.966,110.895 685.623,114.000 686.048,114.000C686.980,114.000 693.156,104.309 698.842,93.924L702.990,86.348L710.959,85.128C715.342,84.457 722.769,83.637 727.464,83.305C732.159,82.974 736.000,82.424 736.000,82.082C736.000,81.741 732.457,76.745 728.128,70.981C698.682,31.779 653.386,6.317 603.893,1.143C598.464,0.576 626.662,0.219 683.750,0.133L772.000,0.000L772.000,196.000L772.000,392.000L386.000,392.000L0.000,392.000L0.000,196.000ZM203.872,389.439C221.155,386.901 240.016,381.484 253.046,375.316L258.994,372.500L249.233,365.283C243.864,361.314 237.862,356.364 235.895,354.283L232.319,350.500L233.172,339.000C234.228,324.761 233.588,318.524 231.177,319.570C183.394,340.311 132.618,332.090 97.500,297.927L90.500,291.117L82.000,293.604C77.325,294.972 70.125,296.657 66.000,297.348L58.500,298.605L54.762,306.032C52.705,310.116 49.647,317.262 47.965,321.911L44.906,330.364L53.203,338.782C92.190,378.338 149.122,397.479 203.872,389.439ZM627.288,388.046C663.385,380.291 693.895,363.936 718.297,339.261L727.094,330.366L724.013,321.933C722.318,317.295 719.259,310.149 717.216,306.053L713.500,298.605L706.000,297.348C701.875,296.657 694.675,294.979 690.000,293.619L681.500,291.147L674.411,298.162C641.922,330.313 591.751,339.782 547.589,322.099C543.332,320.395 539.685,319.000 539.486,319.000C538.401,319.000 538.037,328.964 538.742,339.357L539.546,351.214L534.153,356.144C531.186,358.855 525.188,363.644 520.824,366.786L512.889,372.500L519.694,375.642C532.389,381.503 550.754,386.826 567.500,389.499C580.963,391.648 614.293,390.838 627.288,388.046ZM284.367,358.555C318.349,337.221 350.343,304.717 380.793,260.591L384.086,255.819L387.176,260.160C388.876,262.547 393.919,268.327 398.383,273.004C402.847,277.682 411.000,287.115 416.500,293.967C428.539,308.966 448.924,329.591 462.404,340.413C472.965,348.890 492.741,362.466 496.070,363.522C498.239,364.211 505.360,360.166 518.734,350.648L525.967,345.500L525.984,334.897C525.993,329.065 526.279,321.625 526.620,318.363L527.240,312.432L521.370,308.807C490.089,289.485 463.069,260.588 448.151,230.500C438.778,211.596 434.779,200.202 432.406,185.636L430.664,174.943L433.009,170.722C457.647,126.369 492.034,90.441 526.302,73.250L536.031,68.368L528.766,61.395C524.770,57.559 519.362,52.697 516.750,50.590L512.000,46.759L512.000,40.103C512.000,33.524 513.581,18.138 514.606,14.750C515.393,12.146 513.894,12.533 502.702,17.820C465.653,35.325 430.490,66.758 402.090,107.759C389.219,126.340 386.547,129.989 385.803,129.995C385.420,129.998 380.600,123.355 375.092,115.233C343.422,68.534 308.419,36.305 269.298,17.820C258.109,12.534 256.601,12.145 257.406,14.750C258.340,17.768 259.983,34.223 259.992,40.637L260.000,46.773L253.250,52.321C249.537,55.372 244.108,60.305 241.184,63.283L235.868,68.697L240.944,70.881C266.998,82.089 293.498,105.314 318.100,138.500C325.923,149.052 337.494,166.876 336.869,167.410C336.666,167.584 335.150,168.161 333.500,168.693C331.850,169.225 329.852,170.810 329.059,172.215C327.444,175.080 327.397,174.985 335.097,184.500C337.323,187.250 341.000,191.908 343.268,194.851L347.393,200.202L344.538,205.351C323.004,244.192 285.148,286.494 253.857,306.682L245.214,312.258L245.762,328.879C246.209,342.442 246.603,345.734 247.905,346.770C252.819,350.684 273.290,364.000 274.392,364.000C275.109,364.000 279.597,361.550 284.367,358.555ZM39.324,304.614C49.428,285.523 49.960,285.045 61.119,285.011C64.537,285.001 82.083,282.250 82.707,281.627C82.866,281.467 80.964,277.773 78.479,273.418C56.649,235.157 55.218,183.182 74.713,136.676L79.250,125.852L76.112,121.676C74.386,119.379 70.262,113.450 66.947,108.500C59.840,97.885 60.830,98.280 40.908,98.118L26.315,98.000L22.704,105.750C-8.653,173.034 -6.064,250.456 29.500,309.000C31.505,312.300 33.298,315.000 33.486,315.000C33.673,315.000 36.301,310.326 39.324,304.614ZM745.921,303.000C778.299,245.643 779.581,170.734 749.296,105.750L745.685,98.000L731.092,98.118C711.170,98.280 712.160,97.885 705.053,108.500C701.738,113.450 697.614,119.379 695.888,121.676L692.750,125.852L697.287,136.676C716.782,183.182 715.351,235.157 693.521,273.418C691.036,277.773 689.134,281.467 689.293,281.627C689.917,282.250 707.463,285.001 710.881,285.011C721.893,285.044 724.163,287.297 735.003,308.951C738.763,316.463 738.125,316.810 745.921,303.000ZM400.175,224.618C397.410,222.757 392.911,220.698 390.176,220.042C386.880,219.252 383.494,217.389 380.130,214.518C377.339,212.136 372.905,209.407 370.278,208.454C359.143,204.418 354.894,201.977 350.265,196.957C347.644,194.115 342.462,188.728 338.750,184.985C333.907,180.101 332.000,177.448 332.000,175.590C332.000,172.274 333.053,172.317 335.999,175.750C348.082,189.829 352.079,193.384 359.521,196.666C363.679,198.500 367.835,200.000 368.757,200.000C371.476,200.000 378.739,202.999 391.000,209.183C397.325,212.373 402.974,214.987 403.554,214.992C404.757,215.001 409.958,220.507 411.592,223.500C414.605,229.019 407.718,229.694 400.175,224.618ZM409.974,216.031C408.585,214.538 406.785,213.046 405.974,212.716C404.729,212.209 404.767,211.947 406.217,211.027C407.992,209.901 415.000,199.905 415.000,198.499C415.000,198.063 416.575,195.784 418.500,193.435C420.425,191.085 422.000,188.677 422.000,188.082C422.000,185.805 420.180,187.173 417.437,191.514C413.890,197.125 413.017,196.855 410.681,189.424C406.588,176.404 401.686,164.320 399.162,161.030C388.438,147.049 385.163,138.468 388.561,133.248C393.442,125.749 395.023,126.211 406.974,138.618C417.498,149.545 419.368,152.551 421.515,162.000C422.202,165.025 423.707,169.938 424.858,172.919C427.660,180.173 429.452,193.286 428.010,195.981C426.851,198.147 424.522,198.653 423.479,196.966C421.844,194.321 415.889,205.650 415.093,212.919C414.406,219.201 413.459,219.776 409.974,216.031ZM338.584,175.359C337.694,173.039 340.584,169.080 344.325,167.496C348.157,165.874 349.060,167.213 346.232,170.321C345.142,171.520 343.728,173.512 343.090,174.750C341.729,177.389 339.480,177.693 338.584,175.359ZM415.731,170.250C416.154,168.738 416.500,164.345 416.500,160.490C416.500,153.781 416.328,153.271 412.500,148.656C406.701,141.663 399.120,138.009 402.586,143.877C404.166,146.551 404.170,146.919 402.643,149.099C399.081,154.185 401.227,159.996 408.521,165.015C412.018,167.420 412.656,168.351 412.253,170.458C411.564,174.061 414.718,173.872 415.731,170.250ZM407.441,158.561C405.626,157.215 405.608,157.012 407.172,155.424C409.380,153.184 412.000,154.293 412.000,157.469C412.000,160.316 410.344,160.713 407.441,158.561ZM371.936,154.120C373.503,151.193 381.113,145.000 383.145,145.000C384.700,145.000 387.000,147.678 387.000,149.489C387.000,150.255 377.523,154.454 373.698,155.384C371.154,156.002 370.991,155.885 371.936,154.120ZM404.500,151.000C404.840,150.450 405.541,150.000 406.059,150.000C406.577,150.000 407.000,150.450 407.000,151.000C407.000,151.550 406.298,152.000 405.441,152.000C404.584,152.000 404.160,151.550 404.500,151.000ZM396.444,134.383C397.675,133.911 397.787,133.448 396.921,132.404C396.095,131.410 395.278,131.316 393.895,132.056C390.227,134.019 392.347,135.955 396.444,134.383Z"/></svg>