<svg xmlns="http://www.w3.org/2000/svg" viewBox="0 0 796 416" preserveAspectRatio="xMidYMid meet"><path fill="#d4181f" fill-rule="evenodd" d="M165.438,401.462C127.341,395.899 92.119,378.090 65.203,350.782L56.906,342.364L59.965,333.911C61.647,329.262 64.705,322.116 66.762,318.032L70.500,310.605L78.000,309.348C82.125,308.657 89.325,306.972 94.000,305.604L102.500,303.117L109.500,309.927C144.618,344.090 195.394,352.311 243.177,331.570C245.588,330.524 246.228,336.761 245.172,351.000L244.319,362.500L247.895,366.283C249.862,368.364 255.864,373.314 261.233,377.283L270.994,384.500L265.046,387.316C237.405,400.401 197.238,406.105 165.438,401.462ZM579.500,401.499C562.754,398.826 544.389,393.503 531.694,387.642L524.889,384.500L532.824,378.786C537.188,375.644 543.186,370.855 546.153,368.144L551.546,363.214L550.742,351.357C550.037,340.964 550.401,331.000 551.486,331.000C551.685,331.000 555.332,332.395 559.589,334.099C603.751,351.782 653.922,342.313 686.411,310.162L693.500,303.147L702.000,305.619C706.675,306.979 713.875,308.657 718.000,309.348L725.500,310.605L729.216,318.053C731.259,322.149 734.318,329.295 736.013,333.933L739.094,342.366L730.297,351.261C705.895,375.936 675.385,392.291 639.288,400.046C626.293,402.838 592.963,403.648 579.500,401.499ZM273.295,368.020C266.808,363.632 260.782,359.469 259.905,358.770C258.603,357.734 258.209,354.442 257.762,340.879L257.214,324.258L265.857,318.682C297.148,298.494 335.004,256.192 356.538,217.351L359.393,212.202L355.268,206.851C353.000,203.908 349.323,199.250 347.097,196.500C339.397,186.985 339.444,187.080 341.059,184.215C341.852,182.810 343.850,181.225 345.500,180.693C347.150,180.161 348.666,179.584 348.869,179.410C349.494,178.876 337.923,161.052 330.100,150.500C305.498,117.314 278.998,94.089 252.944,82.881L247.868,80.697L253.184,75.283C256.108,72.305 261.538,67.372 265.250,64.321L272.000,58.773L271.992,52.637C271.983,46.223 270.340,29.768 269.406,26.750C268.601,24.145 270.109,24.534 281.298,29.820C320.419,48.305 355.422,80.534 387.092,127.233C392.600,135.355 397.420,141.998 397.803,141.995C398.547,141.989 401.219,138.340 414.090,119.759C442.490,78.758 477.653,47.325 514.702,29.820C525.894,24.533 527.393,24.146 526.606,26.750C525.581,30.138 524.000,45.524 524.000,52.103L524.000,58.759L528.750,62.590C531.362,64.697 536.770,69.559 540.766,73.395L548.031,80.368L538.302,85.250C504.034,102.441 469.647,138.369 445.009,182.722L442.664,186.943L444.406,197.636C451.877,243.486 487.066,292.206 533.370,320.807L539.240,324.432L538.620,330.363C538.279,333.625 537.993,341.065 537.984,346.897L537.967,357.500L530.734,362.648C517.360,372.166 510.239,376.211 508.070,375.522C504.741,374.466 484.965,360.890 474.404,352.413C460.924,341.591 440.539,320.966 428.500,305.967C423.000,299.115 414.847,289.682 410.383,285.004C405.919,280.327 400.876,274.547 399.176,272.160L396.086,267.819L392.793,272.591C362.343,316.717 330.349,349.221 296.367,370.555C291.597,373.550 287.109,376.000 286.392,376.000C285.676,376.000 279.782,372.409 273.295,368.020ZM41.500,321.000C5.936,262.456 3.347,185.034 34.704,117.750L38.315,110.000L52.908,110.118C72.830,110.280 71.840,109.885 78.947,120.500C82.262,125.450 86.386,131.379 88.112,133.676L91.250,137.852L86.713,148.676C67.218,195.182 68.649,247.157 90.479,285.418C92.964,289.773 94.866,293.467 94.707,293.627C94.083,294.250 76.537,297.001 73.119,297.011C61.960,297.045 61.428,297.523 51.324,316.614C48.301,322.326 45.673,327.000 45.486,327.000C45.298,327.000 43.505,324.300 41.500,321.000ZM747.003,320.951C736.163,299.297 733.893,297.044 722.881,297.011C719.463,297.001 701.917,294.250 701.293,293.627C701.134,293.467 703.036,289.773 705.521,285.418C727.351,247.157 728.782,195.182 709.287,148.676L704.750,137.852L707.888,133.676C709.614,131.379 713.738,125.450 717.053,120.500C724.160,109.885 723.170,110.280 743.092,110.118L757.685,110.000L761.296,117.750C791.581,182.734 790.299,257.643 757.921,315.000C750.125,328.810 750.763,328.463 747.003,320.951ZM424.258,238.750C425.028,236.487 418.013,227.011 415.554,226.992C414.974,226.987 409.325,224.373 403.000,221.183C390.739,214.999 383.476,212.000 380.757,212.000C379.835,212.000 375.679,210.500 371.521,208.666C364.079,205.384 360.082,201.829 347.999,187.750C345.053,184.317 344.000,184.274 344.000,187.590C344.000,189.448 345.907,192.101 350.750,196.985C354.462,200.728 359.644,206.115 362.265,208.957C366.894,213.977 371.143,216.418 382.278,220.454C384.905,221.407 389.339,224.136 392.130,226.518C395.494,229.389 398.880,231.252 402.176,232.042C404.911,232.698 409.410,234.757 412.175,236.618C417.352,240.102 423.434,241.175 424.258,238.750ZM427.093,224.919C427.889,217.650 433.844,206.321 435.479,208.966C436.522,210.653 438.851,210.147 440.010,207.981C441.452,205.286 439.660,192.173 436.858,184.919C435.707,181.938 434.202,177.025 433.515,174.000C431.368,164.551 429.498,161.545 418.974,150.618C407.023,138.211 405.442,137.749 400.561,145.248C397.163,150.468 400.438,159.049 411.162,173.030C413.686,176.320 418.588,188.404 422.681,201.424C425.017,208.855 425.890,209.125 429.437,203.514C432.180,199.173 434.000,197.805 434.000,200.082C434.000,200.677 432.425,203.085 430.500,205.435C428.575,207.784 427.000,210.063 427.000,210.499C427.000,211.905 419.992,221.901 418.217,223.027C416.767,223.947 416.729,224.209 417.974,224.716C418.785,225.046 420.585,226.538 421.974,228.031C425.459,231.776 426.406,231.201 427.093,224.919ZM355.090,186.750C355.728,185.512 357.142,183.520 358.232,182.321C361.060,179.213 360.157,177.874 356.325,179.496C352.584,181.080 349.694,185.039 350.584,187.359C351.480,189.693 353.729,189.389 355.090,186.750ZM424.253,182.458C424.656,180.351 424.018,179.420 420.521,177.015C413.227,171.996 411.081,166.185 414.643,161.099C416.170,158.919 416.166,158.551 414.586,155.877C411.120,150.009 418.701,153.663 424.500,160.656C428.328,165.271 428.500,165.781 428.500,172.490C428.500,181.001 427.498,185.000 425.364,185.000C424.193,185.000 423.896,184.323 424.253,182.458ZM424.000,169.469C424.000,166.293 421.380,165.184 419.172,167.424C417.608,169.012 417.626,169.215 419.441,170.561C422.344,172.713 424.000,172.316 424.000,169.469ZM393.750,164.406C399.425,161.924 399.508,161.817 397.965,158.934C396.437,156.080 393.871,156.562 389.168,160.588C380.357,168.130 382.037,169.530 393.750,164.406ZM419.000,163.000C419.000,162.450 418.577,162.000 418.059,162.000C417.541,162.000 416.840,162.450 416.500,163.000C416.160,163.550 416.584,164.000 417.441,164.000C418.298,164.000 419.000,163.550 419.000,163.000ZM404.000,146.035C404.000,144.165 407.704,142.938 408.921,144.404C409.787,145.448 409.675,145.911 408.444,146.383C406.068,147.295 404.000,147.133 404.000,146.035ZM93.815,120.750C91.907,117.862 88.250,111.641 85.688,106.925L81.029,98.350L73.050,97.129C68.662,96.457 61.231,95.637 56.536,95.305C51.841,94.974 48.000,94.424 48.000,94.082C48.000,91.806 65.789,70.506 75.435,61.233C116.434,21.819 174.847,4.650 233.000,14.919C254.080,18.642 252.122,16.749 256.096,37.249C258.739,50.883 258.640,51.992 254.418,56.054C251.623,58.742 236.887,75.727 236.494,76.712C236.447,76.829 231.930,75.976 226.455,74.818C200.544,69.335 167.931,73.492 144.500,85.264C129.618,92.742 110.633,108.876 102.158,121.250C98.114,127.153 98.042,127.148 93.815,120.750ZM692.145,119.101C664.753,82.265 615.241,64.594 568.577,74.999C563.670,76.093 559.602,76.878 559.538,76.744C558.975,75.566 544.365,58.732 541.582,56.054C537.360,51.992 537.261,50.883 539.904,37.249C543.879,16.745 541.942,18.615 563.000,14.947C631.461,3.023 699.779,29.263 740.128,82.981C744.457,88.745 748.000,93.741 748.000,94.082C748.000,94.424 744.159,94.974 739.464,95.305C734.769,95.637 727.342,96.457 722.959,97.128L714.990,98.348L710.842,105.924C705.156,116.309 698.980,126.000 698.048,126.000C697.623,126.000 694.966,122.895 692.145,119.101Z"/></svg>