<svg xmlns="http://www.w3.org/2000/svg" viewBox="0 0 1374 1370" preserveAspectRatio="xMidYMid meet"><path fill="#d4181f" fill-rule="evenodd" d="M776.000,1320.547C794.963,1318.861 797.766,1318.509 824.000,1314.534C848.281,1310.855 885.493,1303.094 893.343,1300.073C894.907,1299.471 902.332,1297.419 909.843,1295.512C933.023,1289.627 964.010,1278.543 994.500,1265.230C1007.183,1259.692 1047.132,1238.998 1060.500,1231.041C1152.920,1176.034 1229.336,1097.960 1281.255,1005.500C1305.554,962.225 1328.303,905.300 1338.601,862.000C1339.975,856.225 1341.522,850.375 1342.039,849.000C1343.765,844.408 1350.979,802.691 1352.673,787.500C1354.725,769.098 1354.994,720.348 1353.142,702.500C1344.816,622.243 1317.031,550.769 1274.031,498.992C1234.203,451.036 1180.456,415.176 1128.500,401.895C1101.989,395.118 1099.178,395.142 1108.653,402.067C1122.454,412.153 1143.269,431.240 1155.841,445.338C1238.770,538.329 1261.251,658.997 1216.236,769.500C1185.588,844.733 1106.667,943.218 1025.000,1008.141C947.173,1070.012 881.651,1098.993 799.318,1107.965C788.968,1109.093 776.225,1110.509 771.000,1111.113C745.869,1114.015 684.001,1110.656 649.000,1104.489C578.905,1092.139 515.239,1067.042 464.952,1031.938C388.056,978.259 329.708,895.006 301.344,798.500C294.896,776.560 292.838,767.615 287.425,738.000C280.715,701.292 279.506,645.404 284.547,605.047C296.169,512.020 341.276,421.487 408.913,355.439C473.703,292.171 559.990,250.632 644.500,242.028C650.550,241.412 658.781,240.479 662.791,239.954C691.336,236.219 748.138,241.835 775.387,251.087C792.749,256.983 794.258,258.121 798.468,268.500C809.356,295.344 819.554,311.129 834.852,324.814C842.782,331.908 905.834,382.712 912.000,386.975C915.829,389.623 948.599,416.124 969.389,433.386C1002.147,460.585 1009.849,464.971 1028.515,467.052C1051.158,469.577 1080.761,461.431 1095.728,448.557L1098.481,446.189L1096.491,443.947C1095.396,442.714 1087.975,436.517 1080.000,430.176C1050.955,407.083 1037.374,390.301 1021.187,357.500C1011.338,337.541 1004.158,315.442 1006.698,312.902C1008.078,311.522 1029.251,316.544 1070.500,328.033C1087.871,332.872 1109.477,337.956 1112.781,337.982C1116.007,338.007 1116.383,339.939 1114.569,347.173C1113.073,353.141 1104.787,371.091 1099.796,379.179C1096.547,384.444 1097.709,384.620 1107.613,380.366C1126.612,372.204 1140.638,360.311 1151.311,343.314C1156.413,335.190 1156.606,335.017 1162.834,332.985C1170.534,330.474 1175.168,327.587 1180.703,321.853C1191.447,310.723 1203.891,282.838 1203.976,269.700C1204.036,260.300 1194.111,250.211 1134.500,199.080C1108.124,176.456 1103.729,171.869 1092.749,155.500C1069.904,121.444 1052.671,107.695 1018.075,95.927C996.033,88.429 962.610,79.900 930.000,73.453C923.125,72.093 914.125,70.302 910.000,69.471C905.875,68.641 895.750,66.854 887.500,65.500C879.250,64.147 867.550,62.144 861.500,61.050C852.399,59.405 821.565,54.657 790.000,50.040C735.392,42.054 632.188,42.581 594.000,51.041C591.525,51.590 582.389,53.156 573.698,54.522C427.599,77.488 291.911,157.093 196.827,275.622C121.799,369.150 73.532,485.119 64.110,594.500C63.494,601.650 62.542,612.699 61.995,619.053C59.922,643.125 61.635,721.011 64.997,755.500C67.845,784.715 76.252,829.221 84.926,861.000C88.792,875.165 98.933,906.156 100.125,907.450C100.606,907.973 101.000,909.029 101.000,909.798C101.000,913.300 116.199,948.761 127.017,970.500C141.739,1000.084 165.749,1039.193 183.788,1062.973C204.168,1089.839 222.939,1110.970 249.104,1136.500C334.776,1220.092 447.951,1282.210 556.977,1305.481C563.314,1306.834 569.891,1308.352 571.591,1308.855C574.489,1309.712 582.616,1311.101 613.000,1315.930C656.415,1322.831 727.641,1324.849 776.000,1320.547ZM660.000,1287.429C630.297,1285.115 594.348,1279.546 569.637,1273.433C546.449,1267.696 544.933,1267.296 534.000,1264.041C503.094,1254.838 498.030,1252.465 477.795,1237.694C455.621,1221.509 429.551,1198.233 416.565,1183.026C370.927,1129.585 337.178,1067.307 319.008,1003.000C317.842,998.875 316.013,992.575 314.943,989.000C313.184,983.124 310.699,972.257 304.941,945.259C303.228,937.229 298.000,899.682 298.000,895.411C298.000,892.635 300.000,895.050 303.566,902.132C328.311,951.268 367.569,999.714 411.989,1035.931C417.770,1040.644 429.932,1051.700 439.016,1060.500C489.525,1109.432 553.452,1153.065 614.250,1180.108C619.062,1182.249 627.163,1185.856 632.250,1188.124C657.036,1199.176 705.055,1215.094 734.500,1222.020C739.450,1223.184 747.100,1224.984 751.500,1226.019C788.409,1234.704 825.817,1238.500 874.500,1238.500C917.842,1238.500 933.574,1237.306 975.315,1230.851C985.777,1229.233 985.820,1230.133 975.500,1234.721C927.482,1256.068 869.605,1273.032 817.500,1281.033C809.800,1282.216 800.905,1283.587 797.733,1284.080C769.796,1288.424 695.849,1290.223 660.000,1287.429ZM838.000,1194.009C812.979,1191.606 773.952,1186.178 769.020,1184.415C768.206,1184.124 761.006,1182.544 753.020,1180.903C745.034,1179.262 735.800,1177.084 732.500,1176.063C729.200,1175.042 723.575,1173.442 720.000,1172.507C701.482,1167.666 667.912,1155.469 646.085,1145.653C627.209,1137.164 627.442,1136.735 649.131,1140.032C683.699,1145.287 700.031,1146.440 740.000,1146.444C789.558,1146.449 824.585,1142.290 867.000,1131.363C876.625,1128.884 893.275,1125.335 904.000,1123.478C1023.229,1102.825 1145.267,1038.861 1229.584,952.830C1255.097,926.797 1284.544,890.741 1295.801,871.750C1305.611,855.201 1288.584,907.715 1272.538,943.500C1254.612,983.476 1226.167,1030.102 1198.970,1064.086C1196.512,1067.158 1191.832,1073.008 1188.570,1077.086C1174.914,1094.161 1165.091,1102.571 1143.000,1116.103C1065.487,1163.583 1016.040,1181.264 930.500,1192.088C911.851,1194.448 854.890,1195.631 838.000,1194.009ZM336.500,1166.299C289.542,1130.868 246.189,1088.056 213.494,1044.826C200.125,1027.150 197.182,1020.727 183.946,980.341C160.294,908.178 152.922,837.800 161.597,767.000C165.603,734.301 179.074,682.711 189.859,658.761C190.914,656.417 193.251,650.900 195.052,646.500C208.019,614.819 240.381,559.509 259.657,536.083C261.196,534.213 260.728,538.414 258.477,546.664C248.279,584.049 244.544,615.895 244.598,665.000C244.640,703.002 246.091,720.665 251.292,746.500C252.774,753.861 252.707,765.414 251.111,778.000C247.997,802.543 247.459,849.073 250.018,872.500C250.559,877.450 251.723,888.925 252.606,898.000C253.488,907.075 255.039,919.675 256.051,926.000C258.619,942.043 262.732,964.728 263.938,969.500C264.494,971.700 266.334,979.350 268.027,986.500C282.514,1047.685 309.651,1110.579 345.428,1165.888C354.703,1180.228 354.946,1180.217 336.500,1166.299ZM1076.000,1012.241C1076.000,1011.824 1085.940,1001.587 1098.089,989.491C1170.176,917.724 1219.104,850.382 1247.029,784.500C1281.371,703.478 1281.772,609.008 1248.115,528.598C1241.573,512.970 1243.968,514.328 1258.227,534.334C1280.939,566.198 1295.770,597.999 1305.643,636.000C1317.617,682.091 1317.814,697.397 1306.967,738.614C1278.692,846.046 1194.681,947.669 1082.765,1009.815C1076.673,1013.198 1076.000,1013.440 1076.000,1012.241ZM111.775,823.500C111.376,822.400 110.363,818.462 109.525,814.750C108.686,811.038 107.304,804.962 106.453,801.250C91.826,737.431 89.932,623.400 102.655,572.500C107.957,551.287 130.034,507.260 149.791,478.500C208.470,393.079 321.029,315.518 429.064,286.062C440.822,282.856 440.949,283.486 430.250,291.955C425.988,295.329 420.711,299.532 418.524,301.295C380.382,332.041 346.950,367.544 323.225,402.500C318.983,408.750 314.588,413.639 308.843,418.500C295.388,429.883 261.062,463.697 252.363,474.136C250.239,476.687 246.526,481.116 244.114,483.980C179.689,560.464 134.438,654.323 121.001,739.338C119.857,746.577 118.262,756.615 117.457,761.644C116.062,770.357 113.317,803.597 112.761,818.500C112.599,822.843 112.225,824.741 111.775,823.500ZM1028.484,438.159C1011.721,432.421 998.131,421.561 931.312,360.508C923.482,353.354 909.840,340.975 900.997,333.000C847.254,284.535 833.113,263.115 831.349,227.500C830.534,211.070 833.128,191.015 837.963,176.361C839.018,173.163 839.716,170.383 839.516,170.182C837.376,168.043 820.821,184.212 813.339,195.750C807.197,205.220 808.022,204.903 799.584,201.038C742.404,174.850 666.619,165.899 591.327,176.443C573.383,178.955 573.795,179.531 594.515,180.894C612.069,182.050 647.127,186.978 662.000,190.382C687.777,196.280 706.978,201.799 710.371,204.284C711.688,205.248 705.452,205.503 680.266,205.513C644.483,205.529 639.164,206.021 603.500,212.623C586.617,215.748 574.756,217.349 563.500,218.024C487.940,222.554 412.422,239.844 352.000,266.447C291.089,293.265 257.793,312.920 212.990,348.506C196.824,361.346 191.008,366.413 174.176,382.320C169.599,386.646 165.630,389.963 165.357,389.690C163.671,388.004 193.922,339.942 210.796,317.500C251.911,262.814 314.189,207.782 374.190,173.116C438.826,135.772 508.665,108.879 573.000,96.558C580.425,95.136 587.850,93.556 589.500,93.046C593.248,91.889 616.992,88.548 635.500,86.574C643.200,85.753 654.675,84.511 661.000,83.815C675.495,82.220 754.991,82.205 770.000,83.794C816.115,88.678 830.200,90.736 844.250,94.648C847.265,95.487 846.236,97.194 835.897,108.500C824.686,120.760 824.745,121.516 836.575,117.163C880.253,101.090 900.184,101.410 958.500,119.117C1031.137,141.173 1031.896,141.595 1075.982,184.387C1096.848,204.641 1104.425,211.435 1142.500,244.033C1152.400,252.509 1163.604,262.463 1167.397,266.154L1174.294,272.864L1173.738,278.254C1171.299,301.880 1146.640,316.510 1115.989,312.517C1107.164,311.367 1079.993,305.216 1065.000,300.974C1061.425,299.963 1050.175,297.477 1040.000,295.450C1029.825,293.423 1019.475,291.348 1017.000,290.840C993.970,286.107 939.039,278.316 922.500,277.437L910.500,276.798L916.655,282.394C924.169,289.226 929.650,296.147 942.480,315.000C981.785,372.761 1001.986,396.861 1031.500,421.205C1051.458,437.666 1053.054,439.103 1052.457,440.069C1051.185,442.128 1036.709,440.974 1028.484,438.159ZM1142.901,283.516C1147.419,276.061 1146.807,274.115 1138.221,268.624C1127.099,261.511 1125.716,261.765 1130.971,269.955C1134.507,275.464 1137.000,282.152 1137.000,286.126C1137.000,290.570 1139.221,289.588 1142.901,283.516ZM1033.504,233.849L1039.966,230.699L1047.233,232.771C1058.486,235.981 1062.239,236.443 1061.835,234.566C1061.063,230.979 1028.347,198.464 1022.229,195.203C1015.345,191.533 1002.496,190.707 993.928,193.383C991.493,194.144 985.097,196.011 979.717,197.533C965.086,201.670 965.233,202.702 980.731,204.648C994.665,206.399 996.000,206.992 996.000,211.441C996.000,220.453 1003.661,231.773 1012.305,235.532C1018.060,238.035 1026.254,237.384 1033.504,233.849Z"/></svg>