<?xml version="1.0" encoding="UTF-8"?>
<!-- Generator: visioncortex VTracer 0.6.12 -->
<svg version="1.1" xmlns="http://www.w3.org/2000/svg" viewBox="0 0 1300 1061" preserveAspectRatio="xMidYMid meet">
<path d="M0 0 C11.476269535210008 6.735561056452493 15.47429985439598 19.52539081478253 18.798095703125 31.62158203125 C20.42890555540805 37.94783232952329 21.197052639874556 44.40226107653982 22 50.875 C22.17350580518564 52.20846034547164 22.34798144273563 53.54179486599109 22.5234375 54.875 C22.943412452323855 58.082002819241595 23.35048443482168 61.29038701093872 23.75 64.5 C24.28367187500001 64.569931640625 24.817343749999992 64.63986328125 25.3671875 64.7119140625 C27.830353974659147 65.04324830714489 30.28992390262306 65.39647795341398 32.75 65.75 C33.58917968750001 65.8595703125 34.428359375000014 65.969140625 35.29296875 66.08203125 C41.934217121905704 67.06019961485433 48.422074678560705 68.79393563921725 53.1875 73.8125 C55.2195623626792 76.78736607148981 56.17951429143787 79.89868786409778 55.75 83.5 C54.64419974214093 86.00827863368035 53.114353317305955 87.16852152731425 50.75 88.5 C42.0770672589708 91.77795883125513 32.926752691676484 92.13644012560299 23.75 92.5 C23.73035690307617 92.7312860107422 23.73035690307617 92.7312860107422 23.630950927734375 93.9017333984375 C23.040828511539104 99.63515945612981 21.6102634041209 104.91007532825748 19.9140625 110.40625 C19.634043884277332 111.33038696289063 19.354025268554693 112.25452392578126 19.065521240234375 113.2066650390625 C18.47605504400002 115.15090084826441 17.882354645576243 117.09377011173167 17.28515625 119.03564453125 C16.52700318905778 121.5011920308177 15.776845122830053 123.96907718727034 15.029550552368164 126.43793487548828 C14.306690188730443 128.8241656815768 13.579109794984902 131.20894378542616 12.8515625 133.59375 C12.585824279785157 134.46793579101563 12.320086059570315 135.34212158203124 12.046295166015625 136.2427978515625 C10.458066618138389 141.40340400336467 8.71363294775341 146.4699632727561 6.75 151.5 C7.249270019531252 151.4779248046875 7.7485400390625045 151.455849609375 8.262939453125 151.43310546875 C10.299980111827779 151.3485437809248 12.336827164139947 151.29997271401407 14.375 151.25 C15.087851562499992 151.216484375 15.800703125000013 151.18296875 16.53515625 151.1484375 C21.64393750069698 151.0546983944826 24.992037712419233 151.9259717315582 28.75 155.5 C29.95703125000003 157.28125000000003 29.95703125000003 157.28125000000003 30.5625 159 C30.77519531249999 159.5671875 30.987890625000006 160.134375 31.20703125 160.71875 C31.75000000000003 162.50000000000009 31.75000000000003 162.50000000000009 32.056396484375 164.486328125 C32.75 166.5 32.75 166.5 34.3447265625 167.625 C35.019873046875006 167.91375 35.69501953125001 168.2025 36.390625 168.5 C37.1318359375 168.83 37.873046875 169.16 38.63671875 169.5 C39.416601562500006 169.83 40.19648437500001 170.16 41 170.5 C46.88720231302787 173.04152410140833 51.80892985062272 175.30795853120918 56.21484375 180.08984375 C57.915814722736314 181.65231326948552 59.66684891103341 182.47148054814292 61.77294921875 183.38720703125 C74.03974946196996 188.76779210463192 80.53557895433977 197.48569205020178 85.75 209.5 C85.88921875 209.8570703125 85.88921875 209.8570703125 86.59375 211.6640625 C88.14492439323661 214.12707589466623 90.1598583997266 215.3067110799594 92.75 216.5 C94.7899649873539 216.93890653142935 96.63275066981987 217.23983917361613 98.69140625 217.43212890625 C99.27346360206604 217.496337184906 99.85552095413209 217.56054546356202 100.45521640777588 217.62669944763184 C102.4065729083137 217.83863074395964 104.35927099022788 218.03270602543003 106.3125 218.2265625 C107.73039469799653 218.37598437229136 109.14819327955388 218.5263206558857 110.56590270996094 218.677490234375 C114.46714337173873 219.089547703035 118.3699382280592 219.48461640668154 122.2733268737793 219.87574005126953 C124.76567391998444 220.1265774711852 127.25753692646936 220.38177847927687 129.74929809570313 220.63836669921875 C193.94283325569688 227.24292620594179 258.27342219234913 232.892509868065 495.9784622192383 248.42581939697266 C497.7901681380515 248.50168198315356 499.601839852294 248.57833180198298 501.41351318359375 248.65496826171875 C572.9336758375664 251.66314997197372 644.1389850927349 250.64396092420608 882.4375 233.375 C883.1793479156494 233.2923439025879 883.9211958312989 233.20968780517578 884.6855239868164 233.12452697753906 C893.0386317416021 232.19222583114086 901.3862879254036 231.22514809754102 909.7290496826172 230.20436096191406 C913.8385835163735 229.70835074350822 917.9499407814583 229.27655706099267 922.0709295272827 228.88744163513184 C924.8194837009707 228.62234403177743 927.5641751052549 228.32599977533073 930.3089389801025 228.02441787719727 C931.5909485281406 227.8909556339811 932.8744643730397 227.77108165982406 934.1591548919678 227.66653060913086 C941.9113534544142 227.02904652782536 946.7280239222705 225.7712122137078 951.9460344314575 219.74797248840332 C952.1086670064926 219.55365355491637 952.1086670064926 219.55365355491637 952.9316864013672 218.57028198242188 C954.6045757760478 216.66557603203435 955.8065267566362 215.692138971603 958.0625 214.625 C961.4352965879898 212.6086542137017 961.9052563257953 209.52005021520867 963.0078125 205.921630859375 C965.0253798603071 199.88594199528177 969.2417154640552 195.82866374226225 973.75 191.5 C974.3635937500001 190.9005859375 974.9771874999999 190.301171875 975.609375 189.68359375 C980.0972270965854 185.5765914872992 985.4880375895573 181.5 991.75 181.5 C991.9871874999999 180.901875 992.224375 180.30375 992.46875 179.6875 C996.1905003297115 173.33329212000476 1007.0447874192632 169.69208872831783 1013.75 167.5 C1014.4100000000001 167.5 1015.0699999999999 167.5 1015.75 167.5 C1015.7757812499999 166.9083203125 1015.8015625 166.316640625 1015.828125 165.70703125 C1016.1508897851074 161.2103309483895 1016.4952297405669 157.91665674441563 1019.51953125 154.47265625 C1023.5749484238829 151.26694553159732 1027.5234053372692 151.1007812323356 1032.5 150.875 C1033.1973828125 150.836328125 1033.894765625 150.79765625 1034.61328125 150.7578125 C1036.3252643262877 150.6640052081486 1038.0372500129988 150.5783153339781 1039.75 150.5 C1039.5960174560546 150.00712997436523 1039.4420349121094 149.51425994873046 1039.2833862304688 149.00645446777344 C1037.809922515 144.28820453633355 1036.339519081018 139.56901217827397 1034.8722801208496 134.84882259368896 C1034.118436204828 132.42401990719134 1033.3632084510741 129.99966992218447 1032.60595703125 127.575927734375 C1031.729188895598 124.76896109113096 1030.8558901097508 121.96094554086363 1029.984375 119.15234375 C1029.700177001953 118.23923431396484 1029.4159790039062 117.32612487792969 1029.1231689453125 116.38534545898438 C1027.2311374202675 110.24356360930624 1025.499801746274 104.0770365837194 1024.0922241210938 97.80467224121094 C1023.6806640625 96.10766601562524 1023.6806640625 96.10766601562524 1022.75 93.5 C1020.5545438751949 92.5171173730407 1018.43937357255 92.30354136429425 1016.0546875 92.10546875 C997.6386682197442 90.38866821974426 997.6386682197442 90.38866821974426 991.75 84.5 C991.1445185475532 80.05980268205684 991.7977715437462 77.45087112970856 994.51171875 73.87890625 C1001.629720042014 65.95255149895607 1013.7627623078522 65.49436375839296 1023.75 64.5 C1023.8199316406251 63.861994628906245 1023.88986328125 63.223989257812505 1023.9619140625 62.566650390625 C1029.3974522691828 13.90460134896098 1029.3974522691828 13.90460134896098 1042.8671875 2.74609375 C1049.3304068075752 -1.7038224186339477 1055.0148094417227 -2.8484318675915614 1062.75 -1.5 C1070.5599695972282 0.9375836786379779 1075.0515285295837 6.537194505662747 1078.75 13.5 C1086.6244406996632 29.082934654466108 1088.3230103079256 47.3616217673425 1089.75 64.5 C1090.7051953125 64.59796875 1091.660390625 64.6959375 1092.64453125 64.796875 C1114.1950063244008 67.20473368661548 1114.1950063244008 67.20473368661548 1119.9453125 73.94140625 C1121.6267716373825 77.19821302580375 1122.1841577602456 80.87749618795131 1121.75 84.5 C1116.8965750096463 90.26212006150573 1109.0213147165025 91.00600326204875 1101.9375 91.6875 C1101.18791015625 91.76935546875 1100.4383203125 91.8512109375 1099.666015625 91.935546875 C1096.66698986228 92.25447812233126 1093.769769659594 92.5 1090.75 92.5 C1090.539560546875 93.39396484375 1090.32912109375 94.2879296875 1090.1123046875 95.208984375 C1087.3312101982356 106.78385112514097 1083.9335315873004 118.15306335407027 1080.4490356445313 129.53179931640625 C1079.6883471007675 132.01900373671876 1078.9322934886081 134.50761655723028 1078.17578125 136.99609375 C1076.7049053685357 141.83207139267677 1075.2291362395358 146.6665426375302 1073.75 151.5 C1074.1729736328125 151.479052734375 1074.595947265625 151.45810546875 1075.03173828125 151.4365234375 C1076.9792427223883 151.3525196969322 1078.9263651050476 151.3010878062347 1080.875 151.25 C1081.207578125 151.2332421875 1081.207578125 151.2332421875 1082.890625 151.1484375 C1087.8243576023697 151.05169764505158 1091.1194721541603 152.06510756893007 1094.75 155.5 C1097.269999690001 159.0863990059493 1098.1420209212154 162.05709622622618 1097.75 166.5 C1098.61625 166.7719921875 1099.4825 167.043984375 1100.375 167.32421875 C1103.6332847651922 168.4131818801508 1106.6819032941341 169.77348708929054 1109.75 171.3125 C1110.271103515625 171.573857421875 1110.79220703125 171.83521484375 1111.3291015625 172.1044921875 C1115.1241111183547 174.0625177557177 1118.9899747558943 176.1589168097667 1121.75 179.5 C1121.75 180.16 1121.75 180.82 1121.75 181.5 C1122.554375 181.54125 1123.35875 181.5825 1124.1875 181.625 C1129.0874027996742 182.426168941179 1132.8304465104834 185.63879894247583 1136.75 188.5 C1137.2256640625 188.8196875 1137.701328125 189.139375 1138.19140625 189.46875 C1145.0611767566409 194.36601214334786 1150.45519889766 202.49973324963096 1152.5625 210.625 C1153.5610979463254 213.7576983961334 1155.1638013427987 214.6283485938728 1157.90625 216.26171875 C1165.0292869741945 221.04562281953315 1171.4143091493127 228.1727543584194 1173.75 236.5 C1174.5609567401225 242.47496158825814 1175.2068797818736 249.22813005257845 1172.13671875 254.6015625 C1170.8275449390624 256.96167500076973 1170.7323020691333 257.3671703683332 1171.11328125 260.2265625 C1171.4178812605892 261.19649523986163 1171.7351176942293 262.1625180457927 1172.0625 263.125 C1173.6392700070812 268.8033838532529 1174.1294137227667 274.23930731479726 1174.1875 280.125 C1174.2091723632811 280.8683056640625 1174.2308447265625 281.611611328125 1174.253173828125 282.37744140625 C1174.2076028804252 297.49756757067 1169.0685526813593 312.4371395054226 1164.348876953125 326.6264343261719 C1149.458334407979 371.55126970621194 1140.6085477903716 417.26775531113475 1137.75 464.5 C1137.6921533203124 465.394609375 1137.634306640625 466.28921875 1137.57470703125 467.2109375 C1133.5711775074892 530.5070956679456 1140.3006058267679 594.4536718709303 1156.4744720458984 698.2212829589844 C1169.6365207208828 773.0308348626239 1169.6365207208828 773.0308348626239 1162.9609375 802.12890625 C1162.3221319501522 804.9364754422678 1161.745164056494 807.6032698399008 1161.75 810.5 C1162.965598731609 812.3302788449508 1164.1476858794917 813.1494482659285 1166.015625 814.2890625 C1169.8744790188816 816.9833074230932 1172.4535403001096 822.0204414847072 1173.75 826.5 C1174.9956014811817 835.7072530538816 1174.2225787164243 843.7098629239757 1168.68701171875 851.30517578125 C1165.0365232850206 855.960071663134 1161.0640588359927 859.7653896511479 1156 862.8125 C1152.7938793029361 864.9594558239266 1152.087855555817 866.9014476486925 1151 870.5625 C1147.8424921940198 881.1339156595184 1138.4852117011096 888.8438414999433 1129.2578125 894.29296875 C1126.75 895.5 1126.75 895.5 1124.0546875 895.92578125 C1123.294140625 896.1152734375 1122.53359375 896.304765625 1121.75 896.5 C1120.7226562500002 898.3749999999997 1120.7226562500002 898.3749999999997 1119.75 900.5 C1117.6835937500005 902.0624999999998 1117.6835937500005 902.0624999999998 1115.1875 903.5 C1114.7478491210939 903.7534619140625 1114.3081982421875 904.006923828125 1113.855224609375 904.26806640625 C1102.8378448582966 910.5 1102.8378448582966 910.5 1097.75 910.5 C1097.74291015625 910.79583984375 1097.74291015625 910.79583984375 1097.70703125 912.29296875 C1097.2687552651503 919.5541357422395 1097.2687552651503 919.5541357422395 1094.4375 922.4375 C1090.0394331658076 926.308353775204 1086.1465698366515 926.7741979834888 1080.5 926.625 C1079.8503125 926.6159765625 1079.200625 926.606953125 1078.53125 926.59765625 C1076.937339941721 926.5742163962018 1075.3436210471193 926.5383491695831 1073.75 926.5 C1073.9039825439454 926.9884288024903 1074.0579650878906 927.4768576049805 1074.2166137695313 927.9800872802734 C1075.6931044237963 932.6673370928709 1077.1635121887791 937.35645089585 1078.6277198791504 942.047553062439 C1079.3800192048177 944.4571115379634 1080.135016291144 946.8657398202179 1080.89404296875 949.273193359375 C1084.6702104930696 961.2561063905287 1088.1099366637784 973.2124909485772 1090.75 985.5 C1091.2640489196776 985.5192956542969 1091.7780978393555 985.5385913085937 1092.3077239990234 985.5584716796875 C1114.429195548741 986.408743751539 1114.429195548741 986.408743751539 1120.375 991.3125 C1121.810021703224 993.5954890733109 1122.3496862659115 995.2110162480333 1122.1171875 997.92578125 C1121.1724177580786 1001.9762302499396 1119.2090995906847 1004.4148713128102 1115.890625 1006.8828125 C1107.8858305194506 1011.492470011213 1098.7704668310805 1012.3160452982416 1089.75 1013.5 C1089.7176525878906 1013.8289123535156 1089.7176525878906 1013.8289123535156 1089.553955078125 1015.493408203125 C1086.1997764205473 1048.6004471589054 1086.1997764205473 1048.6004471589054 1080.75 1059.5 C1064.91 1059.5 1049.07 1059.5 1032.75 1059.5 C1028.0988135355237 1045.5464406065714 1028.0988135355237 1045.5464406065714 1027.125 1039.875 C1027.0072924804688 1039.2240234375 1026.8895849609376 1038.573046875 1026.768310546875 1037.90234375 C1025.3676843792512 1029.821294068495 1024.54343610936 1021.6594291461662 1023.75 1013.5 C1023.2570947265624 1013.4353051757812 1022.764189453125 1013.3706103515625 1022.25634765625 1013.303955078125 C999.9897533865926 1010.2770493226814 999.9897533865926 1010.2770493226814 994.0546875 1003.58984375 C992.7216053023815 1001.4545174753715 992.165543737596 999.976142378756 991.8125 997.5 C991.7003515624999 996.84 991.5882031250001 996.18 991.47265625 995.5 C991.8950678968581 992.453876574769 993.4020690140196 991.3895064301439 995.75 989.5 C1004.0467068502253 985.8738169360903 1013.8393967178365 985.4362773114818 1022.75 984.5 C1022.9096826171874 983.91025390625 1023.069365234375 983.3205078125 1023.23388671875 982.712890625 C1028.282495838516 964.1623521330031 1033.9313515492497 945.8221405225289 1039.75 927.5 C1038.7814306640626 927.4473901367187 1037.812861328125 927.3947802734375 1036.81494140625 927.340576171875 C1035.5354585216069 927.2625875267524 1034.2560000713208 927.1841972833003 1032.9765625 927.10546875 C1032.3392016601563 927.0719128417969 1031.7018408203126 927.0383569335937 1031.045166015625 927.0037841796875 C1025.3701976434356 926.640571454112 1022.3024861713031 925.3675081987741 1018.515625 921.11328125 C1015.7692674778993 917.5298490036976 1015.3259899928053 914.9521050755438 1015.75 910.5 C1015.2511328124999 910.3646484375 1014.7522656250001 910.229296875 1014.23828125 910.08984375 C1009.1542670948204 908.5655522528456 1004.5616426284812 906.5370841535473 999.875 904.0625 C999.3159497070312 903.7743139648437 998.7568994140624 903.4861279296875 998.180908203125 903.189208984375 C994.8047632607745 901.359632181449 993.0333654108772 899.6372017684857 990.75 896.5 C988.7695312500002 895.4453125000001 988.7695312500002 895.4453125000001 986.5625 894.625 C976.0713388884512 890.2282188869076 967.1027622637746 881.6990400521372 962.359375 871.296875 C961.5322092067402 868.8577963788489 961.4320045998188 867.0439632014494 961.75 864.5 C961.0268359375 864.2525 960.303671875 864.005 959.55859375 863.75 C956.4921953266899 862.5152376641088 954.2437359378512 860.7077890135218 951.8125 858.5 C951.3801000976562 858.1098974609375 950.9477001953126 857.719794921875 950.502197265625 857.31787109375 C944.3511351005454 851.5195786063614 939.7206539505096 844.2478464394889 939.457763671875 835.6640625 C939.3574295226413 826.4961807194186 941.4283358316984 820.8725026849232 947.40625 813.82421875 C949.0602061299442 812.194302680084 950.8849431588562 810.8795431909837 952.75 809.5 C902.1143207876319 808.9541376459559 851.4786611101949 808.4556600181235 800.841064453125 808.126953125 C800.2968095999211 808.1234176143818 799.7525547467172 808.1198821037635 799.1918073222041 808.1162394564599 C784.9271988316337 808.0236822872351 770.6625676247352 807.9348879095642 756.3979265391827 807.8475155867636 C747.8260060362285 807.7949947482267 739.2540909893809 807.7416417321687 730.6821784973145 807.6878299713135 C729.4151097956868 807.6798788488883 728.1480410917104 807.671928100752 726.8809723854065 807.6639777235687 C726.250951132141 807.6600245719892 725.6209298788756 807.6560714204097 724.9718170724809 807.6519984763581 C724.3399506228045 807.6480338800303 723.708084173128 807.6440692837024 723.0570702552795 807.6399845480919 C722.4233337346092 807.6360079465876 721.7895972139388 807.6320313450834 721.1366565562785 807.6279342405032 C693.9379539812504 807.457308674903 666.7392292126706 807.2904103291683 639.540495634079 807.1248101554811 C638.8670355170965 807.1207097215904 638.193575400114 807.1166092876997 637.4997074007988 807.1123845982365 C636.1374922630825 807.1040908313059 634.775277121624 807.0957976790062 633.4130619764328 807.0875051398762 C623.1393315339479 807.0249555847353 612.865603456449 806.9620285001853 602.5918769836426 806.8988304138184 C601.2162664322852 806.8903691894004 599.8406558807989 806.8819079859823 598.4650453291833 806.87344680354 C597.7837431472004 806.8692561761593 597.1024409652175 806.8650655487785 596.4004932625685 806.8607479326893 C595.7189623040962 806.8565559817641 595.0374313456239 806.852364030839 594.3352479338646 806.8480450510979 C593.6535072250268 806.8438518099742 592.9717665161891 806.8396585688507 592.2693669979926 806.8353382598143 C525.6760538505157 806.4257910111359 459.0826980149567 806.0214325219712 196.6875 804.8125 C195.97418913424013 804.8101291131974 195.26087826848033 804.8077582263946 194.52595192193985 804.8053154945374 C159.9340038362996 804.6904627546053 125.3420313815104 804.5864013222084 90.75 804.5 C91.62027081217309 807.5713240633414 92.93546281121039 808.6811044638469 95.4375 810.6875 C101.57914841370567 815.9029393172043 107.09201413399265 822.0218851155666 108.0859375 830.296875 C108.23379131113842 841.4746231220637 104.44377161546436 849.2523965756403 96.75 857.5 C89.15472942246495 864.5 89.15472942246495 864.5 85.75 864.5 C85.70875000000001 865.44875 85.66749999999999 866.3975 85.625 867.375 C84.25510896061198 876.7739746313567 76.84652689371566 884.6617630498482 69.55078125 890.15625 C65.68142437264333 892.836551538135 61.94165479460651 895.1042336653933 57.453125 896.56640625 C55.72888255713971 897.5115758459716 54.872267408732455 898.386637752093 53.5546875 899.8203125 C50.39877586251828 903.09326378217 46.68567002178287 904.8635263192353 42.625 906.8125 C42.26728515625001 906.992001953125 42.26728515625001 906.992001953125 40.45703125 907.900390625 C35.158779761904725 910.5 35.158779761904725 910.5 31.75 910.5 C31.73582031250001 911.007890625 31.721640624999992 911.51578125 31.70703125 912.0390625 C31.373729042634068 916.8494240873896 30.398866931938926 919.6599546951604 27.19921875 923.2734375 C23.265897204827695 926.6024481878278 19.448046411113694 926.8836318823847 14.5 927.125 C14.175156249999986 927.1443359375 14.175156249999986 927.1443359375 12.53125 927.2421875 C10.93793895233054 927.3359116792747 9.344009630445186 927.4190209011272 7.75 927.5 C7.918731231689463 928.0518647766113 8.087462463378898 928.6037295532227 8.261306762695313 929.1723175048828 C9.86607770876671 934.4220544842373 11.46924020321822 939.6722788511549 13.070683479309082 944.9230318069458 C13.89367562890385 947.6212330415117 14.717247284942886 950.3192542950758 15.542236328125 953.016845703125 C16.34120935982085 955.6294503490991 17.138538764814797 958.2425517999524 17.9348201751709 960.855978012085 C18.235997198441623 961.8434789169312 18.537725740318166 962.8308118218011 18.84006690979004 963.8179569244385 C20.941211923149638 970.6800004772156 22.897778098527226 977.5673860247538 24.75 984.5 C25.41012084960937 984.5832653808594 26.07024169921874 984.6665307617187 26.7503662109375 984.7523193359375 C29.439327361238043 985.0942253119365 32.12574657180849 985.4536711368329 34.8125 985.8125 C35.75544921874999 985.93044921875 36.6983984375 986.0483984375 37.669921875 986.169921875 C44.00958326266209 987.031408962522 49.2451532038142 988.4189972147647 54.75 991.6875 C56.2333264639193 994.3760292158537 55.89646010809682 996.5332397997804 55.37890625 999.5078125 C53.9033494565129 1004.1819365042138 50.238505031780136 1006.3815721279755 46.125 1008.6875 C38.77744627035858 1012.1117373041914 30.761268086124545 1012.8323536205531 22.75 1012.5 C22.75725097656249 1012.7690112304688 22.75725097656249 1012.7690112304688 22.7939453125 1014.13037109375 C22.881043079789094 1019.9099300802901 22.387922645224904 1025.4186096498095 21.5 1031.125 C21.368676757812494 1031.9873022460938 21.23735351562499 1032.8496044921876 21.10205078125 1033.738037109375 C19.696610581570155 1042.5256941266796 17.56400184209636 1051.0579944737108 14.75 1059.5 C-1.0900000000000034 1059.5 -16.930000000000007 1059.5 -33.25 1059.5 C-37.940008473923484 1046.6024766967103 -37.940008473923484 1046.6024766967103 -38.875 1041.625 C-38.99270751953125 1041.0242163085939 -39.1104150390625 1040.4234326171875 -39.231689453125 1039.804443359375 C-40.88062212769637 1030.795448549089 -41.51602638313507 1021.6199845643127 -42.25 1012.5 C-42.691503906250006 1012.487109375 -42.691503906250006 1012.487109375 -44.92578125 1012.421875 C-55.000625701024106 1011.998799225181 -64.43978831763502 1010.7150475961347 -72.2265625 1003.6484375 C-74.68591477706676 1000.888706318864 -74.71009390343553 998.0107594107134 -74.65234375 994.46875 C-74.17435912116268 992.1298737579223 -73.67032517825555 991.498891184443 -71.75 990.125 C-65.2601181719555 986.8608873399322 -58.41481767577227 986.1730166797548 -51.25 985.875 C-50.86263671875 985.8556640625 -50.86263671875 985.8556640625 -48.90234375 985.7578125 C-47.01843623898091 985.66478003032 -45.13447714978503 985.5803515670232 -43.25 985.5 C-43.137121429443354 984.8872975158691 -43.02424285888672 984.2745950317383 -42.90794372558594 983.6433258056641 C-41.76718294577093 977.6735024391376 -40.309098849914164 971.9001874276172 -38.53515625 966.08984375 C-38.27874862670899 965.2374964904785 -38.022341003417964 964.385149230957 -37.75816345214844 963.5069732666016 C-37.21991806158859 961.7207136260449 -36.67949435708286 959.9351090083074 -36.136962890625 958.150146484375 C-35.31386095486177 955.4419778115099 -34.49715808377782 952.7319455590463 -33.681640625 950.021484375 C-33.154016084105905 948.2733257091259 -32.62603330109977 946.5252751185312 -32.09765625 944.77734375 C-31.856928863525397 943.9802146911621 -31.61620147705078 943.1830856323243 -31.368179321289063 942.3618011474609 C-29.750574457353096 937.043774765529 -28.03257380835369 931.7649679780357 -26.25 926.5 C-27.191015625000006 926.5348046875 -28.132031249999997 926.569609375 -29.1015625 926.60546875 C-30.35935699989541 926.6336283283558 -31.617170998822616 926.6609261478625 -32.875 926.6875 C-33.18373046875 926.700068359375 -33.18373046875 926.700068359375 -34.74609375 926.763671875 C-39.91930580834759 926.8453541706581 -43.869875848431576 925.7146609752562 -47.7109375 922.140625 C-50.2902976444832 918.2164702502735 -50.74556441903556 915.1527992676116 -50.25 910.5 C-50.76046875 910.353046875 -51.2709375 910.20609375 -51.796875 910.0546875 C-56.60945303286603 908.5699559792222 -61.118723945508165 906.7283328379551 -65.625 904.5 C-66.13643554687499 904.2510498046875 -66.64787109375 904.002099609375 -67.1748046875 903.74560546875 C-69.96255113942965 902.335105524384 -72.26337556828295 900.9866591526254 -74.25 898.5 C-74.25 897.84 -74.25 897.18 -74.25 896.5 C-74.7720703125 896.37625 -75.294140625 896.2525 -75.83203125 896.125 C-87.0941883474556 892.9692291846009 -95.42987704584297 885.7578473039773 -101.48779296875 875.89794921875 C-102.66043382996311 873.7472312266596 -103.44759348771751 871.4974581414193 -104.25 869.1875 C-105.91272420395525 864.5623676073385 -107.99095355191065 862.7867619778568 -112.0234375 860.12109375 C-114.69496130338646 858.17603694578 -116.84381744323446 855.9989869567609 -119.0625 853.5625 C-119.43528076171874 853.16740234375 -119.8080615234375 852.7723046875 -120.192138671875 852.365234375 C-126.27010735026403 845.5669444596299 -127.05692510828112 838.251255175284 -126.7109375 829.4453125 C-126.03346237860741 821.5738750398419 -121.77238664530691 816.6145386416213 -115.991455078125 811.613037109375 C-109.83181325182407 806.5 -109.83181325182407 806.5 -107.25 806.5 C-107.36593505859375 806.0123315429687 -107.4818701171875 805.5246630859375 -107.601318359375 805.022216796875 C-111.966909229485 786.4973631846291 -111.966909229485 786.4973631846291 -112.25 777.5 C-112.26023193359376 777.2129418945312 -112.26023193359376 777.2129418945312 -112.31201171875 775.76025390625 C-113.18745542239918 747.6519994543733 -107.7999087542517 719.848055435485 -102.76953125 692.3203125 C-96.01668219803062 655.3095705191171 -90.87437819492553 617.9476874864924 -87.25 580.5 C-87.17823547363281 579.7606622314453 -87.10647094726562 579.0213244628907 -87.03253173828125 578.2595825195313 C-85.01175347512611 557.2860726784496 -83.61735302072903 536.3568577654172 -83.279296875 515.2868041992188 C-83.25087328243461 513.5532611318191 -83.21766505108712 511.8198658551253 -83.18359375 510.08642578125 C-81.98997367234361 445.46868478041233 -90.65967467879805 381.4355223365017 -111.444091796875 320.16455078125 C-120.68372089988964 292.83737474543 -120.68372089988964 292.83737474543 -120.13671875 280.76171875 C-120.10457664753719 279.68298758350187 -120.07402826109276 278.60420796941645 -120.044921875 277.525390625 C-119.99580435010445 275.8590602654839 -119.93790612245591 274.195397859909 -119.852294921875 272.530517578125 C-119.48992071360519 265.15056429127674 -120.22425230303108 260.61425701424935 -124.876708984375 254.553466796875 C-127.05766609993213 251.29230585483927 -127.12263885286981 248.3918758616723 -126.9375 244.5625 C-126.91969482421875 243.8730126953125 -126.9018896484375 243.183525390625 -126.883544921875 242.47314453125 C-126.55364355833541 236.22184286204975 -124.83016198434045 231.6857499494625 -121.25 226.5 C-121.07533203125 226.22671875 -121.07533203125 226.22671875 -120.19140625 224.84375 C-117.94212755161348 221.74584234214896 -115.27070336917363 219.79533105377539 -112.126220703125 217.696044921875 C-106.97646498846152 214.2363537757903 -104.3904163804761 212.05240887364812 -102.89453125 205.7890625 C-100.39697084832014 196.91893889160968 -92.41138521155456 189.38499401349142 -84.5546875 184.890625 C-78.19095695196206 181.5 -78.19095695196206 181.5 -74.25 181.5 C-73.9908984375 180.8902734375 -73.731796875 180.280546875 -73.46484375 179.65234375 C-70.53434290109715 174.4603631463168 -63.68618725693162 172.12616924156754 -58.4375 169.6875 C-57.96965087890625 169.46843994140625 -57.5018017578125 169.2493798828125 -57.019775390625 169.023681640625 C-54.52729712497565 167.90686051418902 -53.04124686875262 167.5 -50.25 167.5 C-50.296406250000004 167.064296875 -50.342812499999994 166.62859375 -50.390625 166.1796875 C-50.64865830942831 161.9221378944329 -50.013123331846614 159.37519302937199 -47.61328125 155.859375 C-44.500931705316646 152.75594336232146 -41.85134302690207 151.32037003957183 -37.48046875 151.20703125 C-36.1324983499633 151.2267576460981 -34.78467686726762 151.2622225858149 -33.4375 151.3125 C-32.74462890625 151.32603515625 -32.0517578125 151.3395703125 -31.337890625 151.353515625 C-29.641102797914854 151.38862158004315 -27.94597340746286 151.4377770810056 -26.25 151.5 C-26.34173995971679 151.2041651916504 -26.34173995971679 151.2041651916504 -26.805999755859375 149.70706176757813 C-28.546861707457154 144.09013813340812 -30.282871068752186 138.47174178145076 -32.01364707946777 132.8517017364502 C-32.903302300580805 129.9634715361519 -33.794726409898686 127.07581396842514 -34.6904296875 124.189453125 C-35.55716370614482 121.39620102605315 -36.418941980119556 118.60146152905992 -37.27751541137695 115.80569076538086 C-37.6034741234559 114.74722445104321 -37.93111993304066 113.68927594229409 -38.26060104370117 112.63190078735352 C-40.33405926198951 105.9729070938399 -42.03067990618919 99.36990269097335 -43.25 92.5 C-43.86580932617187 92.45000854492187 -44.481618652343755 92.40001708984374 -45.1160888671875 92.3485107421875 C-47.64106396729153 92.1405914630241 -50.16409570693146 91.91366255837664 -52.6875 91.6875 C-53.12674804687501 91.652373046875 -53.12674804687501 91.652373046875 -55.349609375 91.474609375 C-61.158169352770855 90.93876435860048 -66.9852649458538 90.16498981291862 -72.25 87.5 C-74.48543364519142 84.77564850749914 -74.63215222265956 82.70378371361646 -74.48046875 79.265625 C-74.10056456137899 76.35517257192039 -73.38889314114758 74.46494701219883 -71.25 72.5 C-63.788136223562404 67.73269814283154 -56.157590482707164 65.88508834042001 -47.47265625 64.953125 C-46.67738525390625 64.867080078125 -45.8821142578125 64.78103515625 -45.062744140625 64.6923828125 C-44.46453857421875 64.628896484375 -43.8663330078125 64.56541015625 -43.25 64.5 C-43.149775390624995 63.831701660156256 -43.049550781250005 63.1634033203125 -42.9462890625 62.474853515625 C-36.1704332142092 17.698123570315687 -36.1704332142092 17.698123570315687 -25.25 4.5 C-24.590000000000003 4.5 -23.930000000000007 4.5 -23.25 4.5 C-23.25 3.84 -23.25 3.1799999999999997 -23.25 2.5 C-16.009964647955385 -2.146899480968467 -8.09379923264109 -3.5135872637821772 0 0 Z M113.75 238.5 C113.056484375 238.6250390625 112.36296875 238.750078125 111.6484375 238.87890625 C109.72085593152119 239.4818689573813 108.94581136880223 239.85516855200328 107.75 241.5 C107.196812699404 243.9206585234134 106.84765861291484 246.27588406034047 106.564453125 248.73828125 C105.8452946733535 254.31680008052902 103.50576841238939 258.2993569692866 99.75 262.5 C98.55606394370616 263.3741778036363 97.34766834983458 264.2289820066719 96.125 265.0625 C92.52865766858287 268.00149694883083 91.81159009688747 270.90013099674974 90.83984375 275.25 C90.67583572387696 275.94485000610354 90.51182769775392 276.639700012207 90.34284973144531 277.35560607910156 C88.11478071159209 286.96789775794696 86.17966901741812 296.64705309850507 84.25785064697266 306.3244285583496 C83.93276311491076 307.9613517828262 83.60663972185293 309.59806651394945 83.28045654296875 311.2347717285156 C79.03116193802066 332.5877454127241 75.10217298664543 353.98575138667013 71.75 375.5 C71.69660461425781 375.8414605712891 71.69660461425781 375.8414605712891 71.4263916015625 377.5694580078125 C66.8130365719091 407.2977351117691 65.02901823881768 437.4520433103269 64.0625 467.5 C64.04353668212892 468.07064178466794 64.0245733642578 468.64128356933594 64.00503540039063 469.2292175292969 C63.29273667510478 491.81177114504055 63.67559115938323 514.4271136861496 64.5 537 C64.51060707092284 537.2951210403443 64.51060707092284 537.2951210403443 64.56428527832031 538.7886123657227 C65.50524251251645 564.8727028094183 67.24881163614413 590.8511705191202 69.60070037841797 616.8441772460938 C69.75014713718338 618.5016318400112 69.89780705560315 620.1592368603604 70.04498291015625 621.81689453125 C72.91090860531654 654.0299185335591 76.90192057038658 686.042838552707 81.4375 718.0625 C81.49778192520142 718.4884734725952 81.49778192520142 718.4884734725952 81.8028450012207 720.644157409668 C82.6141331378497 726.3694538096806 83.4351303003885 732.093300635448 84.26171875 737.81640625 C84.36620456695556 738.5444414329529 84.47069038391112 739.2724766159058 84.57834243774414 740.0225734710693 C86.09370095164431 750.554492549952 87.84421495331839 761.0317381460726 89.75 771.5 C92.28748450652756 772.3933343197307 94.58881978863303 772.7608232036591 97.275634765625 773.009033203125 C98.20621704101563 773.0962966918945 99.13679931640624 773.183560180664 100.0955810546875 773.2734680175781 C101.12750070123056 773.3661519826986 102.15944328343755 773.4585808706319 103.19140625 773.55078125 C104.2828458058392 773.6504458858807 105.37427623531195 773.7502105084291 106.4656982421875 773.8500671386719 C110.08064222584878 774.1784284592959 113.69647976127035 774.4962426884922 117.3125 774.8125 C117.93708477020263 774.8673669815064 118.56166954040526 774.9222339630127 119.20518112182617 774.9787635803223 C151.34683286038603 777.7980241077679 183.52845551288004 779.8490470636191 215.75 781.5 C216.33693885803223 781.5302124023438 216.92387771606445 781.5604248046875 217.52860260009766 781.591552734375 C218.09579765319825 781.6206372070312 218.66299270629884 781.6497216796874 219.24737548828125 781.6796875 C219.49164590835574 781.6922155761719 219.49164590835574 781.6922155761719 220.72780227661133 781.755615234375 C244.2408037828593 782.9273922486426 267.75850681076224 783.5136517691084 291.29931640625 783.705810546875 C292.1737938964367 783.7129590845108 293.04827138662336 783.7201076221467 293.9492481946945 783.727472782135 C297.64099940447363 783.7573092447165 301.3327547630337 783.786583443933 305.0245137810707 783.8154373168945 C344.8082104020521 784.128834197319 384.57964507498315 784.7719350396017 424.3549237251282 785.6412093639374 C428.2768283858604 785.7269046477945 432.19875156926764 785.8117305787686 436.12067794799805 785.8964252471924 C459.46877111581773 786.400984978014 482.81666826434935 786.9143078022181 506.1641164422035 787.4479206502438 C522.739304960718 787.8265462410042 539.3147228144508 788.1929970867002 555.890625 788.5390625 C556.5305352473258 788.5524545013905 557.1704454946519 788.5658465027809 557.8297469615936 788.5796443223953 C597.1596233892888 789.4010171109037 636.4159458676233 789.6484790121932 675.7504931688309 788.7579035758972 C689.1153692082653 788.4573644455985 702.4760591730079 788.4498340720128 715.843773663044 788.4859649538994 C731.7512782212624 788.5279629290045 747.6566334003519 788.3381871724448 763.5625 788.125 C763.9659129905701 788.1196228218079 763.9659129905701 788.1196228218079 766.0074272155762 788.0924110412598 C832.1635359852257 787.2009218582504 897.8955555765178 782.6807652629899 963.75 776.5 C974.1759448402086 711.9827098565414 982.6122302673989 647.2918373549435 989.75 512.5 C989.7543002319335 512.2042004394532 989.7543002319335 512.2042004394532 989.7760620117188 510.707275390625 C989.8865064505694 502.9700443243482 989.8708123021074 495.2370801251344 989.75 487.5 C989.7413995361328 486.90924682617185 989.7327990722656 486.31849365234376 989.7239379882813 485.7098388671875 C988.8507602737604 427.6482560886159 981.0191775838907 371.44636218119473 969.9547386169434 314.5715103149414 C969.6299582736185 312.9005103949185 969.3063000432994 311.2292962288223 968.9828186035156 309.55804443359375 C967.6199405462135 302.52840188918145 966.2127968130583 295.5095874979826 964.75 288.5 C964.5772756958008 287.66069946289065 964.4045513916017 286.82139892578124 964.2265930175781 285.9566650390625 C963.7550916154294 283.7077057326638 963.2569153509919 281.4668721512616 962.74609375 279.2265625 C962.6802458190919 278.90846115112305 962.6802458190919 278.90846115112305 962.3470153808594 277.2986755371094 C961.2809098806526 272.8548404665177 959.7125821933505 271.08150387640677 955.9375 268.5 C955.0587436718895 267.99290511148115 954.1758756312561 267.49286953688363 953.2890625 267 C947.1901877641749 263.39697246375863 942.6600365758486 257.3150105026283 940.75 250.5 C940.2886153600145 248.17023597631112 939.9811119655246 245.86184157334463 939.75 243.5 C921.9049066116054 236.0892469317298 897.6585730174046 243.31767520900445 879.6089630126953 246.92581176757813 C876.0497399715147 247.63450615689518 872.4884123276188 248.33237426846193 868.9271545410156 249.03076171875 C866.3743750565726 249.53779654048765 863.826351462847 250.0646251151134 861.278076171875 250.59375 C833.7607263492001 256.151506669263 805.382799802461 257.136775100554 777.4267349243164 258.90480041503906 C774.8930381137291 259.06531677753395 772.3594430357116 259.22736437264416 769.8258666992188 259.3897705078125 C754.0738999099302 260.39811508781327 738.3208832507046 261.3960086813823 722.55859375 262.23046875 C721.7305372619629 262.27448318481447 720.9024807739257 262.3184976196289 720.0493316650391 262.3638458251953 C704.8532519364699 263.1365118803587 689.643746476167 263.64187248378266 674.43359375 264.03515625 C673.6047070503234 264.0565950965881 672.775820350647 264.07803394317625 671.9218158721924 264.1001224517822 C653.1768936828959 264.5746611110181 634.4377656706595 264.7007274414404 615.6875 264.6875 C615.2561203956604 264.68736656188963 615.2561203956604 264.68736656188963 613.0730781555176 264.6866912841797 C541.0023664719731 264.65906996854767 468.9712592665278 262.1530049459599 286.98441314697266 254.611083984375 C284.80430494447694 254.50269977359017 282.62417010651006 254.39486510384236 280.44403076171875 254.287109375 C264.203989431596 253.48252703875914 247.972807979697 252.60364467839656 231.75 251.5 C231.0739068603516 251.4556884765625 230.39781372070308 251.411376953125 229.70123291015625 251.36572265625 C229.0839129638672 251.3249560546875 228.46659301757813 251.284189453125 227.83056640625 251.2421875 C227.31531402587893 251.2085107421875 226.8000616455078 251.174833984375 226.26919555664063 251.14013671875 C221.45488137102615 250.77415160592255 216.68835564345704 250.27257832483465 211.9111328125 249.580078125 C211.32740433692936 249.49568229675293 210.7436758613586 249.41128646850586 210.142258644104 249.32433319091797 C204.61809403525052 248.50844247664938 199.13256032921163 247.52124819409863 193.64851188659668 246.47213554382324 C191.93021468748555 246.14365618792058 190.2111191755746 245.81963274741244 188.49183654785156 245.49635314941406 C182.5895102950273 244.38389523602862 176.69290354076583 243.24507589837614 170.80078125 242.079833984375 C151.68425708766063 238.3138354020901 133.11217498987548 234.65516891748908 113.75 238.5 Z M70.5966796875 277.32275390625 C69.97506454467774 277.50379669189454 69.35344940185547 277.6848394775391 68.71299743652344 277.8713684082031 C68.03942703247071 278.0710824584961 67.36585662841796 278.2707965087891 66.671875 278.4765625 C65.20117687711465 278.90255379524996 63.73021771705419 279.32764465435383 62.259033203125 279.751953125 C61.48339019775392 279.97633056640626 60.70774719238281 280.2007080078125 59.908599853515625 280.431884765625 C37.039799147130026 287.01276790333077 13.559945352603393 292.77024081815523 -10.25 294.5 C-11.077416992187494 294.5655810546875 -11.904833984375003 294.631162109375 -12.75732421875 294.69873046875 C-40.09360544713894 296.7544976954837 -67.92765882137607 294.8198268330724 -93.25 283.5 C-93.8437744140625 283.234775390625 -94.437548828125 282.96955078125 -95.04931640625 282.6962890625 C-98.80332692529727 281.0063493804933 -102.53321577537184 279.2701869220406 -106.25 277.5 C-104.71895564796162 283.3483534256572 -103.08491476340772 289.14318417177856 -101.234375 294.8984375 C-81.48384253686905 356.40534010040153 -73.98738465279564 420.2941304748829 -74.0625 484.75 C-74.0627668762207 485.27028148651124 -74.06303375244141 485.7905629730225 -74.06330871582031 486.32661056518555 C-74.10436531693018 550.7139316482862 -81.45827379884682 614.3728139878791 -89.13622665405273 678.1946544647217 C-89.409537543169 680.4675110766182 -89.68249750483872 682.7404095734779 -89.95535278320313 685.0133209228516 C-90.1359110305383 686.5169389685966 -90.31648348230448 688.0205553087076 -90.4970703125 689.524169921875 C-90.58590169906617 690.2639146137237 -90.67473308563233 691.0036593055725 -90.76625633239746 691.7658205032349 C-91.28459165482107 696.077693668084 -91.80754655133481 700.3889751664074 -92.33413124084473 704.6998481750488 C-97.6272966601748 748.0716287108567 -97.6272966601748 748.0716287108567 -97.5107421875 769.811279296875 C-97.49981715337576 772.2279465044032 -97.51085205149312 774.6438987338222 -97.5234375 777.060546875 C-97.54716113301433 799.5749891728503 -97.54716113301433 799.5749891728503 -92.375 809.4375 C-92.08109375000001 810.0110522460938 -91.7871875 810.5846044921875 -91.484375 811.175537109375 C-85.50261172283744 822.1116958208474 -75.23208950173712 833.0870368300664 -63.125 836.9375 C-62.5202685546875 837.135048828125 -61.91553710937501 837.33259765625 -61.29248046875 837.5361328125 C-54.10513063693547 839.7426406849479 -46.730288659156 841.2250386976698 -39.375 842.75 C-38.745756225585936 842.8808297729493 -38.11651245117187 843.0116595458984 -37.46820068359375 843.1464538574219 C-7.5241797599831415 849.319197517657 26.234987009647625 849.5910111560851 52.87109375 832.53515625 C62.88670480113208 825.6849049264672 70.333025274958 817.333949450084 75.75 806.5 C76.27974586183541 798.3849708918922 75.45226343812979 790.379145377232 74.45106887817383 782.3366928100586 C74.20136822607711 780.329321544492 73.96068521572707 778.3210282386617 73.72201538085938 776.3123168945313 C73.375301625254 773.3982656632445 73.02560535787697 770.4845964672644 72.6737060546875 767.5711669921875 C66.80389678853933 718.8300440005905 62.40132118638812 670.0030471252853 59.4375 621 C59.416902694702145 620.660641708374 59.416902694702145 620.660641708374 59.31266784667969 618.9432830810547 C57.51482069803109 589.2245529621155 56.56662477982704 559.5184449259363 56.125 529.75 C56.113951072692885 529.0167525482177 56.10290214538574 528.2835050964355 56.09151840209961 527.5280380249023 C54.966098800148785 452.1278664660854 57.77661359314101 376.24445503102135 75.633056640625 285.51806640625 C76.37212397569633 282.4414745133008 76.9586350111694 279.6937205555933 76.75 276.5 C74.27703301078205 276.5 72.87895808830962 276.64763279074856 70.5966796875 277.32275390625 Z M976.75 280.5 C977.3375288808747 285.71322268179244 978.1399942597827 290.8247891951401 979.203125 295.9609375 C979.4936478407219 297.39799783975855 979.7835795589865 298.83517777821777 980.072998046875 300.2724609375 C980.1486247253417 300.6467523193359 980.1486247253417 300.6467523193359 980.5313415527344 302.5408935546875 C988.4709966946821 342.08355057602773 992.9472187305778 381.9232990333189 995.34765625 422.171875 C995.3803686499596 422.71865040302276 995.4130810499191 423.2654258060455 995.446784734726 423.82877016067505 C997.0183852516741 450.3211800478752 997.179666554066 476.77747404304876 997.0791652202606 503.3088067770004 C997.0637292681031 507.6478002456981 997.0610310038928 511.9866675610929 997.065673828125 516.32568359375 C997.0987965006454 548.4433543471855 996.50397811635 580.4248877907953 994.75 612.5 C994.6735628979945 613.9305744979904 994.5972710109415 615.3611567649762 994.5211486816406 616.791748046875 C994.1049402136452 624.5459245222183 993.6364413762365 632.2957672961766 993.1182632446289 640.0437812805176 C992.9949682196277 641.8877541853954 992.8731845082448 643.731823731989 992.7514038085938 645.5758972167969 C989.3951543053727 696.1167133193449 984.3656397172106 746.5517872249609 977.9532928466797 796.7952880859375 C976.9075253871204 805.564569822932 977.2415516806782 812.2278257686912 982.75 819.5 C985.5645548797518 823.0158060713139 988.5855925601311 826.2981439513753 991.75 829.5 C992.2926953125 830.0555859375 992.835390625 830.611171875 993.39453125 831.18359375 C1010.0379935338399 846.7315369974352 1033.510335789332 850.940109636671 1055.4375 850.875 C1056.160986328125 850.874123840332 1056.88447265625 850.873247680664 1057.6298828125 850.8723449707031 C1071.0450974540063 850.8190895169752 1083.66508242654 849.5894944270669 1096.75 846.5 C1097.0188500976562 846.4370675659179 1097.0188500976562 846.4370675659179 1098.37939453125 846.1185913085938 C1102.352655377833 845.1803324972461 1106.3039545318886 844.1713154239927 1110.25 843.125 C1110.5121228027344 843.0576414489747 1110.5121228027344 843.0576414489747 1111.838623046875 842.7167663574219 C1118.8724898170572 840.880773469867 1124.2596234840726 838.3446360666629 1129.75 833.5 C1129.9875903320312 833.2978588867188 1129.9875903320312 833.2978588867188 1131.18994140625 832.27490234375 C1143.5233851125156 821.4438195000671 1149.9580747066502 807.7009921593262 1151.13232421875 791.302734375 C1151.8688662212894 773.787889371423 1150.885110129421 756.1911359562246 1149.08984375 738.7734375 C1149.0039391899109 737.9159434318542 1148.9180346298217 737.0584493637085 1148.8295269012451 736.174970626831 C1146.8543892918253 716.4617688142237 1144.4305197950926 696.8025092314955 1141.995620727539 677.142144203186 C1137.1075718096854 637.6632445570501 1132.4021243351458 598.2037872927258 1129.75 558.5 C1129.6863726806641 557.5680883789062 1129.622745361328 556.6361767578126 1129.5571899414063 555.676025390625 C1124.7860104131096 485.2681343235265 1126.7728107550743 413.66782529911325 1159.338623046875 286.09033203125 C1159.829014093566 284.19454136172743 1159.5349982650143 283.26382326213076 1158.75 281.5 C1158.5725524902343 281.60546142578124 1158.5725524902343 281.60546142578124 1157.674560546875 282.13916015625 C1114.0370463016243 307.6746225324992 1058.5059480252712 301.9054546935847 1011.4655609130859 289.6816864013672 C1005.7574959369417 288.1782509583452 1000.0647041863065 286.61963484462876 994.3769683837891 285.0412139892578 C988.5267640479294 283.42194062570053 982.6477538979962 281.9352107747518 976.75 280.5 Z " fill="#d4181f" transform="translate(126.25,1.5)"/>
</svg>
