<?xml version="1.0" standalone="no"?>
<!DOCTYPE svg PUBLIC "-//W3C//DTD SVG 20010904//EN"
 "http://www.w3.org/TR/2001/REC-SVG-20010904/DTD/svg10.dtd">
<svg version="1.0" xmlns="http://www.w3.org/2000/svg"
 width="2470.000000pt" height="1377.000000pt" viewBox="0 0 2470.000000 1377.000000"
 preserveAspectRatio="xMidYMid meet">
<metadata>
Created by potrace 1.16, written by Peter Selinger 2001-2019
</metadata>
<g transform="translate(0.000000,1377.000000) scale(0.100000,-0.100000)"
fill="#000000" stroke="none">
<path d="M22315 13273 c-71 -48 -157 -108 -190 -133 -52 -39 -68 -45 -125 -51
-47 -4 -79 -14 -115 -36 -27 -16 -95 -56 -150 -88 -269 -157 -395 -259 -415
-333 -13 -49 4 -37 -295 -212 -688 -403 -974 -578 -1940 -1190 -44 -28 -132
-86 -196 -128 -64 -42 -151 -99 -194 -127 -261 -169 -564 -371 -585 -390 -14
-13 -41 -31 -60 -42 -49 -26 -160 -101 -190 -129 -14 -12 -36 -27 -50 -33 -14
-6 -61 -36 -105 -67 -44 -32 -116 -82 -160 -113 -111 -77 -408 -288 -675 -479
-124 -89 -236 -167 -249 -174 -22 -12 -27 -8 -104 77 -300 333 -505 491 -700
542 -181 46 -378 -12 -528 -157 -105 -102 -143 -224 -128 -404 17 -206 108
-452 291 -783 36 -66 74 -135 82 -151 l16 -31 -178 -117 c-97 -65 -271 -178
-387 -252 -377 -240 -477 -318 -496 -385 -7 -23 -19 -49 -28 -58 -23 -23 -383
-246 -871 -539 -383 -230 -669 -397 -702 -413 -21 -9 -38 -21 -38 -26 0 -5
-15 -14 -32 -21 -39 -15 -129 -68 -143 -85 -5 -6 -43 -28 -84 -48 -41 -21 -87
-48 -102 -62 -16 -13 -38 -27 -50 -30 -12 -4 -60 -31 -108 -60 -47 -29 -129
-77 -181 -107 -52 -31 -174 -102 -270 -158 -153 -90 -374 -218 -565 -328 -144
-82 -766 -431 -880 -492 -44 -23 -138 -75 -210 -115 -234 -130 -676 -365
-1715 -912 -58 -31 -184 -96 -280 -146 -96 -49 -281 -145 -410 -212 -129 -67
-311 -160 -405 -207 -93 -47 -246 -125 -340 -173 -360 -185 -577 -293 -618
-308 -23 -8 -148 -66 -277 -128 -129 -63 -278 -134 -330 -158 -89 -42 -191
-89 -355 -166 -78 -36 -69 -32 -395 -178 -576 -257 -1083 -472 -1680 -712
-140 -56 -266 -108 -280 -114 -77 -33 -695 -269 -865 -330 -27 -10 -140 -50
-250 -90 -110 -40 -328 -117 -485 -171 -385 -133 -500 -181 -500 -207 0 -25
32 -62 78 -91 247 -153 425 -236 660 -307 249 -76 492 -108 802 -108 555 1
1102 123 1957 437 181 66 832 326 918 366 22 10 130 56 240 103 201 85 270
115 533 233 130 59 209 95 377 174 33 15 139 65 235 110 389 182 587 276 625
297 83 45 265 133 278 133 24 0 1688 837 2192 1103 638 336 705 372 788 418
38 22 70 39 73 39 3 0 128 68 604 328 208 114 779 430 1150 637 146 81 296
168 334 192 38 25 79 49 92 53 20 8 126 67 429 240 61 35 123 73 138 86 16 13
34 24 42 24 7 0 55 25 106 55 52 31 101 60 109 65 8 5 92 52 185 106 94 53
211 120 260 149 50 28 167 97 260 152 94 55 238 140 320 188 129 75 369 219
466 279 28 17 36 18 104 6 l74 -13 58 33 c32 18 134 85 228 149 93 64 177 119
186 123 10 4 86 58 171 120 233 173 367 268 376 268 5 0 69 -82 143 -182 74
-100 141 -189 149 -198 8 -9 47 -59 87 -111 162 -214 284 -303 490 -357 72
-19 88 -15 218 50 163 82 278 176 319 261 73 150 53 393 -58 707 -38 106 -82
209 -162 379 -30 62 -54 116 -54 121 0 6 137 97 547 364 76 49 340 222 588
384 247 162 486 318 530 347 149 97 669 437 765 500 52 34 154 100 225 147
136 88 332 217 570 373 310 204 453 296 725 470 157 100 349 223 427 273 156
101 287 175 295 166 3 -3 -9 -49 -28 -103 -43 -127 -79 -271 -99 -394 -21
-137 -38 -390 -30 -467 3 -36 10 -114 16 -175 15 -171 52 -345 113 -523 l24
-73 -69 -102 c-142 -209 -381 -507 -699 -872 -344 -394 -500 -578 -500 -592 0
-5 -21 -29 -46 -53 -25 -25 -65 -75 -89 -112 -25 -36 -49 -69 -55 -73 -38 -23
-292 -405 -331 -496 -90 -211 -22 -468 174 -657 51 -48 72 -62 96 -62 19 0 34
7 40 18 5 9 11 96 13 192 6 214 31 322 108 475 140 275 279 456 778 1013 140
156 282 327 439 528 198 254 267 338 278 336 24 -3 56 -280 56 -480 -1 -482
-132 -876 -463 -1389 -43 -67 -91 -136 -107 -154 -16 -17 -35 -43 -42 -57 -19
-39 -96 -147 -115 -163 -9 -7 -41 -52 -72 -99 -202 -307 -288 -564 -253 -755
24 -131 126 -280 246 -359 58 -39 113 -47 135 -21 11 13 10 29 -1 88 -8 40
-14 122 -13 182 1 181 39 324 151 555 74 156 81 167 147 270 27 41 54 80 61
85 12 10 71 96 201 295 35 52 67 100 72 105 17 20 90 152 140 255 314 645 368
1293 160 1950 l-34 105 109 195 c304 545 479 990 533 1355 22 147 14 377 -16
483 -23 84 -58 156 -105 222 l-32 46 41 30 c316 236 328 247 345 309 39 144
-18 388 -154 663 -132 266 -260 438 -476 638 -151 139 -288 212 -414 220 l-80
5 -130 -88z m353 -162 c189 -95 433 -340 575 -577 80 -133 159 -344 173 -464
8 -70 0 -62 -66 65 -52 101 -72 131 -130 195 -35 39 -35 38 14 -80 20 -48 42
-126 50 -180 9 -52 18 -107 21 -122 7 -41 -15 -34 -49 15 -48 69 -273 351
-302 377 l-27 25 7 -30 c4 -16 52 -121 107 -231 54 -111 99 -209 99 -218 0
-25 -16 -19 -61 21 -59 53 -157 188 -330 453 -192 294 -239 359 -367 506 -69
80 -99 120 -89 122 24 5 135 -56 215 -117 116 -89 167 -122 170 -112 11 32
-98 157 -217 251 -45 35 -81 68 -81 73 0 20 173 -36 240 -78 24 -15 84 -57
133 -92 49 -36 91 -62 95 -59 15 16 -78 121 -223 250 -49 43 -34 46 43 7z
m-593 -162 c97 -46 242 -194 446 -456 219 -282 393 -635 449 -914 31 -157 7
-154 -45 4 -125 379 -558 1035 -825 1250 -104 83 -150 129 -143 140 7 12 67 0
118 -24z m-137 -93 c104 -65 177 -123 263 -212 206 -214 448 -576 563 -840 84
-193 129 -370 107 -413 -14 -25 -50 -46 -61 -34 -9 9 -67 137 -155 340 -178
411 -536 900 -807 1102 -32 24 -58 46 -58 49 0 13 45 52 60 52 9 0 48 -20 88
-44z m-203 -81 c128 -68 361 -299 531 -525 146 -194 283 -443 378 -688 72
-183 84 -272 42 -311 -42 -39 -55 -26 -96 94 -68 202 -148 364 -285 575 -139
215 -496 663 -604 759 -39 35 -71 68 -71 74 0 15 31 47 45 47 7 0 34 -11 60
-25z m-138 -109 c110 -84 319 -319 510 -574 228 -305 370 -586 409 -814 17
-98 13 -124 -18 -134 -26 -8 -24 -12 -109 196 -39 96 -90 213 -114 260 -136
272 -418 677 -624 895 -167 176 -163 172 -151 194 16 30 31 26 97 -23z m-131
-92 c19 -9 80 -64 136 -123 355 -373 652 -866 738 -1223 11 -46 20 -98 20
-117 0 -32 -1 -33 -32 -27 -17 3 -32 7 -34 9 -1 1 -20 58 -42 127 -54 166 -96
265 -172 402 -107 191 -340 534 -479 703 -208 253 -230 294 -135 249z m-89
-136 c39 -23 112 -103 163 -178 33 -48 39 -67 45 -133 4 -42 4 -77 0 -77 -3 0
-44 28 -91 63 -91 67 -197 127 -226 127 -52 0 15 -75 162 -180 127 -91 190
-170 190 -238 0 -87 -63 -82 -186 13 -140 110 -226 230 -288 403 -14 40 -26
79 -26 87 0 8 39 43 87 79 94 71 105 74 170 34z m-371 -343 c8 -208 -4 -605
-18 -605 -12 0 -100 66 -283 209 -159 125 -255 211 -255 228 0 16 58 53 85 53
10 0 34 -14 52 -32 39 -38 50 -32 35 21 -23 75 -13 109 28 96 27 -9 37 -31 50
-111 11 -68 31 -114 50 -114 16 0 11 87 -9 185 -11 50 -18 91 -17 93 17 17
263 158 268 153 4 -3 10 -83 14 -176z m-608 -242 c43 -27 224 -166 386 -298
82 -66 158 -128 170 -137 16 -13 21 -27 20 -64 -2 -87 -69 -107 -181 -53 -127
61 -375 377 -427 547 -9 26 -4 27 32 5z m-120 -114 c2 -46 -4 -190 -13 -319
-23 -322 -28 -373 -40 -377 -5 -1 -53 31 -105 73 -83 66 -273 211 -407 308
-23 17 -43 36 -43 41 0 6 29 25 64 42 l64 32 33 -38 c40 -45 77 -67 90 -54 12
12 -3 55 -31 91 -11 13 -20 30 -20 37 0 20 374 258 395 252 6 -2 11 -41 13
-88z m1611 -175 c87 -78 166 -186 226 -307 59 -119 72 -163 56 -187 -13 -20
-50 16 -143 138 -38 50 -72 92 -74 92 -5 0 9 -34 69 -165 25 -55 48 -110 51
-122 13 -43 -16 -33 -80 26 -63 60 -124 100 -124 83 0 -5 23 -41 50 -80 50
-71 61 -107 38 -130 -19 -19 -24 -16 -93 48 -35 33 -69 60 -75 60 -25 0 -20
-32 13 -72 53 -66 60 -84 41 -103 -31 -31 -55 -15 -86 59 -55 129 -72 230 -72
431 0 160 14 320 30 346 7 11 102 -53 173 -117z m1230 -173 c88 -88 136 -423
96 -657 -63 -360 -231 -804 -452 -1199 -61 -108 -246 -405 -303 -485 -145
-205 -186 -261 -309 -420 -171 -221 -423 -525 -526 -635 -11 -12 -49 -55 -85
-95 -36 -41 -83 -95 -106 -120 -78 -86 -210 -245 -228 -275 -11 -16 -27 -35
-36 -42 -22 -16 -150 -187 -150 -200 0 -6 -12 -23 -27 -39 -37 -40 -116 -172
-169 -282 -48 -101 -97 -262 -108 -357 -9 -73 -24 -135 -34 -135 -12 0 -53 67
-80 132 -22 52 -26 79 -26 154 0 91 0 92 57 209 107 220 253 418 563 766 235
264 616 713 800 944 263 330 478 642 657 956 175 307 361 777 422 1070 25 118
30 285 11 368 -17 76 -68 184 -111 238 l-26 31 56 46 c62 51 85 56 114 27z
m-3579 -145 c0 -114 -33 -566 -46 -628 -3 -16 -9 -28 -13 -28 -11 0 -84 57
-281 220 -96 80 -187 155 -202 166 -16 12 -28 24 -28 28 0 3 34 31 76 63 81
61 77 61 111 -2 26 -50 74 -105 90 -105 23 0 11 57 -27 133 -30 59 -30 63 -13
75 70 52 319 209 326 205 4 -2 7 -59 7 -127z m184 77 c126 -88 375 -282 435
-340 54 -52 54 -52 47 -100 -16 -124 -127 -106 -289 47 -93 88 -175 196 -241
320 -41 76 -57 130 -40 130 4 0 43 -26 88 -57z m1521 -107 c237 -159 390 -300
424 -389 6 -16 11 -44 11 -64 0 -33 -1 -35 -27 -29 -27 7 -79 39 -190 120 -29
21 -53 34 -53 28 0 -5 34 -53 75 -107 66 -85 74 -100 62 -113 -21 -20 -68 4
-162 85 -107 91 -110 76 -14 -59 50 -69 62 -114 34 -124 -18 -7 -45 9 -143 89
-40 32 -75 57 -78 55 -6 -7 76 -116 110 -147 36 -34 33 -48 -18 -73 l-44 -21
-73 66 c-40 37 -77 67 -82 67 -7 0 11 -36 65 -127 28 -47 21 -78 -17 -78 -35
0 -67 41 -91 119 -35 111 -29 420 12 671 19 115 22 125 42 125 9 0 79 -42 157
-94z m1698 -79 c87 -175 37 -509 -145 -966 -46 -118 -166 -368 -210 -439 -37
-60 -55 -19 -73 173 -35 365 -6 584 129 967 97 275 116 316 166 349 l44 29 32
-31 c17 -17 43 -54 57 -82z m-367 -105 c-3 -21 -30 -106 -59 -188 -148 -409
-169 -787 -66 -1198 l29 -119 -41 -68 c-56 -94 -65 -100 -83 -57 -27 63 -75
271 -91 393 -21 149 -20 386 1 555 19 161 53 309 111 493 l47 148 70 38 c39
21 75 39 80 40 5 0 6 -16 2 -37z m-3607 -134 c95 -69 359 -282 436 -351 56
-51 60 -57 59 -97 -1 -29 -7 -48 -20 -57 -28 -21 -103 -16 -160 11 -127 59
-330 308 -404 496 -19 48 -19 50 -2 50 10 0 51 -24 91 -52z m-194 -50 c8 -51
-23 -650 -34 -661 -4 -4 -25 8 -47 26 -57 50 -380 284 -414 302 -17 9 -30 21
-30 28 0 12 122 87 141 87 5 0 9 -10 9 -22 0 -28 31 -93 44 -93 16 0 24 49 16
101 -9 55 -4 64 50 100 19 12 82 56 140 98 58 41 108 75 112 75 4 1 10 -18 13
-41z m1632 -65 c60 -43 142 -100 182 -128 142 -98 318 -235 360 -280 39 -42
41 -47 27 -67 -8 -11 -27 -29 -43 -39 l-27 -18 -112 114 c-61 63 -116 115
-123 115 -16 0 -5 -19 69 -122 68 -94 90 -149 70 -173 -7 -8 -18 -15 -25 -15
-7 0 -62 50 -121 111 -60 60 -110 106 -112 100 -5 -15 31 -79 92 -164 31 -43
56 -85 56 -92 0 -20 -38 -38 -66 -31 -13 4 -65 45 -115 92 -50 47 -93 84 -95
81 -3 -3 26 -54 65 -114 39 -59 71 -113 71 -120 0 -18 -32 -32 -55 -23 -11 4
-61 45 -110 90 -50 45 -99 86 -109 92 -17 9 -17 6 4 -28 39 -64 86 -127 124
-163 20 -19 36 -40 36 -45 0 -10 -35 -37 -101 -80 l-27 -17 -22 73 c-70 230
-84 492 -42 748 25 153 31 180 36 180 2 0 53 -35 113 -77z m-2116 -356 c31
-23 92 -67 135 -99 44 -31 127 -97 187 -148 97 -83 107 -94 107 -125 0 -46
-37 -88 -77 -88 -79 0 -230 117 -335 260 -25 34 -53 69 -62 78 -8 9 -20 33
-26 54 -5 21 -17 44 -24 51 -17 13 -30 65 -21 80 7 12 38 -4 116 -63z m-231
-225 c-14 -217 -37 -482 -42 -487 -1 -2 -37 24 -79 58 -41 34 -110 87 -153
117 -139 98 -201 154 -201 181 0 20 5 24 36 27 31 3 42 -2 72 -35 20 -20 39
-34 44 -30 4 5 0 36 -9 70 l-17 62 41 38 c36 33 232 168 283 195 15 8 22 7 28
-4 5 -9 4 -95 -3 -192z m1648 71 c210 -144 311 -222 391 -302 109 -108 137
-180 74 -189 -26 -4 -122 61 -216 149 -43 39 -80 70 -82 67 -8 -8 75 -128 139
-202 36 -41 66 -79 66 -83 0 -11 -66 -63 -81 -63 -6 0 -51 38 -99 84 -95 90
-150 133 -150 118 0 -19 98 -156 139 -197 23 -21 41 -44 41 -51 0 -7 -14 -17
-31 -23 -38 -13 -58 -4 -149 69 -83 67 -150 113 -156 108 -2 -3 39 -51 91
-107 85 -92 107 -121 90 -121 -11 0 -91 44 -133 72 -94 64 -42 0 61 -76 l40
-30 -22 -17 c-23 -19 -50 -15 -110 15 -38 20 -44 34 -64 156 -57 340 -44 710
24 710 6 0 68 -39 137 -87z m-3841 -245 c303 -152 714 -596 1105 -1191 227
-346 482 -807 612 -1107 20 -47 43 -98 51 -115 55 -113 151 -406 176 -532 16
-87 8 -227 -18 -283 -20 -46 -47 -80 -63 -80 -5 0 -8 66 -8 148 0 137 -2 156
-34 282 -110 423 -439 1099 -801 1645 -44 66 -99 146 -123 178 -24 31 -44 60
-44 62 0 11 -225 292 -316 395 -112 128 -311 323 -417 409 -43 35 -127 96
-186 135 -60 39 -117 77 -127 84 -16 11 -8 12 53 9 56 -3 86 -11 140 -39z
m1701 -58 c37 -27 72 -53 77 -57 6 -5 62 -48 126 -96 135 -101 199 -166 199
-201 0 -30 -45 -86 -70 -86 -56 0 -256 142 -355 251 -45 50 -115 157 -115 176
0 15 47 63 62 63 5 0 39 -22 76 -50z m1484 -188 c333 -250 394 -304 443 -389
18 -31 18 -33 0 -53 -33 -36 -71 -24 -190 65 -95 71 -154 109 -160 103 -8 -8
108 -122 181 -180 35 -27 64 -54 64 -59 0 -5 -11 -16 -24 -24 -29 -19 -24 -22
-181 75 -60 38 -121 71 -134 75 l-24 7 19 -25 c28 -35 109 -103 171 -145 29
-19 53 -39 53 -43 0 -5 -18 -21 -40 -35 l-40 -26 -87 61 c-104 72 -192 125
-199 119 -2 -3 30 -35 72 -73 80 -72 130 -137 119 -154 -11 -19 -68 -11 -150
22 l-79 32 -22 70 c-37 121 -56 284 -62 534 l-5 234 42 -24 c23 -12 128 -88
233 -167z m-3380 126 c139 -70 281 -184 474 -379 170 -174 313 -339 434 -502
35 -48 68 -87 72 -87 4 0 8 -4 8 -10 0 -5 27 -47 59 -92 131 -183 380 -607
509 -863 246 -493 356 -821 369 -1111 8 -179 -16 -235 -141 -317 l-39 -26 -49
20 c-221 87 -350 206 -563 519 -44 63 -94 135 -112 159 -37 50 -32 76 10 48
31 -20 46 -40 160 -207 106 -155 270 -328 355 -373 153 -82 286 -12 299 157
23 278 -362 1141 -806 1811 -178 268 -327 460 -552 711 -287 319 -519 494
-657 494 -119 0 -182 -78 -182 -227 0 -138 37 -258 220 -711 23 -57 39 -106
37 -108 -11 -11 -214 440 -276 611 -34 95 -36 107 -36 225 0 120 1 127 29 178
52 93 121 133 223 129 50 -2 79 -11 155 -49z m1634 -184 c-6 -150 -24 -365
-31 -373 -8 -7 -306 209 -333 242 -8 9 -12 26 -10 39 2 18 10 24 34 26 24 2
41 -6 75 -34 40 -34 44 -35 47 -16 2 11 -6 40 -17 63 -12 23 -20 44 -18 45 28
28 243 172 250 167 6 -4 8 -59 3 -159z m-1679 32 c129 -64 294 -202 451 -376
107 -118 297 -353 386 -477 33 -46 63 -83 68 -83 4 0 8 -5 8 -10 0 -6 37 -66
83 -133 103 -151 252 -390 313 -499 101 -185 344 -683 392 -804 83 -211 132
-409 132 -536 0 -60 -29 -95 -87 -108 -73 -17 -189 15 -240 66 -38 38 -17 40
58 4 82 -38 122 -39 159 -2 91 91 21 392 -191 827 -169 347 -451 769 -703
1050 -126 141 -216 235 -261 272 -48 39 -230 153 -245 153 -14 0 -216 -154
-267 -203 -29 -28 -54 -49 -56 -46 -19 22 -192 472 -218 564 -28 101 -27 107
16 99 46 -8 45 5 -4 54 -43 42 -57 77 -46 112 6 20 8 19 47 -16 37 -33 93 -64
117 -64 24 0 -5 32 -58 64 -31 20 -64 47 -71 62 -14 25 -13 28 15 51 25 22 36
25 80 20 31 -3 81 -20 122 -41z m1324 -254 c83 -57 113 -79 245 -179 100 -74
122 -120 89 -183 -24 -47 -32 -45 -190 59 -164 107 -325 254 -325 297 0 16 60
64 81 64 8 0 53 -26 100 -58z m1239 8 c149 -88 474 -333 542 -408 60 -66 110
-187 94 -227 -8 -23 -36 -6 -191 112 -72 54 -137 103 -144 108 -28 16 29 -53
125 -154 58 -61 94 -107 92 -117 -2 -9 -15 -26 -29 -36 l-26 -20 -66 46 c-68
48 -212 119 -229 114 -18 -6 160 -139 225 -169 15 -7 27 -15 27 -18 0 -8 -88
-61 -102 -61 -7 0 -48 24 -92 54 -108 71 -193 119 -206 114 -6 -2 32 -43 85
-92 90 -83 132 -136 118 -150 -16 -16 -64 -2 -133 37 -42 24 -84 46 -94 50
-17 7 -17 6 -5 -10 8 -10 38 -40 68 -68 39 -37 53 -56 48 -68 -34 -90 -186
174 -237 413 -20 89 -23 136 -24 305 0 171 2 207 18 249 17 44 20 47 45 41 14
-3 55 -24 91 -45z m-732 -435 c64 -30 148 -80 257 -154 232 -158 359 -272 405
-364 35 -70 40 -127 12 -127 -31 0 -102 52 -212 154 -112 104 -149 132 -131
99 20 -38 88 -123 153 -192 65 -67 87 -108 73 -130 -12 -21 -101 18 -217 95
-21 13 -38 21 -38 18 0 -3 32 -46 71 -95 59 -74 69 -92 59 -104 -28 -34 -102
-6 -275 105 -55 35 -109 69 -121 76 -13 8 -25 30 -32 61 -5 26 -27 122 -47
213 -22 100 -39 206 -42 268 -7 119 -6 119 85 77z m5176 -62 c97 -297 131
-737 81 -1057 -59 -377 -214 -754 -469 -1135 -75 -112 -136 -207 -136 -212 0
-4 -13 -23 -29 -41 -93 -108 -272 -427 -329 -588 -39 -112 -50 -169 -62 -328
-5 -73 -12 -138 -15 -143 -21 -33 -97 84 -121 186 -48 207 62 476 354 866 35
46 68 95 73 109 6 14 16 30 23 35 25 20 181 255 250 378 329 590 423 1157 286
1725 l-30 123 46 65 c25 35 49 64 54 64 5 0 15 -21 24 -47z m-6599 -76 c47
-23 156 -122 220 -199 38 -46 74 -87 79 -93 21 -19 213 -310 279 -422 97 -164
184 -342 218 -445 39 -119 42 -259 7 -328 -25 -49 -77 -90 -114 -90 -38 0 -37
18 2 52 45 40 74 99 74 153 0 100 -75 325 -175 525 -84 165 -155 273 -346 519
-57 73 -211 231 -239 246 -14 7 -45 16 -70 20 -52 8 -93 31 -87 48 2 7 21 17
43 23 40 12 73 9 109 -9z m-75 -133 c200 -105 409 -364 621 -769 87 -167 124
-262 144 -370 23 -121 6 -208 -47 -236 -13 -7 -61 -12 -112 -11 l-91 0 -121
-83 c-67 -46 -189 -135 -271 -197 -273 -207 -302 -228 -325 -241 -13 -7 -63
-39 -113 -71 -135 -89 -187 -118 -195 -109 -4 4 -13 31 -20 58 -42 158 -113
295 -297 569 -208 310 -351 474 -461 530 -58 29 -59 42 -7 52 58 10 135 -35
240 -140 78 -79 247 -290 281 -351 6 -11 40 -66 77 -121 36 -56 107 -173 156
-260 120 -211 104 -191 138 -174 15 8 62 40 103 72 73 54 334 241 482 343 39
28 132 94 205 148 74 53 140 97 148 97 8 0 15 -8 15 -18 0 -23 19 -42 41 -42
48 0 62 91 33 204 -60 230 -348 691 -574 916 -121 121 -170 140 -273 103 -47
-17 -49 -17 -62 0 -19 27 -8 51 47 103 l50 47 60 -7 c40 -4 82 -18 128 -42z
m-131 -259 c59 -54 144 -142 209 -215 33 -38 170 -223 217 -296 139 -209 203
-404 134 -404 -15 0 -26 13 -42 50 -25 56 -32 61 -41 25 -4 -16 -11 -22 -21
-19 -20 8 -19 -5 5 -41 25 -37 26 -90 3 -99 -18 -7 -55 23 -81 67 -36 60 -56
11 -30 -74 15 -51 -1 -89 -37 -89 -19 0 -31 11 -55 53 l-30 52 0 -81 c0 -66
-4 -86 -19 -105 -25 -30 -46 -20 -80 40 -13 23 -25 41 -26 39 -2 -2 1 -25 6
-52 5 -27 7 -51 5 -54 -3 -2 -20 8 -39 22 -19 14 -39 26 -45 26 -23 0 -11 -33
22 -64 40 -36 36 -55 -16 -82 -30 -15 -31 -15 -67 19 -20 19 -42 32 -49 30 -7
-3 -24 5 -38 18 -36 34 -41 15 -8 -31 49 -68 56 -86 43 -112 -13 -30 -43 -50
-64 -42 -9 4 -30 31 -47 60 -20 36 -36 54 -49 54 -24 0 -24 -18 1 -99 19 -59
19 -66 5 -88 -29 -43 -54 -27 -122 77 -184 283 -219 336 -233 350 -8 9 -32 41
-52 71 -59 86 -169 213 -289 335 l-111 111 74 48 c40 27 145 96 233 153 88 58
230 151 316 208 187 123 320 204 336 204 6 0 43 -29 82 -65z m1683 -123 c3 -8
159 -127 236 -181 40 -28 41 -45 3 -61 -35 -14 -91 1 -175 48 -48 26 -51 29
-68 97 -10 39 -18 78 -18 88 0 17 16 24 22 9z m-2801 -744 c30 -34 100 -123
156 -197 56 -75 112 -149 126 -166 51 -63 50 -64 -88 -160 -69 -47 -134 -89
-143 -92 -9 -4 -71 -39 -137 -78 -66 -39 -147 -85 -180 -102 -33 -17 -121 -68
-195 -113 -177 -108 -361 -219 -715 -430 -159 -95 -319 -192 -355 -215 -36
-24 -83 -51 -105 -61 -44 -20 -124 -66 -415 -237 -180 -105 -470 -274 -548
-319 -18 -10 -93 -53 -165 -95 -73 -42 -181 -104 -242 -138 -60 -34 -184 -103
-275 -155 -91 -51 -181 -102 -200 -113 -174 -98 -492 -275 -715 -397 -383
-209 -942 -510 -948 -510 -2 0 -44 -22 -93 -48 -352 -191 -1041 -547 -1709
-883 -242 -122 -456 -229 -475 -239 -19 -10 -64 -32 -100 -49 -36 -18 -76 -38
-90 -46 -14 -8 -70 -35 -125 -59 -55 -24 -165 -75 -245 -114 -151 -73 -212
-102 -745 -347 -461 -211 -586 -264 -668 -280 -84 -17 -402 -49 -632 -65 -135
-8 -806 -30 -957 -30 -54 0 -61 9 -20 27 15 6 54 24 87 38 59 26 130 55 375
153 176 71 522 219 785 337 151 67 166 74 307 139 42 19 105 47 140 62 35 14
68 30 73 34 6 4 42 21 81 38 39 17 146 67 238 112 92 44 169 80 171 80 4 0
354 170 590 286 83 41 192 96 244 124 52 27 100 50 106 50 18 0 1137 564 1505
758 47 24 155 81 240 124 85 44 187 97 225 118 39 21 111 59 160 85 50 26 155
82 235 125 80 42 179 95 220 117 250 133 952 516 1150 628 41 23 131 74 200
112 341 191 554 312 643 365 54 32 100 58 103 58 4 0 43 22 88 49 44 27 167
98 271 159 105 60 231 133 280 162 50 29 133 78 185 108 52 30 124 75 159 99
35 25 105 66 156 93 51 27 146 81 212 121 214 130 315 189 324 189 5 0 26 11
47 24 20 13 141 87 267 164 127 76 363 222 525 322 162 101 342 212 400 248
58 35 112 70 120 78 23 23 34 17 91 -48z m402 -560 c41 -64 153 -282 162 -319
6 -24 -2 -31 -107 -101 -311 -206 -455 -264 -966 -392 -123 -31 -227 -58 -232
-61 -4 -3 -24 -7 -44 -10 -21 -2 -121 -22 -224 -44 -159 -35 -224 -50 -366
-88 -29 -8 -14 20 20 37 17 9 64 36 105 61 41 26 128 77 194 114 66 37 197
114 290 170 94 56 215 128 270 160 168 98 287 171 344 209 29 20 60 36 69 36
17 0 169 93 342 209 58 39 106 71 107 71 0 0 17 -24 36 -52z m-601 -806 c-24
-18 -361 -209 -537 -304 -226 -122 -401 -223 -422 -242 -12 -12 -61 -41 -109
-66 -49 -25 -174 -94 -279 -154 -236 -135 -637 -361 -780 -440 -44 -25 -78
-44 -270 -151 -324 -181 -910 -501 -1190 -650 -49 -26 -112 -60 -140 -75 -70
-39 -150 -81 -560 -297 -670 -353 -1060 -554 -1880 -964 -340 -170 -626 -316
-635 -324 -9 -8 -24 -15 -33 -15 -13 0 -161 -69 -262 -122 -16 -9 -158 -76
-315 -149 -157 -72 -307 -143 -335 -156 -74 -36 -588 -271 -756 -347 -477
-213 -1175 -497 -1634 -665 -102 -38 -603 -199 -720 -232 -572 -163 -1265
-153 -1802 26 -179 60 -383 165 -321 165 13 0 227 73 337 115 l63 24 96 -40
c118 -49 280 -93 427 -115 155 -23 427 -23 570 0 264 42 776 191 1185 344 323
122 705 275 727 294 7 5 31 16 55 23 44 14 77 28 378 157 161 70 484 213 605
268 28 13 68 31 90 40 22 9 108 49 190 87 83 39 249 117 370 173 442 206 704
333 784 379 36 21 82 44 101 51 37 14 895 441 1045 520 50 26 205 107 345 180
405 210 474 246 675 355 534 288 839 455 1315 718 334 185 974 545 1345 757
99 56 216 123 260 147 44 25 85 49 90 53 6 4 46 28 90 52 164 92 372 211 442
255 60 36 89 47 160 59 49 9 96 20 106 25 10 6 57 14 105 20 206 23 498 89
847 192 83 24 161 45 175 45 l25 2 -23 -18z m-9394 -4373 c-4 -11 -191 -96
-303 -138 -27 -11 -115 -45 -195 -76 -136 -53 -298 -115 -450 -170 -36 -13
-94 -35 -130 -48 -435 -168 -592 -217 -831 -262 -174 -33 -304 -45 -485 -45
-243 0 -476 34 -626 92 -53 21 -74 38 -48 38 11 0 72 22 415 150 335 125 624
236 705 270 260 109 304 117 680 124 352 7 795 31 1050 55 236 23 222 23 218
10z m-3567 -888 c265 -147 580 -239 899 -261 199 -14 242 -19 235 -31 -15 -23
-394 0 -582 36 -157 30 -332 86 -503 162 -184 82 -242 122 -208 145 22 15 68
0 159 -51z"/>
</g>
</svg>
