<?xml version="1.0" standalone="no"?>
<!DOCTYPE svg PUBLIC "-//W3C//DTD SVG 20010904//EN"
 "http://www.w3.org/TR/2001/REC-SVG-20010904/DTD/svg10.dtd">
<svg version="1.0" xmlns="http://www.w3.org/2000/svg"
 viewBox="668 -635 1136 2642"
 preserveAspectRatio="xMidYMid meet">
<metadata>
Created by potrace 1.16, written by Peter Selinger 2001-2019
</metadata>
<g transform="rotate(-55, 1235.0, 688.5)"><g transform="translate(0.000000,1377.000000) scale(0.100000,-0.100000)"
fill="#d4181f" stroke="none">
<path d="M22335 13253 c-71 -48 -157 -108 -190 -133 -52 -39 -68 -45 -125 -51
-47 -4 -79 -14 -115 -36 -27 -16 -95 -56 -150 -88 -269 -157 -395 -259 -415
-333 -13 -49 4 -37 -295 -212 -688 -403 -974 -578 -1940 -1190 -44 -28 -132
-86 -196 -128 -64 -42 -151 -99 -194 -127 -261 -169 -564 -371 -585 -390 -14
-13 -41 -31 -60 -42 -49 -26 -160 -101 -190 -129 -14 -12 -36 -27 -50 -33 -14
-6 -61 -36 -105 -67 -44 -32 -116 -82 -160 -112 -113 -79 -353 -249 -615 -437
-308 -221 -314 -225 -348 -225 -26 0 -47 19 -145 128 -266 295 -468 449 -654
497 -166 43 -348 -14 -495 -157 -85 -82 -120 -161 -126 -288 -10 -213 79 -470
306 -886 45 -83 82 -161 82 -172 0 -22 -138 -117 -565 -390 -377 -240 -477
-318 -496 -385 -7 -23 -19 -49 -28 -58 -23 -23 -383 -246 -871 -539 -383 -230
-669 -397 -702 -413 -21 -9 -38 -21 -38 -26 0 -5 -15 -14 -32 -21 -39 -15
-129 -68 -143 -85 -5 -6 -43 -28 -84 -48 -41 -21 -87 -48 -102 -62 -16 -13
-38 -27 -50 -30 -12 -4 -60 -31 -108 -60 -47 -29 -129 -77 -181 -107 -52 -31
-174 -102 -270 -158 -153 -90 -374 -218 -565 -328 -144 -82 -766 -431 -880
-492 -44 -23 -138 -75 -210 -115 -234 -130 -676 -365 -1715 -912 -58 -31 -184
-96 -280 -146 -96 -49 -281 -145 -410 -212 -129 -67 -311 -160 -405 -207 -93
-47 -246 -125 -340 -173 -360 -185 -577 -293 -618 -308 -23 -8 -148 -66 -277
-128 -129 -63 -278 -134 -330 -158 -89 -42 -191 -89 -355 -166 -78 -36 -69
-32 -395 -178 -576 -257 -1083 -472 -1680 -712 -140 -56 -266 -108 -280 -114
-77 -33 -695 -269 -865 -330 -27 -10 -140 -50 -250 -90 -110 -40 -328 -117
-485 -171 -319 -111 -371 -130 -441 -166 -74 -37 -69 -42 161 -176 289 -169
637 -280 995 -319 159 -17 463 -15 645 5 454 49 921 172 1597 420 181 66 832
326 918 366 22 10 130 56 240 103 201 85 270 115 533 233 130 59 209 95 377
174 33 15 139 65 235 110 389 182 587 276 625 297 83 45 265 133 278 133 24 0
1688 837 2192 1103 638 336 705 372 788 418 38 22 70 39 73 39 3 0 128 68 604
328 208 114 779 430 1150 637 146 81 296 168 334 192 38 25 79 49 92 53 20 8
126 67 429 240 61 35 123 73 138 86 16 13 34 24 42 24 7 0 55 25 106 55 52 31
101 60 109 65 8 5 92 52 185 106 94 53 211 120 260 149 50 28 178 103 285 167
107 63 256 150 330 193 172 100 375 222 419 252 37 25 87 29 156 13 50 -11 78
4 320 169 93 64 177 119 186 123 10 4 86 58 171 120 309 229 366 268 396 268
26 0 43 -20 163 -182 74 -100 141 -189 149 -198 8 -9 47 -58 87 -110 83 -110
156 -187 228 -240 68 -50 114 -73 214 -104 l85 -27 55 22 c129 52 294 159 361
235 157 180 103 522 -176 1113 -30 62 -54 125 -54 141 0 29 -1 28 547 384 76
49 340 222 588 384 247 162 486 318 530 347 149 97 669 437 765 500 52 34 154
100 225 147 136 88 332 217 570 373 310 204 453 296 725 470 157 100 348 223
426 273 245 158 326 195 341 156 3 -9 -13 -73 -35 -143 -76 -233 -105 -381
-122 -628 -7 -98 -8 -177 -1 -237 5 -50 13 -124 16 -165 11 -132 53 -314 110
-484 15 -43 24 -88 21 -100 -15 -61 -380 -539 -627 -822 -14 -16 -75 -86 -135
-155 -357 -410 -504 -583 -504 -597 0 -5 -21 -29 -46 -53 -25 -25 -65 -75 -89
-112 -25 -36 -49 -69 -55 -73 -37 -23 -292 -404 -331 -495 -66 -156 -44 -321
67 -490 42 -65 163 -190 183 -190 22 0 29 41 33 210 6 214 31 322 108 475 140
275 279 456 778 1013 140 156 282 327 439 528 249 319 266 339 298 339 35 0
36 -4 60 -200 21 -167 21 -442 0 -600 -49 -376 -177 -694 -447 -1112 -43 -67
-91 -136 -107 -154 -16 -17 -35 -43 -42 -57 -19 -39 -96 -147 -115 -163 -16
-13 -108 -149 -152 -224 -93 -160 -163 -348 -177 -472 -16 -138 44 -284 164
-403 88 -86 143 -120 169 -103 9 6 16 19 15 29 -2 11 -8 53 -14 94 -14 94 -5
257 20 370 24 105 56 191 128 340 74 155 81 167 147 270 27 41 54 80 61 85 12
10 71 96 201 295 35 52 67 100 72 105 17 20 90 152 140 255 201 413 291 801
279 1210 -7 259 -37 434 -118 692 -21 69 -39 130 -39 135 0 6 50 99 111 209
385 690 563 1213 546 1599 -9 186 -46 305 -133 428 -19 26 -34 55 -34 65 0 9
20 31 43 48 308 226 333 249 349 327 35 168 -96 548 -292 847 -217 330 -535
597 -733 615 l-62 6 -130 -88z m353 -122 c189 -95 433 -340 575 -577 87 -145
163 -356 174 -482 l6 -74 -28 4 c-24 3 -34 16 -76 97 -27 51 -51 96 -55 100
-4 3 -4 1 -1 -5 7 -12 47 -248 47 -276 0 -14 -8 -18 -32 -18 -26 0 -37 7 -54
33 -26 39 -214 277 -219 277 -8 0 12 -43 74 -165 43 -84 61 -131 61 -157 0
-36 -2 -38 -30 -38 -63 0 -155 113 -401 490 -192 294 -239 359 -366 505 -115
132 -129 165 -68 165 43 0 139 -47 220 -108 92 -69 93 -69 45 -18 -25 26 -80
75 -122 108 -66 52 -78 66 -78 91 0 30 0 30 48 24 72 -8 182 -50 248 -94 83
-54 93 -59 74 -41 -8 8 -48 43 -87 78 -52 45 -73 70 -73 86 0 20 5 24 30 24
17 0 56 -13 88 -29z m-596 -160 c100 -48 242 -193 449 -458 227 -291 405 -660
455 -945 19 -107 16 -128 -19 -128 -27 0 -37 17 -74 130 -27 81 -118 289 -134
305 -6 6 8 -33 29 -85 67 -163 102 -291 102 -377 0 -44 -38 -83 -80 -83 -34 0
-38 7 -161 294 -62 143 -116 256 -123 256 -3 0 17 -46 44 -102 104 -222 150
-363 150 -463 0 -77 -26 -108 -85 -103 l-38 3 -37 110 c-50 150 -90 240 -162
370 -64 115 -184 305 -192 305 -3 0 22 -42 55 -92 132 -204 236 -441 264 -606
26 -148 17 -182 -49 -182 -38 0 -30 -15 -123 215 -65 160 -121 278 -169 361
-45 76 -36 48 20 -63 98 -196 166 -410 166 -520 l0 -53 -32 0 c-70 0 -72 3
-116 138 -53 166 -96 266 -172 404 -107 191 -340 534 -479 703 -159 193 -191
240 -191 277 0 25 4 28 31 28 55 0 98 -31 221 -159 67 -69 94 -94 60 -56 -34
39 -99 111 -146 160 -86 91 -98 115 -76 156 7 13 21 19 44 19 65 0 201 -124
397 -360 153 -185 187 -223 127 -145 -139 184 -303 378 -367 434 -59 52 -71
68 -71 94 0 98 102 86 249 -28 106 -82 331 -322 425 -452 47 -66 59 -70 14 -5
-119 173 -342 416 -470 511 -65 49 -74 78 -36 118 35 37 81 31 167 -22 100
-62 142 -94 240 -189 l84 -81 -64 74 c-35 40 -98 101 -139 134 -41 33 -92 76
-112 96 -36 33 -48 68 -30 85 12 13 106 -1 154 -23z m-738 -492 c48 -13 142
-104 204 -196 39 -58 42 -66 48 -157 l7 -96 -28 0 c-18 0 -53 19 -99 53 -76
58 -151 107 -162 107 -16 0 38 -47 126 -110 139 -99 190 -168 190 -258 0 -75
-12 -86 -84 -80 -48 4 -62 11 -140 72 -142 111 -228 230 -290 404 -43 121 -41
130 61 206 90 69 103 73 167 55z m-332 -269 c8 -116 9 -392 1 -582 l-6 -158
-30 0 c-21 0 -50 15 -91 47 -88 67 -86 66 -86 61 0 -3 40 -38 90 -79 97 -80
107 -98 95 -175 -9 -60 -36 -78 -113 -72 -88 6 -145 39 -252 147 -104 105
-186 220 -249 350 -49 101 -53 141 -16 141 31 0 54 -14 163 -98 45 -34 82 -61
82 -59 0 1 -40 38 -90 81 -81 70 -90 81 -90 112 0 47 45 76 112 72 l47 -3 3
45 c3 44 4 45 40 48 27 2 43 -3 57 -17 l21 -21 -6 43 -6 42 133 82 c86 53 143
81 159 80 24 -2 25 -5 32 -87z m-724 -470 c3 -91 -17 -431 -36 -645 -7 -69 -7
-70 -37 -73 -24 -2 -48 12 -125 74 -82 66 -270 208 -407 308 -34 25 -42 37
-43 61 0 28 6 34 65 63 36 18 74 32 84 32 9 0 34 -19 54 -42 39 -44 52 -45 17
-1 -11 14 -20 40 -20 58 0 30 7 38 72 81 194 127 313 194 343 192 l30 -3 3
-105z m1500 -69 c144 -98 254 -226 337 -394 57 -115 72 -167 61 -211 -9 -38
-51 -35 -93 6 l-33 32 16 -46 c22 -65 16 -92 -20 -96 -21 -3 -38 5 -65 30 -20
18 -30 26 -23 18 15 -18 16 -102 0 -118 -19 -19 -63 -14 -93 10 -27 21 -28 21
-16 0 29 -54 1 -95 -62 -90 -40 3 -41 4 -69 72 -57 133 -72 229 -72 451 0 176
13 339 30 366 11 18 47 8 102 -30z m1341 -260 c66 -66 110 -266 111 -497 0
-337 -189 -903 -467 -1399 -61 -108 -246 -405 -303 -485 -145 -205 -186 -261
-309 -420 -171 -221 -423 -525 -526 -635 -11 -12 -49 -55 -85 -95 -36 -41 -83
-95 -106 -120 -78 -86 -210 -245 -228 -275 -11 -16 -27 -35 -36 -42 -22 -16
-150 -187 -150 -200 0 -6 -12 -23 -27 -39 -37 -40 -116 -172 -169 -282 -48
-101 -97 -262 -108 -357 -4 -33 -12 -77 -17 -97 -8 -32 -14 -38 -37 -38 -32 0
-61 38 -100 132 -23 55 -27 77 -27 174 l0 110 58 119 c107 220 252 417 563
766 235 264 616 713 800 944 263 330 478 642 657 956 93 163 230 463 299 654
125 349 169 596 133 749 -18 77 -64 174 -106 226 -42 51 -38 72 27 124 64 53
118 62 153 27z m-3581 -156 c2 -124 -28 -580 -44 -657 -4 -22 -11 -28 -33 -28
-32 0 -58 19 -301 220 -96 80 -187 155 -202 166 -48 38 -39 66 45 129 95 71
115 71 151 5 15 -27 31 -52 36 -55 13 -8 -5 40 -25 68 -22 31 -19 74 6 89 11
7 87 57 167 110 100 66 155 97 172 95 l25 -2 3 -140z m186 88 c126 -88 375
-282 435 -340 l54 -52 -6 -68 c-6 -83 -25 -103 -96 -103 -68 0 -138 39 -234
130 -140 133 -286 361 -287 448 0 39 2 42 26 42 16 0 59 -23 108 -57z m1521
-107 c237 -159 390 -300 424 -389 6 -16 11 -53 11 -84 l0 -56 -45 5 c-25 3
-63 17 -85 32 -22 14 -40 25 -40 23 0 -2 11 -18 25 -37 45 -61 26 -108 -40
-97 -19 3 -48 15 -64 26 -36 26 -50 27 -27 2 12 -14 16 -32 14 -67 l-3 -49
-47 1 c-46 0 -48 -1 -48 -28 0 -22 -8 -32 -40 -48 -46 -24 -87 -26 -109 -6
-14 13 -16 9 -16 -37 l0 -52 -50 0 c-45 0 -51 3 -72 34 -43 63 -55 125 -60
309 -6 173 4 310 33 487 21 127 20 125 62 125 29 0 63 -18 177 -94z m1647 -4
c80 -89 110 -231 89 -426 -27 -246 -144 -603 -302 -920 -99 -197 -106 -208
-138 -204 -39 5 -51 42 -66 201 -37 398 -9 616 129 1009 97 275 116 316 166
349 57 39 80 37 122 -9z m-315 -199 c-3 -33 -29 -124 -60 -208 -90 -249 -127
-448 -127 -686 0 -165 16 -289 61 -475 18 -75 29 -142 26 -155 -4 -13 -26 -53
-49 -89 -34 -51 -49 -66 -71 -68 -34 -4 -44 16 -86 184 -46 184 -64 333 -62
534 2 292 37 506 128 793 l47 148 70 38 c39 21 84 39 100 40 l29 1 -6 -57z
m-3608 -115 c95 -69 360 -282 436 -351 l60 -54 0 -63 c-1 -79 -14 -90 -104
-90 -88 0 -149 29 -239 115 -128 120 -282 357 -299 458 l-6 37 40 0 c32 0 54
-10 112 -52z m-193 -54 c7 -47 -22 -680 -32 -696 -11 -18 -52 -6 -90 26 -54
46 -378 283 -406 296 -21 10 -20 9 3 -12 14 -13 70 -54 125 -93 54 -38 152
-115 219 -171 l120 -100 3 -56 c2 -47 -1 -60 -22 -84 -34 -40 -99 -40 -178 -1
-65 32 -182 141 -250 234 -25 34 -53 69 -62 78 -8 9 -20 32 -25 52 -6 19 -18
44 -27 54 -9 10 -19 41 -22 69 -5 56 10 71 57 53 26 -9 26 -9 23 26 -4 35 -2
37 63 74 79 44 125 49 126 15 0 -13 5 -32 10 -43 6 -13 7 0 3 41 -7 70 -12 64
141 169 48 33 103 72 123 87 21 15 49 28 64 28 24 0 27 -4 34 -46z m1631 -61
c60 -43 142 -100 182 -128 142 -98 318 -234 359 -279 58 -63 54 -102 -15 -148
-40 -26 -62 -22 -101 15 l-33 32 10 -28 c15 -38 14 -90 -1 -105 -7 -7 -27 -12
-45 -12 -25 0 -42 10 -79 48 l-47 47 31 -41 c38 -50 44 -107 13 -124 -32 -16
-81 -12 -119 12 l-36 22 17 -24 c24 -35 22 -86 -4 -101 -26 -14 -76 -5 -103
19 -21 17 -21 17 -3 -4 9 -11 17 -34 17 -50 0 -25 -10 -36 -63 -72 -89 -60
-100 -58 -127 30 -49 162 -63 263 -64 463 -1 177 15 330 49 483 9 39 47 26
162 -55z m-2341 -399 c7 -27 1 -139 -21 -439 -21 -270 -22 -275 -47 -275 -12
0 -53 26 -92 58 -104 84 -227 175 -232 170 -2 -3 45 -41 105 -86 59 -45 127
-102 150 -127 35 -38 41 -51 41 -89 0 -63 -37 -106 -90 -106 -54 0 -156 56
-255 140 -101 86 -144 133 -196 212 -48 75 -51 117 -13 153 40 38 76 32 145
-21 68 -52 78 -51 19 3 -37 33 -41 40 -38 77 l3 41 66 0 66 0 -4 36 c-5 32 -1
39 38 73 40 34 234 167 284 194 36 20 64 14 71 -14z m1642 -111 c353 -243 486
-366 499 -463 7 -51 -8 -70 -57 -70 -27 0 -53 10 -89 34 -59 40 -66 34 -16
-14 48 -46 48 -85 1 -122 -55 -44 -90 -38 -156 25 l-55 52 48 -50 c35 -38 47
-58 47 -82 0 -26 -5 -33 -31 -42 -46 -16 -69 -14 -109 10 -19 12 -29 15 -22 8
6 -7 12 -26 12 -41 0 -21 -5 -28 -20 -28 -13 0 -20 -7 -20 -20 0 -31 -43 -54
-87 -45 -54 10 -113 43 -122 68 -44 115 -76 598 -50 757 22 141 52 144 227 23z
m-3843 -244 c305 -153 716 -596 1107 -1192 227 -346 482 -807 612 -1107 20
-47 43 -98 51 -115 29 -60 106 -272 135 -370 44 -153 53 -213 48 -332 -6 -151
-44 -233 -109 -233 l-29 0 1 148 c1 137 -2 156 -34 282 -108 420 -438 1098
-800 1645 -44 66 -99 146 -123 178 -24 31 -44 60 -44 62 0 3 -50 70 -112 148
-311 397 -623 692 -900 852 -37 21 -48 33 -48 52 l0 25 88 -4 c76 -3 97 -9
157 -39z m3005 -114 c82 -56 312 -229 450 -338 162 -129 225 -232 171 -282
-14 -12 -32 -16 -63 -14 -43 4 -43 4 -40 -27 3 -24 -2 -35 -19 -48 -26 -18
-61 -21 -88 -7 -15 8 -16 5 -13 -24 3 -29 -1 -36 -34 -59 -48 -33 -81 -33
-124 -1 -42 31 -44 31 -25 1 9 -14 15 -37 13 -53 -3 -27 -6 -28 -58 -30 -42
-2 -73 5 -135 30 l-79 32 -22 70 c-39 126 -56 283 -62 553 l-4 252 25 0 c15 0
61 -23 107 -55z m-3199 -7 c140 -70 282 -183 475 -379 170 -174 313 -339 434
-502 35 -48 68 -87 72 -87 4 0 8 -4 8 -10 0 -5 27 -47 59 -92 131 -183 380
-607 509 -863 253 -507 358 -826 369 -1131 5 -116 3 -150 -11 -192 -18 -53
-67 -107 -139 -151 -47 -29 -68 -25 -184 29 -184 86 -303 203 -498 490 -44 63
-94 135 -112 160 -44 58 -42 94 5 98 28 3 40 -3 75 -41 23 -24 82 -103 131
-175 87 -129 206 -270 206 -244 0 21 55 13 125 -19 55 -26 71 -30 90 -21 45
21 60 58 59 152 0 72 -7 104 -43 214 -144 433 -399 887 -741 1316 -103 130
-134 166 -272 315 -104 113 -160 160 -270 225 l-88 51 -107 -80 c-60 -44 -126
-98 -148 -120 -27 -29 -47 -41 -67 -41 -21 0 -28 -5 -28 -20 0 -14 -7 -20 -24
-20 -20 0 -30 13 -64 83 -67 136 -192 425 -231 532 -35 98 -36 104 -36 245 0
142 1 146 29 198 32 56 81 102 131 120 17 6 66 10 111 9 74 -2 89 -6 175 -49z
m1637 -98 c3 -71 -11 -331 -25 -448 l-6 -54 -35 4 -35 4 27 -21 c64 -51 84
-130 51 -195 -13 -25 -22 -30 -51 -30 -19 0 -45 5 -57 12 -65 34 -232 150
-302 210 -149 125 -179 191 -112 242 44 34 91 34 142 0 l40 -27 -28 30 c-24
25 -28 38 -25 74 l3 44 47 3 c26 2 58 -2 70 -9 21 -11 22 -11 10 4 -31 37 -11
62 113 152 87 63 126 85 145 83 24 -3 25 -6 28 -78z m879 -298 c156 -93 477
-335 547 -412 56 -62 89 -141 90 -215 1 -57 0 -60 -25 -63 -16 -2 -45 10 -80
33 -39 27 -48 30 -31 13 32 -35 30 -90 -4 -117 -15 -12 -37 -21 -50 -21 -16 0
-24 -6 -24 -18 0 -24 -83 -72 -124 -72 -20 0 -48 11 -72 28 -64 46 -71 48 -37
9 35 -40 49 -77 39 -103 -5 -12 -18 -15 -61 -12 l-54 3 -3 -35 c-3 -33 -6 -35
-40 -38 -47 -4 -70 18 -124 121 -59 109 -89 191 -115 307 -19 91 -23 135 -23
325 -1 192 2 226 18 269 l19 48 43 -5 c26 -3 71 -21 111 -45z m-729 -437 c64
-30 148 -80 257 -154 318 -216 435 -345 435 -478 l0 -53 -37 0 c-21 0 -53 9
-71 20 -41 25 -45 25 -32 0 6 -12 10 -38 8 -58 l-3 -37 -47 2 c-30 1 -62 10
-85 24 l-38 23 28 -36 c51 -69 30 -112 -50 -106 l-48 3 3 -36 c3 -32 1 -37
-27 -49 -45 -18 -103 -7 -190 37 l-76 38 -17 70 c-10 39 -18 84 -18 101 0 16
-4 34 -8 40 -5 5 -19 50 -30 99 -58 240 -74 336 -79 453 l-6 122 39 0 c22 0
63 -11 92 -25z m5176 -62 c19 -60 53 -205 71 -303 40 -225 44 -577 10 -794
-60 -379 -215 -754 -469 -1135 -75 -112 -136 -207 -136 -212 0 -4 -13 -23 -29
-41 -15 -18 -49 -65 -74 -104 -144 -226 -212 -358 -262 -508 -34 -100 -40
-140 -61 -379 -6 -73 -15 -84 -58 -73 -37 9 -92 105 -112 194 -52 233 54 502
354 903 35 46 68 95 73 109 6 14 16 30 23 35 25 20 181 255 250 378 327 587
420 1131 286 1685 -17 68 -30 133 -30 143 0 11 21 49 46 85 38 53 51 64 74 64
25 0 30 -6 44 -47z m-6622 -67 c55 -20 164 -113 243 -208 38 -46 74 -87 79
-93 21 -19 213 -310 279 -422 97 -164 184 -342 218 -445 25 -79 29 -104 29
-207 0 -101 -3 -123 -22 -161 -31 -61 -79 -92 -138 -88 -40 3 -45 6 -48 29 -3
25 -4 25 -92 24 l-88 0 -104 -70 c-90 -61 -187 -133 -510 -377 -42 -32 -87
-64 -100 -71 -13 -7 -63 -39 -113 -71 -144 -95 -186 -117 -213 -114 -22 3 -28
13 -47 78 -54 178 -105 275 -292 554 -208 310 -351 474 -461 530 -42 21 -52
31 -52 51 0 51 95 60 181 18 72 -36 211 -176 322 -325 48 -65 90 -118 93 -118
27 0 -196 269 -340 410 -56 55 -86 92 -86 106 0 24 -8 18 305 222 88 58 237
155 330 217 238 156 306 195 342 195 35 0 118 -70 236 -198 86 -93 79 -86 163
-197 212 -280 316 -494 290 -598 -6 -24 -11 -27 -46 -27 -32 0 -42 5 -53 26
-12 23 -13 20 -9 -36 3 -46 1 -65 -9 -71 -26 -16 -63 -9 -90 17 l-26 25 5 -49
c6 -71 -8 -92 -63 -92 -31 0 -47 5 -54 18 -8 13 -10 7 -11 -28 0 -66 -22 -93
-71 -88 -22 2 -39 0 -39 -4 0 -5 -7 -8 -15 -8 -8 0 -15 -9 -15 -21 0 -31 -17
-57 -50 -74 -44 -23 -71 -18 -108 18 l-33 32 15 -30 c35 -67 1 -144 -65 -145
-28 0 -48 13 -74 50 -11 15 -15 18 -11 7 17 -52 18 -97 2 -122 -15 -22 -23
-26 -59 -23 -41 3 -43 5 -104 98 -180 278 -236 360 -244 360 -14 0 -12 -4 65
-122 40 -62 115 -186 166 -275 50 -90 98 -163 106 -163 8 0 49 27 91 59 74 56
325 235 485 346 39 28 132 94 205 148 107 77 141 97 168 97 27 0 34 -4 37 -22
4 -32 31 -29 42 5 49 139 -292 746 -584 1037 -105 105 -147 128 -205 110 -22
-6 -59 -14 -82 -17 -35 -4 -43 -2 -53 17 -21 39 -4 84 51 135 l51 48 74 -5
c67 -5 72 -4 54 9 -15 11 -20 24 -18 46 3 27 9 33 43 43 52 16 82 16 127 0z
m-1301 -1268 c30 -34 100 -123 156 -197 56 -75 113 -151 128 -168 15 -18 29
-50 32 -71 l5 -39 -126 -87 c-70 -48 -135 -90 -144 -93 -9 -4 -71 -39 -137
-78 -66 -39 -147 -85 -180 -102 -33 -17 -121 -68 -195 -113 -177 -108 -361
-219 -715 -430 -159 -95 -319 -192 -355 -215 -36 -24 -83 -51 -105 -61 -44
-20 -124 -66 -415 -237 -180 -105 -470 -274 -548 -319 -18 -10 -93 -53 -165
-95 -73 -42 -181 -104 -242 -138 -60 -34 -184 -103 -275 -155 -91 -51 -181
-102 -200 -113 -174 -98 -492 -275 -715 -397 -383 -209 -942 -510 -948 -510
-2 0 -44 -22 -93 -48 -352 -191 -1041 -547 -1709 -883 -242 -122 -456 -229
-475 -239 -19 -10 -64 -32 -100 -49 -36 -18 -76 -38 -90 -46 -14 -8 -70 -35
-125 -59 -55 -24 -165 -75 -245 -114 -151 -73 -212 -102 -745 -347 -461 -211
-586 -264 -668 -280 -84 -17 -402 -49 -632 -65 -145 -9 -811 -30 -977 -30 -68
0 -68 0 -68 28 0 20 7 30 28 39 15 6 54 24 87 38 59 26 130 55 375 153 176 71
522 219 785 337 151 67 166 74 307 139 42 19 105 47 140 62 35 14 68 30 73 34
6 4 42 21 81 38 39 17 146 67 238 112 92 44 169 80 171 80 4 0 354 170 590
286 83 41 192 96 244 124 52 27 100 50 106 50 18 0 1137 564 1505 758 47 24
155 81 240 124 85 44 187 97 225 118 39 21 111 59 160 85 50 26 155 82 235
125 80 42 179 95 220 117 250 133 952 516 1150 628 41 23 131 74 200 112 341
191 554 312 643 365 54 32 100 58 103 58 4 0 43 22 88 49 44 27 167 98 271
159 105 60 231 133 280 162 50 29 133 78 185 108 52 30 124 75 159 99 35 25
105 66 156 93 51 27 146 81 212 121 214 130 315 189 324 189 5 0 26 11 47 24
20 13 141 87 267 164 127 76 363 222 525 322 162 101 342 212 400 248 58 35
112 70 120 78 8 8 28 14 46 14 26 0 40 -11 85 -62z m-9593 -5759 c-3 -30 -9
-34 -128 -85 -69 -30 -147 -63 -175 -73 -27 -11 -115 -45 -195 -76 -136 -53
-298 -115 -450 -170 -36 -13 -94 -35 -130 -48 -522 -201 -750 -265 -1060 -296
-131 -14 -423 -14 -548 0 -120 13 -296 51 -374 81 -51 20 -58 26 -58 50 0 16
5 28 10 28 11 0 72 22 415 150 335 125 624 236 705 270 260 109 304 117 680
124 352 7 795 31 1050 55 102 10 202 19 223 20 37 1 38 0 35 -30z"/>
<path d="M22290 12586 c0 -2 8 -10 18 -17 15 -13 16 -12 3 4 -13 16 -21 21
-21 13z"/>
<path d="M21775 12300 c10 -11 20 -20 23 -20 3 0 -3 9 -13 20 -10 11 -20 20
-23 20 -3 0 3 -9 13 -20z"/>
<path d="M22100 12146 c0 -2 8 -10 18 -17 15 -13 16 -12 3 4 -13 16 -21 21
-21 13z"/>
<path d="M22160 12066 c19 -26 39 -50 44 -54 5 -3 -6 16 -24 42 -19 26 -39 50
-44 54 -5 3 6 -16 24 -42z"/>
<path d="M22135 11780 c9 -16 18 -30 21 -30 2 0 -2 14 -11 30 -9 17 -18 30
-21 30 -2 0 2 -13 11 -30z"/>
<path d="M20722 11965 c0 -16 2 -22 5 -12 2 9 2 23 0 30 -3 6 -5 -1 -5 -18z"/>
<path d="M20731 11914 c0 -11 3 -14 6 -6 3 7 2 16 -1 19 -3 4 -6 -2 -5 -13z"/>
<path d="M20620 11726 c0 -2 8 -10 18 -17 15 -13 16 -12 3 4 -13 16 -21 21
-21 13z"/>
<path d="M20670 11686 c0 -2 8 -10 18 -17 15 -13 16 -12 3 4 -13 16 -21 21
-21 13z"/>
<path d="M20720 11646 c0 -2 8 -10 18 -17 15 -13 16 -12 3 4 -13 16 -21 21
-21 13z"/>
<path d="M20775 11600 c10 -11 20 -20 23 -20 3 0 -3 9 -13 20 -10 11 -20 20
-23 20 -3 0 3 -9 13 -20z"/>
<path d="M15452 9831 c-9 -5 12 -10 55 -13 46 -3 85 -13 121 -32 28 -14 52
-24 52 -21 0 3 -32 21 -72 40 -71 34 -129 44 -156 26z"/>
<path d="M15357 9732 c-20 -50 -21 -143 -2 -217 l13 -50 1 38 c1 25 6 37 16
37 11 0 8 9 -10 36 -29 43 -34 114 -9 138 8 9 14 26 12 38 -3 19 -6 15 -21
-20z"/>
<path d="M16620 8726 c0 -2 8 -10 18 -17 15 -13 16 -12 3 4 -13 16 -21 21 -21
13z"/>
<path d="M16790 8470 c6 -11 13 -20 16 -20 2 0 0 9 -6 20 -6 11 -13 20 -16 20
-2 0 0 -9 6 -20z"/>
<path d="M17087 7945 c9 -19 18 -33 21 -31 4 5 -26 66 -33 66 -3 0 3 -16 12
-35z"/>
<path d="M17127 7865 c9 -19 18 -33 21 -31 4 5 -26 66 -33 66 -3 0 3 -16 12
-35z"/>
<path d="M17181 7760 c14 -31 19 -36 19 -24 0 6 -7 19 -16 30 -14 18 -14 18
-3 -6z"/>
<path d="M17446 7105 c3 -16 10 -54 16 -85 5 -30 13 -95 17 -145 7 -89 7 -89
15 -41 9 51 -9 166 -39 256 -8 25 -12 32 -9 15z"/>
<path d="M17431 6722 c-19 -13 -45 -17 -108 -16 -84 0 -90 -7 -20 -27 46 -12
87 -1 132 36 34 28 32 32 -4 7z"/>
<path d="M17160 9386 c0 -2 14 -14 30 -26 17 -12 30 -19 30 -16 0 2 -13 14
-30 26 -16 12 -30 19 -30 16z"/>
<path d="M15978 8826 c35 -19 79 -47 99 -63 79 -63 85 -63 28 -4 -67 70 -92
85 -150 95 -39 6 -39 6 23 -28z"/>
<path d="M16410 8376 c0 -2 8 -10 18 -17 15 -13 16 -12 3 4 -13 16 -21 21 -21
13z"/>
<path d="M16452 8318 c43 -68 93 -155 147 -258 33 -63 61 -112 61 -107 0 27
-201 387 -217 387 -3 0 1 -10 9 -22z"/>
<path d="M16748 7685 c4 -27 7 -83 7 -124 0 -67 1 -71 12 -45 16 39 15 56 -7
144 -14 57 -17 63 -12 25z"/>
</g>
</g>
</svg>
