<?xml version="1.0" standalone="no"?>
<!DOCTYPE svg PUBLIC "-//W3C//DTD SVG 20010904//EN"
 "http://www.w3.org/TR/2001/REC-SVG-20010904/DTD/svg10.dtd">
<svg version="1.0" xmlns="http://www.w3.org/2000/svg"
 viewBox="668 -635 1136 2642"
 preserveAspectRatio="xMidYMid meet">
<metadata>
Created by potrace 1.16, written by Peter Selinger 2001-2019
</metadata>
<g transform="rotate(-55, 1235.0, 688.5)"><g transform="translate(0.000000,1377.000000) scale(0.100000,-0.100000)"
fill="#000000" stroke="none">
<path d="M 22315.0,13273.0 C 22244.0,13225.0 22158.0,13165.0 22125.0,13140.0 C 22073.0,13101.0 22057.0,13095.0 22000.0,13089.0 C 21953.0,13085.0 21921.0,13075.0 21885.0,13053.0 C 21858.0,13037.0 21790.0,12997.0 21735.0,12965.0 C 21466.0,12808.0 21340.0,12706.0 21320.0,12632.0 C 21307.0,12583.0 21324.0,12595.0 21025.0,12420.0 C 20337.0,12017.0 20051.0,11842.0 19085.0,11230.0 C 19041.0,11202.0 18953.0,11144.0 18889.0,11102.0 C 18825.0,11060.0 18738.0,11003.0 18695.0,10975.0 C 18434.0,10806.0 18131.0,10604.0 18110.0,10585.0 C 18096.0,10572.0 18069.0,10554.0 18050.0,10543.0 C 18001.0,10517.0 17890.0,10442.0 17860.0,10414.0 C 17846.0,10402.0 17824.0,10387.0 17810.0,10381.0 C 17796.0,10375.0 17749.0,10345.0 17705.0,10314.0 C 17661.0,10282.0 17589.0,10232.0 17545.0,10201.0 C 17434.0,10124.0 17137.0,9913.0 16870.0,9722.0 C 16746.0,9633.0 16634.0,9555.0 16621.0,9548.0 C 16599.0,9536.0 16594.0,9540.0 16517.0,9625.0 C 16217.0,9958.0 16012.0,10116.0 15817.0,10167.0 C 15636.0,10213.0 15439.0,10155.0 15289.0,10010.0 C 15184.0,9908.0 15146.0,9786.0 15161.0,9606.0 C 15178.0,9400.0 15269.0,9154.0 15452.0,8823.0 C 15488.0,8757.0 15526.0,8688.0 15534.0,8672.0 L 15550.0,8641.0 L 15372.0,8524.0 C 15275.0,8459.0 15101.0,8346.0 14985.0,8272.0 C 14608.0,8032.0 14508.0,7954.0 14489.0,7887.0 C 14482.0,7864.0 14470.0,7838.0 14461.0,7829.0 C 14438.0,7806.0 14078.0,7583.0 13590.0,7290.0 C 13207.0,7060.0 12921.0,6893.0 12888.0,6877.0 C 12867.0,6868.0 12850.0,6856.0 12850.0,6851.0 C 12850.0,6846.0 12835.0,6837.0 12818.0,6830.0 C 12779.0,6815.0 12689.0,6762.0 12675.0,6745.0 C 12670.0,6739.0 12632.0,6717.0 12591.0,6697.0 C 12550.0,6676.0 12504.0,6649.0 12489.0,6635.0 C 12473.0,6622.0 12451.0,6608.0 12439.0,6605.0 C 12427.0,6601.0 12379.0,6574.0 12331.0,6545.0 C 12284.0,6516.0 12202.0,6468.0 12150.0,6438.0 C 12098.0,6407.0 11976.0,6336.0 11880.0,6280.0 C 11727.0,6190.0 11506.0,6062.0 11315.0,5952.0 C 11171.0,5870.0 10549.0,5521.0 10435.0,5460.0 C 10391.0,5437.0 10297.0,5385.0 10225.0,5345.0 C 9991.0,5215.0 9549.0,4980.0 8510.0,4433.0 C 8452.0,4402.0 8326.0,4337.0 8230.0,4287.0 C 8134.0,4238.0 7949.0,4142.0 7820.0,4075.0 C 7691.0,4008.0 7509.0,3915.0 7415.0,3868.0 C 7322.0,3821.0 7169.0,3743.0 7075.0,3695.0 C 6715.0,3510.0 6498.0,3402.0 6457.0,3387.0 C 6434.0,3379.0 6309.0,3321.0 6180.0,3259.0 C 6051.0,3196.0 5902.0,3125.0 5850.0,3101.0 C 5761.0,3059.0 5659.0,3012.0 5495.0,2935.0 C 5417.0,2899.0 5426.0,2903.0 5100.0,2757.0 C 4524.0,2500.0 4017.0,2285.0 3420.0,2045.0 C 3280.0,1989.0 3154.0,1937.0 3140.0,1931.0 C 3063.0,1898.0 2445.0,1662.0 2275.0,1601.0 C 2248.0,1591.0 2135.0,1551.0 2025.0,1511.0 C 1915.0,1471.0 1697.0,1394.0 1540.0,1340.0 C 1155.0,1207.0 1040.0,1159.0 1040.0,1133.0 C 1040.0,1108.0 1072.0,1071.0 1118.0,1042.0 C 1365.0,889.0 1543.0,806.0 1778.0,735.0 C 2027.0,659.0 2270.0,627.0 2580.0,627.0 C 3135.0,628.0 3682.0,750.0 4537.0,1064.0 C 4718.0,1130.0 5369.0,1390.0 5455.0,1430.0 C 5477.0,1440.0 5585.0,1486.0 5695.0,1533.0 C 5896.0,1618.0 5965.0,1648.0 6228.0,1766.0 C 6358.0,1825.0 6437.0,1861.0 6605.0,1940.0 C 6638.0,1955.0 6744.0,2005.0 6840.0,2050.0 C 7229.0,2232.0 7427.0,2326.0 7465.0,2347.0 C 7548.0,2392.0 7730.0,2480.0 7743.0,2480.0 C 7767.0,2480.0 9431.0,3317.0 9935.0,3583.0 C 10573.0,3919.0 10640.0,3955.0 10723.0,4001.0 C 10761.0,4023.0 10793.0,4040.0 10796.0,4040.0 C 10799.0,4040.0 10924.0,4108.0 11400.0,4368.0 C 11608.0,4482.0 12179.0,4798.0 12550.0,5005.0 C 12696.0,5086.0 12846.0,5173.0 12884.0,5197.0 C 12922.0,5222.0 12963.0,5246.0 12976.0,5250.0 C 12996.0,5258.0 13102.0,5317.0 13405.0,5490.0 C 13466.0,5525.0 13528.0,5563.0 13543.0,5576.0 C 13559.0,5589.0 13577.0,5600.0 13585.0,5600.0 C 13592.0,5600.0 13640.0,5625.0 13691.0,5655.0 C 13743.0,5686.0 13792.0,5715.0 13800.0,5720.0 C 13808.0,5725.0 13892.0,5772.0 13985.0,5826.0 C 14079.0,5879.0 14196.0,5946.0 14245.0,5975.0 C 14295.0,6003.0 14412.0,6072.0 14505.0,6127.0 C 14599.0,6182.0 14743.0,6267.0 14825.0,6315.0 C 14954.0,6390.0 15194.0,6534.0 15291.0,6594.0 C 15319.0,6611.0 15327.0,6612.0 15395.0,6600.0 L 15469.0,6587.0 L 15527.0,6620.0 C 15559.0,6638.0 15661.0,6705.0 15755.0,6769.0 C 15848.0,6833.0 15932.0,6888.0 15941.0,6892.0 C 15951.0,6896.0 16027.0,6950.0 16112.0,7012.0 C 16345.0,7185.0 16479.0,7280.0 16488.0,7280.0 C 16493.0,7280.0 16557.0,7198.0 16631.0,7098.0 C 16705.0,6998.0 16772.0,6909.0 16780.0,6900.0 C 16788.0,6891.0 16827.0,6841.0 16867.0,6789.0 C 17029.0,6575.0 17151.0,6486.0 17357.0,6432.0 C 17429.0,6413.0 17445.0,6417.0 17575.0,6482.0 C 17738.0,6564.0 17853.0,6658.0 17894.0,6743.0 C 17967.0,6893.0 17947.0,7136.0 17836.0,7450.0 C 17798.0,7556.0 17754.0,7659.0 17674.0,7829.0 C 17644.0,7891.0 17620.0,7945.0 17620.0,7950.0 C 17620.0,7956.0 17757.0,8047.0 18167.0,8314.0 C 18243.0,8363.0 18507.0,8536.0 18755.0,8698.0 C 19002.0,8860.0 19241.0,9016.0 19285.0,9045.0 C 19434.0,9142.0 19954.0,9482.0 20050.0,9545.0 C 20102.0,9579.0 20204.0,9645.0 20275.0,9692.0 C 20411.0,9780.0 20607.0,9909.0 20845.0,10065.0 C 21155.0,10269.0 21298.0,10361.0 21570.0,10535.0 C 21727.0,10635.0 21919.0,10758.0 21997.0,10808.0 C 22153.0,10909.0 22284.0,10983.0 22292.0,10974.0 C 22295.0,10971.0 22283.0,10925.0 22264.0,10871.0 C 22221.0,10744.0 22185.0,10600.0 22165.0,10477.0 C 22144.0,10340.0 22127.0,10087.0 22135.0,10010.0 C 22138.0,9974.0 22145.0,9896.0 22151.0,9835.0 C 22166.0,9664.0 22203.0,9490.0 22264.0,9312.0 L 22288.0,9239.0 L 22219.0,9137.0 C 22077.0,8928.0 21838.0,8630.0 21520.0,8265.0 C 21176.0,7871.0 21020.0,7687.0 21020.0,7673.0 C 21020.0,7668.0 20999.0,7644.0 20974.0,7620.0 C 20949.0,7595.0 20909.0,7545.0 20885.0,7508.0 C 20860.0,7472.0 20836.0,7439.0 20830.0,7435.0 C 20792.0,7412.0 20538.0,7030.0 20499.0,6939.0 C 20409.0,6728.0 20477.0,6471.0 20673.0,6282.0 C 20724.0,6234.0 20745.0,6220.0 20769.0,6220.0 C 20788.0,6220.0 20803.0,6227.0 20809.0,6238.0 C 20814.0,6247.0 20820.0,6334.0 20822.0,6430.0 C 20828.0,6644.0 20853.0,6752.0 20930.0,6905.0 C 21070.0,7180.0 21209.0,7361.0 21708.0,7918.0 C 21848.0,8074.0 21990.0,8245.0 22147.0,8446.0 C 22345.0,8700.0 22414.0,8784.0 22425.0,8782.0 C 22449.0,8779.0 22481.0,8502.0 22481.0,8302.0 C 22480.0,7820.0 22349.0,7426.0 22018.0,6913.0 C 21975.0,6846.0 21927.0,6777.0 21911.0,6759.0 C 21895.0,6742.0 21876.0,6716.0 21869.0,6702.0 C 21850.0,6663.0 21773.0,6555.0 21754.0,6539.0 C 21745.0,6532.0 21713.0,6487.0 21682.0,6440.0 C 21480.0,6133.0 21394.0,5876.0 21429.0,5685.0 C 21453.0,5554.0 21555.0,5405.0 21675.0,5326.0 C 21733.0,5287.0 21788.0,5279.0 21810.0,5305.0 C 21821.0,5318.0 21820.0,5334.0 21809.0,5393.0 C 21801.0,5433.0 21795.0,5515.0 21796.0,5575.0 C 21797.0,5756.0 21835.0,5899.0 21947.0,6130.0 C 22021.0,6286.0 22028.0,6297.0 22094.0,6400.0 C 22121.0,6441.0 22148.0,6480.0 22155.0,6485.0 C 22167.0,6495.0 22226.0,6581.0 22356.0,6780.0 C 22391.0,6832.0 22423.0,6880.0 22428.0,6885.0 C 22445.0,6905.0 22518.0,7037.0 22568.0,7140.0 C 22882.0,7785.0 22936.0,8433.0 22728.0,9090.0 L 22694.0,9195.0 L 22803.0,9390.0 C 23107.0,9935.0 23282.0,10380.0 23336.0,10745.0 C 23358.0,10892.0 23350.0,11122.0 23320.0,11228.0 C 23297.0,11312.0 23262.0,11384.0 23215.0,11450.0 L 23183.0,11496.0 L 23224.0,11526.0 C 23540.0,11762.0 23552.0,11773.0 23569.0,11835.0 C 23608.0,11979.0 23551.0,12223.0 23415.0,12498.0 C 23283.0,12764.0 23155.0,12936.0 22939.0,13136.0 C 22788.0,13275.0 22651.0,13348.0 22525.0,13356.0 L 22445.0,13361.0 L 22315.0,13273.0"/>
</g>
</g>
</svg>
